<svg id="Capa_1" enable-background="new 0 0 512 512" height="512" viewBox="0 0 512 512" width="512" xmlns="http://www.w3.org/2000/svg"><g><path d="m408 0h-304c-8.284 0-15 6.716-15 15s6.716 15 15 15h9v154c0 45.903 21.745 86.817 55.469 113-9.374 0-15.469 7.173-15.469 15 0 8.284 6.716 15 15 15h46.335l-11.466 69.806c-5.26 32.028-19.505 61.353-41.314 85.194h-17.555c-8.284 0-15 6.716-15 15s6.716 15 15 15h224c8.284 0 15-6.716 15-15s-6.716-15-15-15h-17.555c-21.809-23.841-36.054-53.166-41.314-85.194l-11.466-69.806h46.335c8.284 0 15-6.716 15-15 0-7.809-6.074-15-15.469-15 33.724-26.183 55.469-67.097 55.469-113v-154h9c8.284 0 15-6.716 15-15s-6.716-15-15-15zm-39 169h-226v-82h226zm-89.473 232.668c4.793 29.181 15.908 56.461 32.567 80.332h-112.188c16.658-23.871 27.773-51.15 32.567-80.332l12.264-74.668h22.525zm-23.527-104.668c-57.224 0-104.643-42.757-112.002-98h224.005c-7.36 55.243-54.779 98-112.003 98zm113-240h-226v-27h226z"/><path d="m192.02 143c8.285 0 15-6.716 15-15s-6.715-15-15-15c-8.368 0-15.005 6.786-15.005 15 0 8.284 6.72 15 15.005 15z"/><path d="m256.02 143c8.285 0 15-6.716 15-15s-6.715-15-15-15c-8.368 0-15.005 6.786-15.005 15 0 8.284 6.72 15 15.005 15z"/><path d="m320.02 143c8.285 0 15-6.716 15-15s-6.715-15-15-15c-8.368 0-15.005 6.786-15.005 15 0 8.284 6.72 15 15.005 15z"/></g></svg>