<svg id="Capa_1" enable-background="new 0 0 512 512" height="512" viewBox="0 0 512 512" width="512" xmlns="http://www.w3.org/2000/svg"><g><path d="m343 165.841v-21.841c0-8.284-6.716-15-15-15h-11.787l46.394-46.394c3.834-3.834 5.301-9.439 3.835-14.66l-16-57c-1.817-6.473-7.719-10.946-14.442-10.946h-160c-6.723 0-12.625 4.473-14.442 10.946l-16 57c-1.465 5.221.001 10.826 3.835 14.66l46.394 46.394h-11.787c-8.284 0-15 6.716-15 15v21.841c-58.555 31.452-97 92.949-97 162.159 0 101.458 82.542 184 184 184s184-82.542 184-184c0-69.186-38.425-130.696-97-162.159zm-72-36.841v-42h44.787l-42 42zm61.209-72h-61.209v-27h53.631zm-91.209-27v27h-61.21l7.579-27zm-44.787 57h44.787v42h-2.787zm59.787 395c-84.916 0-154-69.084-154-154 0-59.331 34.699-114.033 88.398-139.36 5.251-2.477 8.602-7.761 8.602-13.567v-16.073h114v16.073c0 5.806 3.35 11.09 8.602 13.567 53.699 25.327 88.398 80.029 88.398 139.36 0 84.916-69.084 154-154 154z"/><path d="m78.849 194.121 1.907-13.351c3.002-21.011 17.108-38.96 36.814-46.843 11.492-4.597 12.772-20.414 2.146-26.79l-10.493-6.296c-14.976-8.986-25.213-24.021-28.085-41.249l-2.343-14.058c-1.205-7.233-7.463-12.534-14.795-12.534s-13.59 5.302-14.796 12.534l-2.262 13.573c-2.913 17.474-13.352 32.629-28.641 41.579l-10.879 6.369c-10.792 6.318-9.545 22.369 2.129 26.92 21.188 8.264 34.813 26.64 37.752 47.211l1.848 12.936c1.055 7.389 7.384 12.878 14.849 12.878s13.793-5.489 14.849-12.879zm-14.943-52.542c-5.364-8.427-12.116-15.93-19.98-22.163 7.907-6.27 14.64-13.784 19.969-22.206 5.249 8.413 11.891 15.936 19.696 22.234-7.75 6.249-14.403 13.742-19.685 22.135z"/><path d="m256 201c-70.028 0-127 56.972-127 127s56.972 127 127 127 127-56.972 127-127-56.972-127-127-127zm0 224c-53.486 0-97-43.514-97-97s43.514-97 97-97 97 43.514 97 97-43.514 97-97 97z"/><path d="m504.578 123.055-10.88-6.369c-15.289-8.949-25.728-24.104-28.64-41.579l-2.262-13.573c-1.206-7.233-7.464-12.534-14.796-12.534s-13.59 5.301-14.796 12.534l-2.343 14.058c-2.872 17.228-13.108 32.263-28.085 41.25l-10.493 6.296c-10.614 6.369-9.358 22.187 2.146 26.79 19.706 7.882 33.812 25.832 36.814 46.842l1.907 13.352c1.056 7.389 7.385 12.878 14.85 12.878 7.464 0 13.793-5.489 14.849-12.878l1.848-12.936c2.934-20.535 16.533-38.937 37.752-47.21 11.652-4.544 12.942-20.591 2.129-26.921zm-56.485 34.524c-5.282-8.393-11.934-15.886-19.685-22.134 7.805-6.298 14.447-13.822 19.696-22.234 5.329 8.422 12.062 15.936 19.968 22.206-7.864 6.232-14.614 13.733-19.979 22.162z"/></g></svg>