<svg id="Capa_1" enable-background="new 0 0 512 512" height="512" viewBox="0 0 512 512" width="512" xmlns="http://www.w3.org/2000/svg"><g><path d="m360.602 191.711c-21.04-14.728-33.602-38.854-33.602-64.537v-16.174h9c8.284 0 15-6.716 15-15s-6.716-15-15-15h-23.446l4.746-48.051c1.74-17.607-12.106-32.949-29.855-32.949h-62.891c-17.722 0-31.597 15.318-29.855 32.948l4.747 48.052h-23.446c-8.284 0-15 6.716-15 15s6.716 15 15 15h9v16.174c0 25.683-12.562 49.809-33.602 64.538-29.053 20.337-46.398 53.651-46.398 89.114v186.174c0 24.813 20.187 45 45 45h212c24.813 0 45-20.187 45-45v-186.174c0-35.463-17.345-68.777-46.398-89.115zm-73.156-161.711-5.037 51h-52.817l-5.037-51zm9.554 81v16.174c0 17.577 4.266 34.623 12.102 49.826h-14.472c-10.834 0-20.819-4.407-28.023-11.606-12.961-12.961-30.907-20.394-49.237-20.394h-3.855c1.866-11.214 1.485-18.019 1.485-34zm80 356c0 8.271-6.729 15-15 15h-212c-8.271 0-15-6.729-15-15v-186.174c0-25.683 12.562-49.809 33.602-64.538 15.281-10.697 27.317-24.987 35.3-41.289h13.468c10.433 0 20.647 4.23 28.023 11.606 12.668 12.669 30.221 20.395 49.237 20.395h37.273c3.595 3.328 7.425 6.44 11.495 9.289 21.04 14.728 33.602 38.854 33.602 64.537z"/><path d="m325.394 261.394-12.171 12.171c-31.086-32.624-82.895-32.955-114.373.071l-12.242-12.242c-5.857-5.858-15.355-5.858-21.213 0s-5.858 15.355 0 21.213l16.938 16.938c-11.644 29.946-3.758 63.773 19.229 85.676l-28.172 28.169c-5.85 5.86-5.85 15.36 0 21.22 5.823 5.823 15.337 5.883 21.22 0l15.984-15.984c4.021 11.833 15.231 20.374 28.406 20.374h34c13.175 0 24.385-8.541 28.406-20.374l15.984 15.984c5.823 5.823 15.337 5.883 21.22 0 5.85-5.86 5.85-15.36 0-21.22l-28.176-28.176c22.803-21.759 30.941-55.492 19.274-85.708l16.899-16.899c5.858-5.858 5.858-15.355 0-21.213-5.858-5.859-15.356-5.859-21.213 0zm-52.394 130.077v17.529h-34v-17.525c0-9.433-4.566-18.462-12.213-24.153-12.729-9.472-20.121-24.584-19.774-40.426.569-26.033 22.22-47.517 48.263-47.891 13.275-.187 25.73 4.839 35.122 14.097 20.998 20.697 19.451 55.955-5.251 74.27-7.606 5.639-12.147 14.648-12.147 24.099z"/></g></svg>