<svg id="Capa_1" enable-background="new 0 0 512.009 512.009" height="512" viewBox="0 0 512.009 512.009" width="512" xmlns="http://www.w3.org/2000/svg"><g><path d="m464.004 0c-21.23 0-39.27 13.86-45.59 33h-324.819c-6.32-19.14-24.36-33-45.59-33-26.47 0-48 21.53-48 48s21.53 48 48 48c21.23 0 39.27-13.86 45.59-33h27.41v42h-17c-8.28 0-15 6.72-15 15v377c0 10.46 10.47 17.72 20.27 14.04l146.73-55.02 146.73 55.02c9.78 3.67 20.27-3.57 20.27-14.04v-377c0-8.28-6.72-15-15-15h-17v-42h27.41c6.32 19.14 24.36 33 45.59 33 26.47 0 48-21.53 48-48s-21.531-48-48.001-48zm-416 66.5c-10.22 0-18.5-8.28-18.5-18.5s8.28-18.5 18.5-18.5 18.5 8.28 18.5 18.5-8.28 18.5-18.5 18.5zm223-3.5h90v42h-90zm-120 0h90v42h-90zm2 399.6-34 12.75v-340.35h34zm176-11.25-67.73-25.39c-3.4-1.28-7.14-1.28-10.54 0l-67.73 25.39v-316.35h146zm64-316.35v340.35l-34-12.75v-327.6zm71-68.5c-10.22 0-18.5-8.28-18.5-18.5s8.28-18.5 18.5-18.5 18.5 8.28 18.5 18.5-8.28 18.5-18.5 18.5z"/><path d="m224.004 223h17v17c0 8.284 6.716 15 15 15s15-6.716 15-15v-17h17c8.284 0 15-6.716 15-15s-6.716-15-15-15h-17v-17c0-8.284-6.716-15-15-15s-15 6.716-15 15v17h-17c-8.284 0-15 6.716-15 15s6.716 15 15 15z"/><path d="m288.004 329h-17v-17c0-8.284-6.716-15-15-15s-15 6.716-15 15v17h-17c-8.284 0-15 6.716-15 15s6.716 15 15 15h17v17c0 8.284 6.716 15 15 15s15-6.716 15-15v-17h17c8.284 0 15-6.716 15-15s-6.715-15-15-15z"/></g></svg>