<svg id="Capa_1" enable-background="new 0 0 512 512" height="512" viewBox="0 0 512 512" width="512" xmlns="http://www.w3.org/2000/svg"><g><path d="m497 113h-71.52c-31.61 0-63.18-3.89-93.84-11.55-33.04-8.26-67.06-12.45-101.12-12.45h-118.52c-8.28 0-15 6.72-15 15v25h-34v-35.41c19.14-6.32 33-24.36 33-45.59 0-26.47-21.53-48-48-48s-48 21.53-48 48c0 21.23 13.86 39.27 33 45.59v403.41c0 8.28 6.72 15 15 15s15-6.72 15-15v-106h34v17c0 8.28 6.72 15 15 15h74.39c28.93 0 57.75 3.86 85.66 11.47 30.49 8.31 61.96 12.53 93.56 12.53h131.39c8.28 0 15-6.72 15-15v-304c0-8.28-6.72-15-15-15zm-449-46.5c-10.22 0-18.5-8.28-18.5-18.5s8.28-18.5 18.5-18.5 18.5 8.28 18.5 18.5-8.28 18.5-18.5 18.5zm49 294.5h-34v-202h34zm56 32h-26v-274h26zm272 24h-59.39c-28.93 0-57.75-3.86-85.66-11.47-33.27-9.07-63.85-12.53-96.95-12.53v-274h47.52c31.61 0 63.18 3.89 93.84 11.55 32.89 8.22 66.74 12.41 100.64 12.45zm57 0h-27v-274h27z"/><path d="m366.63 212.29-27.22 21.78-22.93-34.39c-5.92-8.88-19.02-8.91-24.96 0l-22.93 34.39-27.22-21.78c-9.8-7.84-24.37-.85-24.37 11.71v96c0 8.28 6.72 15 15 15h144c8.28 0 15-6.72 15-15v-96c0-12.55-14.56-19.56-24.37-11.71zm-5.63 92.71h-114v-49.79l15.63 12.5c6.87 5.5 16.97 3.93 21.85-3.39l19.52-29.28 19.52 29.28c4.88 7.32 14.98 8.89 21.85 3.39l15.63-12.5z"/></g></svg>