<svg id="Capa_1" enable-background="new 0 0 512.015 512.015" height="512" viewBox="0 0 512.015 512.015" width="512" xmlns="http://www.w3.org/2000/svg"><g><path d="m416.012 281.015h-16.06l-121.892-179.253 64.66-32.33c10.949-5.474 11.088-21.151.134-26.766l-80-41c-9.963-5.103-21.842 2.133-21.842 13.349v76.383l-128.94 189.617h-16.06c-8.284 0-15 6.716-15 15 0 87.611-.154 80.951.357 83.254l15.643 70.393v47.354c0 8.284 6.716 15 15 15h288c8.284 0 15-6.716 15-15v-47.354c17.088-76.897 16-71.303 16-73.646v-80c0-8.285-6.715-15.001-15-15.001zm-145-241.458 31.789 16.292-31.789 15.895zm-15 83.134 107.66 158.324h-11.66c-8.284 0-15 6.716-15 15v41h-34v-41c0-8.284-6.716-15-15-15h-64c-8.284 0-15 6.716-15 15v41h-34v-41c0-8.284-6.716-15-15-15h-11.66zm25 359.324h-50v-26c0-13.785 11.215-25 25-25s25 11.215 25 25zm120-107.647c-17.088 76.897-16 71.303-16 73.646v34h-74v-26c0-30.327-24.673-55-55-55s-55 24.673-55 55v26h-74v-34c0-2.35 1.108 3.34-16-73.646v-63.354h34v41c0 8.284 6.716 15 15 15h64c8.284 0 15-6.716 15-15v-41h34v41c0 8.284 6.716 15 15 15h64c8.284 0 15-6.716 15-15v-41h34z"/><path d="m175.012 80.015c0-24.335-18.591-44.411-42.316-46.769-2.233-6.923-6.038-13.323-11.229-18.738-18.535-19.336-48.369-19.341-66.908 0-5.19 5.414-8.994 11.811-11.228 18.733-10.762 1.046-20.859 5.683-28.825 13.319-19.336 18.537-19.339 48.369 0 66.909 9.112 8.735 21.012 13.545 33.507 13.545h80c25.915.001 46.999-21.083 46.999-46.999zm-145 0c0-10.587 11.312-19.289 22.276-16.465 9.588 2.473 19.026-4.944 18.736-14.984-.313-9.877 7.809-18.551 16.987-18.551s17.304 8.667 16.986 18.579c-.285 9.98 9.086 17.442 18.737 14.956 10.821-2.788 21.276 5.421 21.276 16.465 0 9.374-7.626 17-17 17h-80c-9.586 0-17.998-7.944-17.998-17z"/><path d="m468.633 97.236c-6.209-18.697-23.865-32.221-44.62-32.221-20.756 0-38.413 13.526-44.622 32.226-23.754 2.33-42.378 22.418-42.378 46.774 0 25.916 21.084 47 47 47h80c26.022 0 48-21.056 48-47-.001-24.596-19.657-44.506-43.38-46.779zm-4.621 63.779h-80c-9.374 0-17-7.626-17-17 0-11.057 10.473-19.251 21.273-16.465 9.612 2.478 19.026-4.963 18.739-14.984-.309-9.77 7.569-17.551 16.987-17.551 9.413 0 17.299 7.768 16.986 17.58-.285 9.982 9.09 17.444 18.74 14.955 10.911-2.815 22.273 5.842 22.273 16.465.002 9.056-8.409 17-17.998 17z"/></g></svg>