<svg id="Capa_1" enable-background="new 0 0 512.008 512.008" height="512" viewBox="0 0 512.008 512.008" width="512" xmlns="http://www.w3.org/2000/svg"><g><path d="m398.887 423.964c45.715-76.691 42.765-181.555-9.528-254.119 15.207-7.792 25.646-23.618 25.646-41.848 0-32.991-33.292-55.764-64-43.805v-44.195c0-11.645-12.733-18.853-22.717-12.862l-28.871 17.322-31.792-38.946c-5.991-7.338-17.233-7.358-23.24 0l-31.792 38.946-28.871-17.322c-9.985-5.991-22.717 1.218-22.717 12.862v44.195c-30.737-11.97-64 10.85-64 43.805 0 18.229 10.439 34.056 25.646 41.848-52.207 72.446-55.323 177.294-9.528 254.119-14.375 8.048-24.119 23.42-24.119 41.033 0 25.916 21.084 47 47 47 17.08 0 32.068-9.176 40.299-22.852 49.829 30.426 109.381 30.544 159.403 0 8.23 13.677 23.219 22.852 40.299 22.852 25.916 0 47-21.084 47-47 0-17.613-9.744-32.985-24.118-41.033zm-30.882-312.967c9.374 0 17 7.626 17 17 0 9.324-7.546 16.911-16.851 16.992-5.44-5.388-11.118-10.346-17.002-14.868-1.289-10.366 6.828-19.124 16.853-19.124zm-159.717-34.138c6.39 3.834 14.625 2.396 19.337-3.376l28.38-34.766 28.38 34.766c4.712 5.772 12.948 7.21 19.337 3.376l17.283-10.37v45.162c-41.445-19.548-88.545-19.553-130 0v-45.161zm-64.283 34.138c10.003 0 18.145 8.736 16.853 19.124-5.883 4.522-11.561 9.48-17.002 14.868-9.305-.081-16.851-7.669-16.851-16.992 0-9.374 7.626-17 17-17zm-8 371c-9.374 0-17-7.626-17-17 0-7.478 4.86-13.83 11.582-16.099 6.578 8.041 13.693 15.458 21.282 22.159-2.449 6.385-8.631 10.94-15.864 10.94zm14.109-56.539c-1.858-3.172-39.109-46.527-39.109-121.461 0-97.598 65.047-177 145-177s145 79.402 145 177c0 45.553-14.018 87.158-37.029 118.674-.8.84-1.491 1.781-2.08 2.787-7.746 10.17-16.448 19.226-25.931 26.951-.935.595-1.807 1.28-2.586 2.061-58.413 45.424-135.338 33.913-183.265-29.012zm225.891 56.539c-7.233 0-13.415-4.555-15.864-10.94 7.589-6.701 14.704-14.118 21.282-22.159 6.722 2.269 11.582 8.621 11.582 16.099 0 9.374-7.626 17-17 17z"/><path d="m341.46 409.275c44.746-58.514 44.764-152.018 0-210.557-46.581-60.913-124.158-61.135-170.909 0-44.746 58.514-44.764 152.018 0 210.557 46.581 60.913 124.158 61.135 170.909 0zm-147.078-18.223c-36.542-47.784-36.532-126.337 0-174.109 34.601-45.248 88.607-45.299 123.247 0 36.542 47.784 36.532 126.337 0 174.109-34.601 45.248-88.608 45.298-123.247 0z"/></g></svg>