<svg id="Capa_1" enable-background="new 0 0 511.998 511.998" height="512" viewBox="0 0 511.998 511.998" width="512" xmlns="http://www.w3.org/2000/svg"><g><path d="m503.018 447.722-21.9-26.541c-1.367-1.656-2.119-3.752-2.119-5.903v-45.28c0-45.586-29.226-85.548-71.922-99.663-4.512-9.205-9.904-18.041-16.145-26.428-.482-16.426-3.86-32.302-10.085-47.347 20.123-33.533 9.416-76.878-24.025-97.245l10.003-65.035c1.787-11.614-9.921-20.702-20.734-16.067l-46.541 19.946-32.814-33.635c-5.892-6.039-15.595-6.025-21.474 0l-32.813 33.634-46.541-19.946c-10.801-4.629-22.523 4.44-20.734 16.067l10.003 65.035c-33.424 20.357-44.157 63.698-24.025 97.245-6.225 15.046-9.604 30.921-10.085 47.347-6.242 8.388-11.634 17.223-16.145 26.428-42.695 14.116-71.922 54.077-71.922 99.663v45.28c0 2.15-.752 4.247-2.119 5.903l-21.9 26.54c-12.555 15.215-12.149 38.101 2.523 52.775 7.418 7.417 17.283 11.502 27.776 11.502h433.44c10.493 0 20.357-4.085 27.777-11.504 14.679-14.679 15.071-37.565 2.521-52.771zm-139.281-17.47c-35.264-23.537-82.781-14.938-107.738 19.515-24.986-34.492-72.52-43.021-107.738-19.515-32.737-40.761-38.132-94.561-20.024-138.626 18.18 53.095 68.584 91.373 127.763 91.373s109.583-38.277 127.763-91.373c18.089 44.023 12.739 97.83-20.026 138.626zm-184.804-373.82 31.157 13.353c5.7 2.444 12.315 1.125 16.646-3.312l29.263-29.995 29.263 29.995c4.331 4.438 10.945 5.755 16.646 3.312l31.157-13.353-5.08 33.027c-23.983-2.699-46.657 6.795-61.551 23.943-6.964-.538-13.905-.538-20.869 0-14.901-17.157-37.58-26.64-61.551-23.943zm-18.925 129.192c-5.894-7.344-9.009-16.206-9.009-25.626 0-22.607 18.393-41 41-41 13.825 0 26.632 6.911 34.26 18.488 3.197 4.851 8.907 7.417 14.658 6.594 9.996-1.437 20.168-1.437 30.164 0 5.753.823 11.461-1.744 14.658-6.594 7.628-11.577 20.435-18.488 34.26-18.488 22.607 0 41 18.393 41 41 0 9.42-3.115 18.282-9.009 25.626-3.648 4.545-4.333 10.793-1.755 16.021 7.143 14.49 10.765 30.085 10.765 46.354 0 57.897-47.103 105-105 105s-105-47.103-105-105c0-16.268 3.622-31.864 10.765-46.354 2.576-5.228 1.891-11.475-1.757-16.021zm-127.89 281.191 21.9-26.54c5.791-7.018 8.98-15.896 8.98-24.998v-45.28c0-23.39 10.769-44.706 28.129-58.599-9.491 48.668 2.455 100.154 35.697 140.017-6.194 9.027-10.55 19.401-12.559 30.583h-74.986c-7.827 0-12.141-9.148-7.161-15.183zm112.918 15.183c6.039-20.218 24.807-35 46.963-35s40.924 14.782 46.963 35zm128 0c6.039-20.218 24.807-35 46.963-35s40.924 14.782 46.963 35zm199.683 0h-74.988c-2.009-11.182-6.364-21.555-12.559-30.583 33.202-39.814 45.194-91.318 35.697-140.017 17.36 13.894 28.129 35.209 28.129 58.599v45.28c0 9.102 3.189 17.98 8.98 24.997l21.9 26.541c5.008 6.065.638 15.183-7.159 15.183z"/><path d="m199.999 198.998c8.284 0 15-6.716 15-15v-16c0-8.284-6.716-15-15-15s-15 6.716-15 15v16c0 8.285 6.716 15 15 15z"/><path d="m311.999 198.998c8.284 0 15-6.716 15-15v-16c0-8.284-6.716-15-15-15s-15 6.716-15 15v16c0 8.285 6.716 15 15 15z"/><path d="m223.678 260.479c19.634 13.089 45.006 13.09 64.642 0 6.893-4.595 8.755-13.908 4.16-20.801s-13.909-8.756-20.801-4.16c-9.524 6.35-21.834 6.35-31.358 0-6.893-4.596-16.207-2.733-20.801 4.16-4.597 6.893-2.735 16.206 4.158 20.801z"/></g></svg>