<svg id="Capa_1" enable-background="new 0 0 512.055 512.055" height="512" viewBox="0 0 512.055 512.055" width="512" xmlns="http://www.w3.org/2000/svg"><g><path d="m497.038 193.028h-49.759c-24.319 0-47.196 10.715-62.765 29.397-7.088 8.506-16.575 14.383-27.068 17.021-7.331-37.836-39.254-67.004-78.408-70.137v-17.282c0-25.916-21.084-47-47-47s-47 21.084-47 47v17.282c-32.903 2.632-60.702 23.648-73.091 52.746-11.955-13.404-28.891-21.028-46.99-21.028h-1.897c-43.095 0-73.599 42.533-59.638 83.398l26.854 78.596c6.061 17.74 4.729 37.53-3.655 54.298-5.024 10.048 2.387 21.711 13.405 21.711 5.502 0 10.8-3.039 13.428-8.295 11.953-23.905 13.852-52.122 5.21-77.413l-26.854-78.596c-7.328-21.449 8.712-43.699 31.249-43.699h1.897c10.086 0 19.485 4.517 25.786 12.394l14.294 17.868v33.321c0 57.84 32.315 107.27 77.659 133.045-19.22 18.393-29.659 43.132-29.659 69.372 0 8.284 6.716 15 15 15h176c8.284 0 15-6.716 15-15 0-26.64-10.843-51.389-29.403-69.198 19.588-10.937 36.784-26.232 50.025-45.077 25.539-36.348 24.441-33.899 129.113-165.383 7.805-9.801.816-24.341-11.733-24.341zm-265-58c9.374 0 17 7.626 17 17v17h-34v-17c0-9.374 7.626-17 17-17zm-40 64h80c26.239 0 48.38 17.826 54.983 42h-189.966c6.603-24.174 28.744-42 54.983-42zm135.296 283h-142.595c4.02-17.395 14.893-31.973 29.395-41.024 26.505 7.797 55.58 8.25 83.859.044 14.98 9.344 25.433 24.073 29.341 40.98zm27.779-116.523c-30.895 43.97-87.283 62.362-137.495 45.115-52.395-18.998-82.58-66.42-82.58-116.01v-23.583h209.759c24.319 0 47.196-10.715 62.765-29.397 9.852-11.822 24.328-18.603 39.718-18.603h18.645c-81.68 102.601-84.797 105.455-110.812 142.478z"/><path d="m368.038 127.028h56c9.374 0 17 7.626 17 17 0 8.284 6.716 15 15 15s15-6.716 15-15c0-25.916-21.084-47-47-47h-56c-9.374 0-17-7.626-17-17s7.626-17 17-17h87c26.467 0 48-21.533 48-48 0-8.284-6.716-15-15-15s-15 6.716-15 15c0 9.925-8.075 18-18 18h-87c-25.916 0-47 21.084-47 47s21.084 47 47 47z"/></g></svg>