<svg id="Capa_1" enable-background="new 0 0 512.036 512.036" height="512" viewBox="0 0 512.036 512.036" width="512" xmlns="http://www.w3.org/2000/svg"><path d="m468.033 220.566c-24.398-84.88-122.176-124.725-194.626-82.838v-24.448c0-33 12.691-64.184 35.736-87.805 5.785-5.93 5.668-15.427-.262-21.212s-15.428-5.668-21.211.262c-8.181 8.386-15.304 17.544-21.31 27.302-10.105-18.919-30.047-31.827-52.953-31.827h-51c-8.284 0-15 6.716-15 15v20c0 33.084 26.916 60 60 60h37.065c-1.302 11.167-1.065 15.686-1.065 42.729-51.666-29.871-117.579-18.463-159.656 23.615-25.086 25.086-39.3 58.148-40.284 93.471-.102 1.3-.046 1.326-.033 1.719-.299 19.243 1.925 41.641 6.904 63.334l22.7 98.842c12.472 54.269 60.863 93.29 117.15 93.29 24.3 0 48.259-7.501 68.217-21.239 69.698 48.089 166.387 10.641 185.371-72.048l3.65-15.87c2.013-8.749-4.071-17.307-13.001-18.275-37.066-4.019-65.018-35.216-65.018-72.567 0-43.912 38.67-77.99 82.306-72.412 10.675 1.366 19.299-8.66 16.32-19.023zm-224.626-155.566h-36c-16.542 0-30-13.458-30-30v-5h36c16.542 0 30 13.458 30 30zm171.302 346.247c-15.355 67.123-92.964 91.205-143.613 51.628l-3.46-2.7c-5.423-4.233-13.033-4.234-18.457 0l-3.468 2.706c-32.821 25.65-79.075 25.462-111.719-.524-15.898-12.662-27.162-30.549-31.716-50.364l-22.699-98.838c-3.178-13.849-5.125-27.98-5.843-42.155h8.673c18.196 0 33 14.804 33 33 0 25.916 21.084 47 47 47s47-21.084 47-47v-36c0-11.58 9.421-21 21-21s21 9.42 21 21v88c0 32.533 26.468 59 59 59 24.189 0 45.015-14.638 54.111-35.516 12.999 15.013 30.303 26.262 50.191 31.763zm-75.302-99.247v44c0 15.991-13.01 29-29 29s-29-13.009-29-29v-88c0-28.122-22.879-51-51-51s-51 22.878-51 51v36c0 9.374-7.626 17-17 17s-17-7.626-17-17c0-34.738-28.262-63-63-63h-7.547c3.63-22.035 14.001-42.341 30.104-58.443 39.13-39.13 103.27-43.522 142.887-3.904 5.778 5.728 15.267 5.85 21.163-.045 47.97-47.968 130.797-30.77 162.535 30.961-51.709 5.442-92.142 49.304-92.142 102.431z"/></svg>