<svg id="Capa_1" enable-background="new 0 0 512 512" height="512" viewBox="0 0 512 512" width="512" xmlns="http://www.w3.org/2000/svg"><path d="m497 209h-41c-3.978 0-7.793 1.58-10.606 4.393l-27.607 27.607h-15.539l-11.518-59.835c-.806-4.187-3.356-7.833-7.012-10.027l-120-72c-4.62-2.772-10.374-2.854-15.071-.211l-20.052 11.28c-16.09-49.871-51.706-110.207-100.595-110.207-64.711 0-111 109.676-111 168 0 44.089 25.585 82.187 63.386 100.25l-12.344 32.918-59.667 29.374c-5.127 2.525-8.375 7.743-8.375 13.458v153c0 8.284 6.716 15 15 15h482c8.284 0 15-6.716 15-15 0-10.197 0-264.958 0-273 0-8.284-6.716-15-15-15zm-450-41c0-49.466 40.827-138 81-138 14.127 0 29.994 11.566 44.676 32.568 11.977 17.132 22.528 39.938 29.172 62.682l-58.848 33.102v-46.352c0-8.284-6.716-15-15-15s-15 6.716-15 15v69.28l-22.048 58.795c-26.758-13.662-43.952-41.124-43.952-72.075zm-17 314v-51h38.8l15.111 51zm147.687 0 20.049-121.129 58.264-38.843 58.264 38.843 20.049 121.129zm304.313 0h-117.279l-21.923-132.449c-.678-4.096-3.024-7.728-6.479-10.031l-72-48c-5.038-3.359-11.603-3.359-16.641 0l-72 48c-3.455 2.303-5.8 5.935-6.479 10.031l-21.92 132.449h-32.079l-20.818-70.261c-1.887-6.37-7.739-10.739-14.382-10.739h-50v-47.665l53.492-26.335h36.508c8.284 0 15-6.716 15-15s-6.716-15-15-15h-18.355l38.479-102.609 115.633-65.044 106.78 64.068c29.469 153.088 23.085 119.373 30.705 161.269 1.482 8.151 9.291 13.555 17.442 12.074 8.15-1.482 13.556-9.291 12.074-17.442l-1.646-9.051 60.888 15.411zm0-157.27-66.893-16.931-7.084-36.799h15.977c3.978 0 7.793-1.58 10.606-4.393l27.607-27.607h19.787z"/></svg>