<svg id="Capa_1" enable-background="new 0 0 512 512" height="512" viewBox="0 0 512 512" width="512" xmlns="http://www.w3.org/2000/svg"><g><path d="m497 401h-6.188l-13.743-41.231c-3.867-11.6-12.116-20.797-22.542-26.015-4.004-44.71-34.51-83.714-78.774-97.547l-31.22-9.756c-15.296-4.78-28.416-14.119-37.942-27.006l-118.529-160.361c-3.61-4.884-9.808-7.108-15.7-5.636l-10.275 2.569c-57.457 14.364-99.663 63.643-105.025 122.625-.252 2.778.274 5.572 1.522 8.066 19.898 39.798 30.416 84.352 30.416 128.846v33.446h-11.377c-19.399 0-36.556 12.365-42.691 30.77l-13.744 41.23h-6.188c-8.284 0-15 6.716-15 15s6.716 15 15 15h6.188l13.743 41.231c6.136 18.404 23.293 30.769 42.692 30.769h356.754c19.399 0 36.556-12.365 42.691-30.77l13.744-41.23h6.188c8.284 0 15-6.716 15-15s-6.716-15-15-15zm-408.372-251.269c8.027-39.989 38.282-74.017 81.274-84.745l112.562 152.29c13.336 18.042 31.704 31.117 53.119 37.809l31.22 9.757c29.935 9.354 51.423 34.191 56.854 64.158h-128.388l-115.496-146.294c-1.812-2.295-4.256-4.011-7.03-4.936zm168.419 179.269h-74.047v-93.792zm-157.959-144.159 53.912 17.971v126.188h-34v-33.446c0-37.664-6.826-75.368-19.912-110.713zm-21.465 174.159h356.754c6.467 0 12.186 4.122 14.23 10.256l10.581 31.744h-406.376l10.581-31.743c2.045-6.135 7.763-10.257 14.23-10.257zm356.754 114h-356.754c-6.467 0-12.186-4.122-14.23-10.256l-10.581-31.744h406.377l-10.581 31.743c-2.046 6.135-7.764 10.257-14.231 10.257z"/><path d="m370.429 109.927c19.707 7.882 33.813 25.832 36.814 46.842l1.907 13.352c1.056 7.39 7.385 12.879 14.85 12.879s13.794-5.489 14.85-12.879l1.848-12.935c2.934-20.536 16.532-38.937 37.752-47.211 11.652-4.543 12.943-20.589 2.128-26.92l-10.879-6.369c-15.289-8.95-25.728-24.104-28.64-41.579l-2.263-13.573c-1.206-7.233-7.464-12.534-14.796-12.534-7.333 0-13.591 5.301-14.796 12.534l-2.343 14.057c-2.872 17.229-13.108 32.264-28.086 41.25l-10.493 6.296c-10.612 6.368-9.358 22.188 2.147 26.79zm53.675-36.717c5.328 8.422 12.062 15.936 19.969 22.206-7.863 6.232-14.615 13.736-19.979 22.163-5.282-8.393-11.935-15.886-19.685-22.134 7.805-6.298 14.446-13.822 19.695-22.235z"/></g></svg>