<svg id="Capa_1" enable-background="new 0 0 512 512" height="512" viewBox="0 0 512 512" width="512" xmlns="http://www.w3.org/2000/svg"><g><path d="m507.607 4.394c-5.857-5.858-15.355-5.858-21.213 0-29 29-39.076 38.082-52.867 56.887l-47.921 65.347c-18.16 24.764-41.949 45.737-68.795 60.652-19.86 11.033-38.077 24.773-54.142 40.839l-22.669 22.668-21.394-21.394c-6.54-6.541-17.42-5.661-22.812 1.888l-29.708 41.592-3.479-3.479c-5.857-5.858-15.355-5.858-21.213 0-5.2 5.2-5.773 13.262-1.741 19.106l-69.249 19.785c-14.5 4.143-27.871 11.899-38.667 22.431l-4.199 4.097c-17.501 17.073-27.538 40.887-27.538 65.337v96.85c0 8.284 6.716 15 15 15h101.596c40.734 0 77.385-27.214 88.198-67.761l19.1-71.624c5.863 3.776 13.665 3.04 18.713-2.009 5.858-5.858 5.858-15.355 0-21.213l-3.479-3.479 41.592-29.708c7.526-5.376 8.449-16.252 1.888-22.812l-21.395-21.394 22.668-22.668c14.094-14.094 30.075-26.148 47.499-35.828 30.601-17 57.718-40.907 78.418-69.136l47.921-65.347c12.226-16.671 20.561-24.089 49.888-53.415 5.858-5.857 5.858-15.354 0-21.212zm-331.8 432.116c-7.248 27.179-31.823 45.49-59.211 45.49h-86.596v-81.85c0-16.414 6.738-32.401 18.486-43.863l4.199-4.097c7.248-7.07 16.224-12.278 25.958-15.059l84.99-24.283 35.644 35.644zm41.815-112.102-30.03-30.03 22.322-31.251 38.958 38.958z"/><path d="m90.429 117.927c19.706 7.882 33.812 25.832 36.814 46.842l1.907 13.352c1.057 7.39 7.385 12.879 14.85 12.879 7.464 0 13.793-5.489 14.849-12.878l1.848-12.936c2.934-20.535 16.533-38.937 37.752-47.21 11.652-4.543 12.942-20.59 2.129-26.92l-10.88-6.369c-15.289-8.949-25.728-24.104-28.64-41.579l-2.262-13.573c-1.205-7.233-7.463-12.535-14.796-12.535s-13.59 5.301-14.796 12.534l-2.343 14.058c-2.872 17.228-13.108 32.263-28.085 41.25l-10.493 6.296c-10.614 6.368-9.358 22.187 2.146 26.789zm53.676-36.716c5.329 8.422 12.062 15.936 19.968 22.206-7.865 6.233-14.615 13.734-19.98 22.163-5.282-8.393-11.934-15.886-19.685-22.134 7.806-6.299 14.448-13.823 19.697-22.235z"/><path d="m488.578 307.055-10.88-6.369c-15.289-8.949-25.728-24.104-28.64-41.579l-2.262-13.573c-1.205-7.232-7.463-12.534-14.796-12.534s-13.59 5.301-14.796 12.534l-2.343 14.058c-2.872 17.228-13.108 32.263-28.085 41.25l-10.493 6.296c-10.614 6.369-9.358 22.187 2.146 26.79 19.706 7.882 33.812 25.832 36.814 46.842l1.907 13.352c1.057 7.389 7.385 12.878 14.85 12.878 7.464 0 13.793-5.489 14.849-12.878l1.848-12.936c2.934-20.535 16.533-38.937 37.752-47.21 11.652-4.543 12.943-20.591 2.129-26.921zm-56.485 34.524c-5.282-8.393-11.934-15.886-19.685-22.134 7.805-6.298 14.447-13.822 19.696-22.234 5.329 8.422 12.062 15.936 19.968 22.206-7.864 6.232-14.613 13.733-19.979 22.162z"/><path d="m56.02 239c8.284 0 15-6.716 15-15s-6.716-15-15-15c-8.379 0-15.005 6.797-15.005 15 0 8.284 6.721 15 15.005 15z"/><path d="m312.02 87c8.284 0 15-6.716 15-15s-6.716-15-15-15c-8.379 0-15.005 6.797-15.005 15 0 8.284 6.721 15 15.005 15z"/><path d="m296.02 409c-8.379 0-15.005 6.797-15.005 15 0 8.284 6.721 15 15.005 15s15-6.716 15-15-6.716-15-15-15z"/><path d="m495.02 176c0-8.215-6.644-15-15.01-15-8.284 0-14.995 6.716-14.995 15s6.721 15 15.005 15 15-6.716 15-15z"/></g></svg>