<svg id="Capa_1" enable-background="new 0 0 512.03 512.03" height="512" viewBox="0 0 512.03 512.03" width="512" xmlns="http://www.w3.org/2000/svg"><g><path d="m8.481 85.516c17.018 8.232 28.487 23.736 31.953 41.067l.875 4.374c1.402 7.011 7.559 12.058 14.709 12.058s13.306-5.047 14.708-12.059l.983-4.917c3.545-17.724 14.85-32.525 31.016-40.608 9.954-4.978 11.211-18.728 2.292-25.417l-10.987-8.24c-10.772-8.079-18.452-19.735-21.624-32.82l-1.812-7.473c-1.629-6.728-7.653-11.466-14.576-11.466-6.911 0-12.944 4.727-14.578 11.465l-1.668 6.882c-3.246 13.389-11.17 25.226-22.312 33.329l-11.265 8.193c-9.128 6.638-7.933 20.683 2.286 25.632zm47.411-30.916c4.129 6.112 9.023 11.71 14.577 16.634-5.587 4.895-10.504 10.457-14.654 16.562-4.229-6.091-9.211-11.647-14.83-16.517 5.677-4.92 10.683-10.535 14.907-16.679z"/><path d="m409.31 93.431c16.166 8.083 27.471 22.884 31.016 40.607l.983 4.917c1.402 7.011 7.559 12.059 14.708 12.059 7.14 0 13.305-5.037 14.709-12.058l.875-4.375c3.429-17.148 14.76-32.742 31.953-41.066 10.158-4.919 11.47-18.954 2.286-25.632l-11.505-8.367c-11.019-8.014-18.907-19.707-22.212-32.925l-1.554-6.215c-1.669-6.677-7.669-11.362-14.552-11.362-6.89 0-12.885 4.691-14.552 11.361l-1.702 6.805c-3.229 12.916-10.873 24.429-21.524 32.417l-11.223 8.417c-8.901 6.677-7.678 20.431 2.294 25.417zm46.833-30.666c4.231 6.093 9.229 11.655 14.889 16.531-5.612 4.865-10.587 10.416-14.811 16.5-4.146-6.099-9.056-11.656-14.636-16.546 5.534-4.877 10.423-10.426 14.558-16.485z"/><path d="m511.082 491.8-33-89c-2.181-5.882-7.792-9.785-14.064-9.785h-25.607l63.307-133.378c2.554-5.38 1.683-11.76-2.218-16.259l-75.59-87.17c-3.967-4.575-10.296-6.315-16.044-4.414l-54.949 18.182 13.825-71.098c1.044-5.371-.918-10.884-5.122-14.387l-96-80c-5.562-4.636-13.643-4.636-19.205 0l-96 80c-4.203 3.503-6.166 9.016-5.122 14.387l13.825 71.098-54.949-18.182c-5.748-1.902-12.077-.162-16.044 4.414l-75.59 87.17c-3.901 4.499-4.772 10.879-2.219 16.259l74.698 157.378h-28.996c-5.15 0-9.939 2.642-12.687 6.998l-41 65c-6.29 9.973.892 23.002 12.687 23.002h482c10.436 0 17.695-10.423 14.064-20.215zm-105.878-98.785h-39.508l25.266-91.851 68.613-22.7zm-58.854-189.266 61.447-20.333 54.297 62.615-78.684 26.032-41.123-47.417zm15.686 89.458-22.352 81.26-17.059-17.059c-1.563-1.563-3.441-2.729-5.478-3.471l17.868-91.888zm-75.272 59.808h-15.746v-169.975l58.233-48.528zm-30.746-317.475 72.569 60.474-72.569 60.475-72.569-60.474zm-15 147.501v169.974h-15.746l-42.487-218.502zm-46.308 169.974h-28.256l-16.454-59.808 27.022-31.158zm-90.471-169.598 61.447 20.333 4.063 20.897-41.123 47.417-78.685-26.032zm-51.778 95.047 68.614 22.7 19.733 71.73-22.06 44.121h-.525zm-10.247 203.551 22.077-35h151.727c8.284 0 15-6.716 15-15s-6.716-15-15-15h-63.729l17-34h136.516l35.607 35.606c2.813 2.813 6.628 4.394 10.606 4.394h101.564l21.876 59z"/></g></svg>