<svg id="Capa_1" enable-background="new 0 0 512 512" height="512" viewBox="0 0 512 512" width="512" xmlns="http://www.w3.org/2000/svg"><path d="m487.884 387.363c-21.839-19.661-53.835-24.289-80.884-10.107v-58.256h9c8.284 0 15-6.716 15-15s-6.716-15-15-15h-9v-34h60.227c24.688 0 44.773-20.085 44.773-44.773 0-9.918-3.356-19.689-9.45-27.512l-60.024-77.069c-26.027-33.417-75.983-32.354-101.104.304l-59.138 76.879c-5.987 7.784-9.284 17.479-9.284 27.298 0 24.993 20.25 44.873 44.773 44.873h59.227v34h-9c-8.284 0-15 6.716-15 15s6.716 15 15 15h9v82.024c-14.813-.314-28.533 6.319-37.519 17.388-9.34-2.343-19.474-1.82-28.896 1.936-10.483-8.951-24.876-13.339-39.585-10.463v-34.885h8.438c21.814 0 39.562-17.748 39.562-39.563 0-7.836-2.298-15.424-6.645-21.946l-19-28.499c-17.736-26.605-56.925-26.682-74.711 0l-19 28.499c-4.346 6.521-6.644 14.109-6.644 21.946 0 21.815 17.748 39.563 39.563 39.563h8.437v34.885c-14.684-2.871-29.081 1.495-39.585 10.462-9.443-3.764-19.581-4.273-28.896-1.936-7.322-9.019-17.838-15.108-29.519-16.87v-146.541h9c8.284 0 15-6.716 15-15s-6.716-15-15-15h-9v-34h66.883c24.878 0 45.117-20.239 45.117-45.117 0-9.804-3.035-18.935-8.629-26.626l-68.076-93.604c-11.682-16.063-30.514-25.653-50.375-25.653-19.729 0-38.486 9.488-50.176 25.381l-68.971 93.77c-5.739 7.802-8.773 17.046-8.773 26.732 0 24.878 20.239 45.117 45.117 45.117h67.883v34h-9c-8.284 0-15 6.716-15 15s6.716 15 15 15h9v127.146c-9.842-6.938-21.472-11.433-33.954-12.746-42.282-4.461-79.046 29.455-79.046 72.114v55.486c0 8.284 6.716 15 15 15h482c8.284 0 15-6.716 15-15v-55.486c0-20.616-8.79-40.352-24.116-54.151zm-184.884-177.136c0-3.478 1.152-6.623 3.063-9.107l59.138-76.878c13.329-17.328 39.839-17.899 53.656-.162l60.025 77.07c7.5 9.633.654 23.851-11.656 23.851h-149.453c-8.146-.001-14.773-6.628-14.773-14.774zm-78.394 119.905 19-28.5c5.874-8.812 18.874-8.87 24.789.001l18.999 28.498c4.185 6.278-.277 14.868-7.956 14.868h-46.875c-7.663.001-12.152-8.572-7.957-14.867zm-191.667-193.206 68.971-93.77c12.885-17.518 39.242-17.569 52.122.141l68.077 93.605c7.133 9.808.317 24.098-12.226 24.098h-164.766c-12.41 0-19.466-14.167-12.178-24.074zm449.061 345.074h-452v-40.486c0-24.479 20.92-44.913 45.907-42.279 15.176 1.597 28.185 11.172 33.95 24.99 3.189 7.644 11.97 11.255 19.615 8.07 8.865-3.696 19.309.76 22.573 10.069 3.245 9.251 14.368 12.957 22.514 7.49 5.338-3.582 12.365-3.812 17.912-.604 2.687 3.439 7.005 5.75 11.809 5.75h.89c6.606 0 12.382-4.316 14.315-10.521 6.796-7.419 18.587-7.282 25.276.286 5.967 6.749 16.508 6.75 22.477 0 6.691-7.569 18.482-7.702 25.276-.286 1.959 6.259 7.754 10.521 14.315 10.521 1.37 0 2.6.018 4.44-.434 3.402-.83 6.291-2.8 8.258-5.316 5.542-3.205 12.57-2.981 17.912.604 8.137 5.463 19.268 1.767 22.514-7.49 3.267-9.311 13.712-13.763 22.573-10.069 7.646 3.187 16.428-.425 19.616-8.069 5.765-13.818 18.773-23.394 33.949-24.991 24.961-2.626 45.909 17.766 45.909 42.279z"/></svg>