<svg id="Capa_1" enable-background="new 0 0 512 512" height="512" viewBox="0 0 512 512" width="512" xmlns="http://www.w3.org/2000/svg"><path d="m497 271c8.284 0 15-6.716 15-15v-56c0-7.717-5.829-14.066-13.323-14.901l-51.677-147.649v-22.45c0-8.284-6.716-15-15-15s-15 6.716-15 15v22.45l-51.734 147.811c-6.977 1.286-12.266 7.39-12.266 14.739v41h-26v-90h1c8.284 0 15-6.716 15-15s-6.716-15-15-15h-7.041l-49.959-92.781v-13.219c0-8.284-6.716-15-15-15s-15 6.716-15 15v13.219l-49.959 92.781h-7.041c-8.284 0-15 6.716-15 15s6.716 15 15 15h1v90h-26v-41c0-7.349-5.289-13.453-12.266-14.739l-51.734-147.811v-22.45c0-8.284-6.716-15-15-15s-15 6.716-15 15v22.45l-51.677 147.649c-7.494.835-13.323 7.184-13.323 14.901v56c0 8.284 6.716 15 15 15h2v211h-2c-8.284 0-15 6.716-15 15s6.716 15 15 15h482c8.284 0 15-6.716 15-15s-6.716-15-15-15h-2v-211zm-65-185.594 34.857 99.594h-69.715zm-49 129.594h99v26c-15.241 0-90.383 0-99 0zm-14 90h-226v-34h226zm-113-241.361 30.887 57.361h-61.773zm-41 87.361h82v90h-82zm-185 90v-26h99v26c-8.617 0-83.758 0-99 0zm50-155.594 34.857 99.594h-69.714zm-33 185.594h66v211h-66zm96 64h226v147h-42v-42c0-39.149-31.851-71-71-71s-71 31.851-71 71v42h-42zm72 147v-42c0-22.607 18.393-41 41-41s41 18.393 41 41v42zm250 0h-66c0-10.126 0-200.958 0-211h66z"/></svg>