<svg id="Capa_1" enable-background="new 0 0 512 512" height="512" viewBox="0 0 512 512" width="512" xmlns="http://www.w3.org/2000/svg"><g><path d="m443 319c33.084 0 60-26.916 60-60v-99c0-8.284-6.716-15-15-15h-43c-10.427 0-20.396 2.64-29.168 7.524-20.141-44.993-59.375-80.844-108.648-95.893l-1.112-11.262c-2.554-25.864-24.08-45.369-50.072-45.369s-47.518 19.505-50.072 45.37l-1.111 11.25c-46.991 14.395-87.457 48.667-108.557 95.954-8.794-4.918-18.796-7.574-29.26-7.574h-43c-8.284 0-15 6.716-15 15v99c0 33.084 26.916 60 60 60h18.419c6.889 24.68 19.067 47.172 35.226 66.183-58.792 3.267-105.645 51.911-105.645 111.817 0 8.284 6.716 15 15 15h448c8.284 0 15-6.716 15-15 0-59.624-46.834-108.51-105.646-111.816 16.16-19.011 28.338-41.504 35.227-66.184zm2-144h28v84c0 16.542-13.458 30-30 30h-12.828c1.097-11.329.828-13.855.828-65 0-14.397-1.733-28.528-5.09-42.159 5.313-4.403 11.992-6.841 19.09-6.841zm-363.172 114h-12.828c-16.542 0-30-13.458-30-30v-84h28c7.134 0 13.844 2.465 19.171 6.911-3.402 13.706-5.171 27.845-5.171 42.089 0 49.633-.278 53.584.828 65zm153.954-240.681c1.031-10.444 9.723-18.319 20.218-18.319s19.187 7.875 20.218 18.319l3.227 32.681h-46.891zm227.843 433.681h-415.265c6.899-37.533 39.883-67 80.64-67h26.237c60.161 42.517 140.895 42.848 201.526 0h26.237c40.093 0 73.558 28.923 80.625 67zm-62.625-210c0 79.953-65.047 145-145 145s-145-65.047-145-145v-48c0-14.226 2.582-29.982 6.43-42.984 12.699-41.306 43.348-75.108 84.137-91.492l-.494 5.001c-.872 8.825 6.068 16.475 14.927 16.475h80c8.867 0 15.798-7.659 14.927-16.475l-.488-4.938c53.608 21.729 90.561 73.985 90.561 134.413z"/><path d="m256 137c-43.165 0-80.088 23.353-101.303 64.069-2.263 4.343-2.263 9.519 0 13.862 21.216 40.716 58.139 64.069 101.303 64.069s80.087-23.353 101.303-64.068c2.263-4.344 2.263-9.52 0-13.862-21.215-40.717-58.138-64.07-101.303-64.07zm0 112c-29.581 0-54.45-14.487-70.77-41 16.319-26.513 41.188-41 70.77-41s54.45 14.487 70.77 41c-16.32 26.513-41.189 41-70.77 41z"/><path d="m256.02 193c-8.379 0-15.005 6.797-15.005 15 0 8.284 6.721 15 15.005 15s15-6.716 15-15-6.716-15-15-15z"/><path d="m319.442 346.977c-2.767-1.581-5.586-3.038-8.442-4.396v-14.581c0-8.284-6.716-15-15-15s-15 6.716-15 15v4.658c-16.491-3.261-33.509-3.261-50 0v-4.658c0-8.284-6.716-15-15-15s-15 6.716-15 15v14.581c-2.855 1.357-5.675 2.814-8.442 4.396-7.193 4.11-9.692 13.272-5.582 20.466 4.11 7.191 13.274 9.693 20.465 5.581 29.952-17.115 67.164-17.115 97.116 0 7.159 4.092 16.337 1.643 20.465-5.581 4.112-7.194 1.613-16.356-5.58-20.466z"/></g></svg>