<svg id="Capa_1" enable-background="new 0 0 512 512" height="512" viewBox="0 0 512 512" width="512" xmlns="http://www.w3.org/2000/svg"><g><path d="m485.351 211.27c-36.699-14.498-65.955-43.903-80.267-80.676l-26.795-68.848c-14.497-37.25-50.323-61.746-90.289-61.746-8.284 0-15 6.716-15 15v17c0 9.374-7.626 17-17 17s-17-7.626-17-17v-17c0-8.284-6.716-15-15-15-39.895 0-75.767 24.432-90.289 61.746l-26.794 68.848c-14.312 36.771-43.568 66.177-80.266 80.676-16.19 6.395-26.651 21.775-26.651 39.182 0 19.702 13.403 36.577 32.594 41.035 146.906 34.137 299.828 34.155 446.811 0 19.192-4.458 32.595-21.333 32.595-41.035 0-17.407-10.461-32.787-26.649-39.182zm-12.736 50.997c-141.71 32.928-291.52 32.928-433.232 0-5.525-1.285-9.383-6.143-9.383-11.815 0-5.012 3.011-9.439 7.673-11.28 44.441-17.559 79.87-53.168 97.201-97.697l26.794-68.848c8.215-21.107 25.991-36.127 47.332-40.959 0 26.83 21.534 47.332 47 47.332 25.417 0 47-20.458 47-47.332 21.341 4.832 39.117 19.852 47.332 40.959l26.795 68.848c17.331 44.53 52.759 80.14 97.201 97.697 4.66 1.841 7.672 6.269 7.672 11.28 0 5.672-3.858 10.53-9.385 11.815z"/><path d="m480 409h-41v-41c0-8.284-6.716-15-15-15h-128c-8.284 0-15 6.716-15 15v38.638c-84.641-7.09-166.077-29.951-242.292-68.055-7.41-3.702-16.42-.701-20.125 6.71-3.704 7.409-.7 16.419 6.709 20.124 80.427 40.208 166.418 64.167 255.802 71.32 1.959 41.832 36.599 75.263 78.906 75.263 41.54 0 75.67-32.234 78.749-73h41.251c8.284 0 15-6.716 15-15s-6.716-15-15-15zm-71 24c0 27.019-21.981 49-49 49s-49-21.981-49-49v-50h98z"/><path d="m314.606 117.394c-5.857-5.857-15.355-5.857-21.213 0l-10.599 10.599c-16.632-9.32-36.925-9.337-53.588 0l-10.6-10.599c-5.857-5.859-15.355-5.857-21.213 0-5.857 5.857-5.857 15.355 0 21.213l10.6 10.599c-9.32 16.632-9.338 36.925 0 53.589l-10.6 10.599c-5.858 5.857-5.858 15.355 0 21.213 5.857 5.857 15.354 5.86 21.213 0l10.6-10.599c16.632 9.319 36.925 9.337 53.588 0l10.599 10.6c5.858 5.859 15.355 5.858 21.213 0 5.858-5.857 5.858-15.355 0-21.213l-10.599-10.6c9.32-16.631 9.337-36.925 0-53.588l10.599-10.6c5.859-5.858 5.859-15.356 0-21.213zm-83.606 58.606c0-13.785 11.215-25 25-25s25 11.215 25 25-11.215 25-25 25-25-11.215-25-25z"/></g></svg>