<svg id="Capa_1" enable-background="new 0 0 512.016 512.016" height="512" viewBox="0 0 512.016 512.016" width="512" xmlns="http://www.w3.org/2000/svg"><g><path d="m465.271 356.534c-15.491-12.045-36.389-22.353-62.162-30.695l-84.391-199.87 48.119-24.612c10.048-5.139 11.023-19.151 1.788-25.632l-104-73c-7.822-5.487-18.73-2.359-22.443 6.457l-133.312 316.661c-25.762 8.347-46.65 18.657-62.135 30.7-24.57 19.109-29.728 38.531-29.728 51.459 0 30.121 26.653 57.345 75.05 76.656 91.388 36.467 236.46 36.488 327.9 0 48.396-19.312 75.05-46.535 75.05-76.656 0-12.932-5.159-32.359-29.736-51.468zm-72.625 21.648c-3.071 9.651-25.649 23.84-65.639 32.124v-41.47c20.947-3.876 39.592-9.481 54.702-16.555zm-130.031-340.216 68.404 48.015-24 12.276c-3.359-7.932-12.229-11.226-19.691-8.073-7.632 3.222-11.206 12.021-7.983 19.653 3.346 7.923 90.681 214.771 90.681 214.771-26.274 12.569-69.118 20.394-114.018 20.394-44.923 0-87.789-7.833-114.059-20.413zm34.392 335.066v41.889c-26.258 2.776-55.692 2.782-82 0v-41.889c26.779 2.627 55.21 2.628 82 0zm-166.714-20.757c15.113 7.077 33.762 12.684 54.715 16.561v41.47c-39.99-8.284-62.568-22.473-65.639-32.124 7.156-16.947 4.63-10.958 10.924-25.907zm278.546 104.52c-84.296 33.636-221.366 33.637-305.664 0-35.171-14.034-56.168-32.274-56.168-48.793 0-14.77 17.188-30.774 45.705-43.812l-2.524 5.978c-.78 1.847-1.182 3.831-1.182 5.835 0 35.363 48.359 57.93 107.937 66.765 41.409 5.289 75.118 6.162 118.126 0 59.578-8.835 107.937-31.402 107.937-66.765 0-2.004-.401-3.988-1.182-5.835l-2.522-5.974c28.517 13.033 45.704 29.036 45.704 43.809.001 16.517-20.996 34.758-56.167 48.792z"/><path d="m47.698 158.461 1.426 11.402c.926 7.407 7.158 13.006 14.622 13.137 7.723.085 13.919-5.444 15.071-12.618l2.347-14.604c3.281-20.411 17.201-37.966 36.315-45.809 11.776-4.82 12.707-20.394 2.391-26.742l-10.801-6.647c-14.326-8.814-24.32-23.354-27.421-39.887l-2.897-15.455c-1.351-7.209-7.713-12.348-15.047-12.233-7.332.148-13.481 5.576-14.539 12.833l-1.742 11.947c-2.671 18.315-13.42 34.086-29.489 43.27l-10.368 5.923c-10.965 6.265-9.733 22.532 2.102 27.041 20.709 7.89 35.281 26.451 38.03 48.442zm16.521-85.316c5.249 8.42 11.884 15.964 19.651 22.267-7.755 6.285-14.424 13.822-19.721 22.252-5.368-8.443-12.133-15.953-20.028-22.193 7.979-6.308 14.752-13.857 20.098-22.326z"/><path d="m504.724 203.139-11.512-6.907c-14.43-8.657-24.483-23.108-27.584-39.647l-2.878-15.348c-1.352-7.208-7.746-12.356-15.047-12.232-7.332.148-13.48 5.576-14.539 12.832l-1.873 12.843c-2.597 17.807-12.994 33.234-28.524 42.326l-10.337 6.051c-10.793 6.317-9.546 22.365 2.124 26.919 20.156 7.866 34.345 26.089 37.028 47.559l1.541 12.328c.936 7.493 7.303 13.14 14.888 13.14 7.349 0 13.636-5.337 14.806-12.619l2.357-14.667c3.266-20.32 17.165-37.691 36.276-45.335l1.13-.452c11.49-4.6 12.769-20.416 2.144-26.791zm-56.379 34.276c-5.255-8.336-11.875-15.762-19.608-21.955 7.826-6.271 14.464-13.757 19.7-22.141 5.297 8.355 11.977 15.814 19.797 22.026-7.817 6.205-14.542 13.68-19.889 22.07z"/></g></svg>