<svg id="Capa_1" enable-background="new 0 0 511 511" height="512" viewBox="0 0 511 511" width="512" xmlns="http://www.w3.org/2000/svg"><g><path d="m494.5 207v-48c0-8.28-6.72-15-15-15h-16c-18.633 0-36.642 5.465-51.927 15.451-15.166-44.389-48.789-80.066-91.444-98.291-3.133-8.935-7.317-17.757-12.329-25.736-29.642-47.192-74.908-47.272-104.601 0-5.013 7.981-9.198 16.807-12.331 25.744-43.106 18.386-76.352 54.493-91.408 98.332-15.298-10.002-33.306-15.5-51.96-15.5h-16c-8.28 0-15 6.72-15 15v48c0 47.571 34.791 86.446 79.542 93.744 2.845 30.564 14.282 59.311 32.894 83.256-63.238 0-112.436 50.818-112.436 112 0 8.284 6.716 15 15 15h448c8.284 0 15-6.716 15-15 0-61.044-49.356-112-112.436-112 18.615-23.95 30.053-52.703 32.895-83.276 44.674-7.28 79.541-46.06 79.541-93.724zm-30-33v33c0 29.55-20.159 54.816-47.438 62.551l2.996-45.91c.702-10.71.346-21.454-1.02-32.043 11.812-11.079 27.282-17.598 45.462-17.598zm-209-144c8.432 0 18.487 7.993 26.896 21.381 9.362 14.904 14.104 32.118 14.104 43.619 0 22.607-18.393 41-41 41s-41-18.393-41-41c0-5.412.991-11.581 2.766-17.926.131-.402.251-.808.348-1.22 2.461-8.35 6.26-16.941 10.991-24.473 8.408-13.388 18.463-21.381 26.895-21.381zm-209 177v-33c18.146 0 33.625 6.495 45.462 17.598-1.366 10.589-1.722 21.332-1.02 32.04l2.996 45.905c-27.273-7.735-47.438-32.99-47.438-62.543zm48.565 214.104c11.269 17.084 17.435 37.403 17.435 57.896v2h-64.64c5.051-27.476 23.61-49.353 47.205-59.896zm368.06 59.896h-64.625v-2c0-20.479 6.158-40.784 17.411-57.861 24.207 10.847 42.244 33.082 47.214 59.861zm-77.925-66.939c-11.533 21.09-16.7 43.095-16.7 66.939h-226c0-23.794-5.144-45.805-16.698-66.935 2.771-.089-1.929-.065 33.645-.065 56.782 42.644 135.228 42.715 192.105 0 34.373 0 31.024-.025 33.648.061zm4.922-192.378-4.74 72.631c-4.451 68.235-61.502 121.686-129.882 121.686s-125.431-53.451-129.882-121.683l-4.74-72.638c-3.309-50.549 21.832-97.606 63.701-123.561 1.64 37.708 32.818 67.882 70.921 67.882 38.093 0 69.265-30.158 70.92-67.85 42.811 26.547 66.957 73.816 63.702 123.533z"/><path d="m235.031 249.834 3.178-15.893c1.266-6.331-1.661-12.762-7.267-15.965l-56-32c-8.879-5.074-20.144.046-22.15 10.082l-6.677 33.386c-1.298 6.49-1.136 13.315.469 19.735l.686 2.742c5.015 20.065 22.963 34.079 43.645 34.079 21.371 0 39.924-15.21 44.116-36.166zm-58.657-5.188c-1.835-7.337-1.613-5.463 1.754-22.298l28.544 16.312-1.058 5.29c-1.396 6.982-7.578 12.05-14.699 12.05-6.891 0-12.871-4.669-14.541-11.354z"/><path d="m358.208 196.059c-2.004-10.026-13.264-15.161-22.15-10.082l-56 32c-5.606 3.203-8.533 9.634-7.267 15.965l3.179 15.894c4.191 20.954 22.744 36.164 44.115 36.164 20.682 0 38.63-14.014 43.646-34.078l.685-2.741c1.606-6.421 1.768-13.246.47-19.734zm-23.582 48.587c-1.671 6.685-7.651 11.354-14.542 11.354-7.12 0-13.302-5.067-14.698-12.049l-1.059-5.291 28.544-16.312c3.332 16.653 3.597 14.934 1.755 22.298z"/><path d="m304.058 329.977c-.516.294-1.038.572-1.558.856v-3.833c0-8.284-6.716-15-15-15s-15 6.716-15 15v14.326c-11.24 1.966-22.76 1.966-34 0v-14.326c0-8.284-6.716-15-15-15s-15 6.716-15 15v3.833c-.52-.284-1.043-.562-1.558-.856-7.191-4.11-16.354-1.61-20.465 5.581-4.11 7.193-1.611 16.355 5.582 20.466 39.133 22.362 87.751 22.362 126.884 0 7.193-4.11 9.692-13.272 5.582-20.466-4.111-7.192-13.275-9.692-20.467-5.581z"/></g></svg>