<svg id="Capa_1" enable-background="new 0 0 512 512" height="512" viewBox="0 0 512 512" width="512" xmlns="http://www.w3.org/2000/svg"><g><path d="m463 412.436v-145.513c14.749-13.705 24-33.25 24-54.923v-68c0-8.284-6.716-15-15-15-21.496 0-21.202-.041-24.15.12-31.509-77.728-107.091-129.12-191.85-129.12-84.76 0-160.341 51.392-191.851 129.12-2.92-.16-2.053-.12-24.149-.12-8.284 0-15 6.716-15 15v68c0 21.673 9.251 41.218 24 54.923v145.422c-20.688 23.389-32 53.147-32 84.655 0 8.284 6.716 15 15 15h448c8.284 0 15-6.716 15-15 0-32.386-12.096-61.995-32-84.564zm-30-25.069c-18.066-10.917-39.035-17.49-61.45-18.277 19.079-22.67 31.627-51.007 34.706-82.09 8.399 0 15.673.222 26.744-3.014zm-298-115.367v-33c44.017 0 81.438-19.879 106-50.251v35.251c0 8.284 6.716 15 15 15s15-6.716 15-15v-35.251c24.608 30.428 62.052 50.251 106 50.251v33c0 66.72-54.28 121-121 121s-121-54.28-121-121zm136-241.369c31 2.615 60.119 13.274 84.903 30.2-16.871 31.886-48.049 53.857-83.709 59.009-1.579-10.391-1.194-9.054-1.194-89.209zm186 181.369c0 24.813-20.187 45-45 45h-5c0-9.121 0-41.501 0-53 0-24.813 20.187-45 45-45h5zm-38.423-75.113c-24.622 12.312-41.577 37.763-41.577 67.113v5c-43.803 0-79.373-25.202-95.953-60.208 41.235-7.326 77.317-32.495 98.457-68.674 16.361 15.912 29.739 35.094 39.073 56.769zm-178.771-17.044c-35.647-5.143-66.834-27.118-83.71-59.012 24.785-16.926 53.903-27.585 84.904-30.2 0 79.09.396 78.75-1.194 89.212zm-107.31-39.725c21.142 36.187 57.233 61.358 98.455 68.677-16.46 34.75-51.839 60.205-95.951 60.205v-5c0-29.35-16.955-54.8-41.576-67.112 9.333-21.676 22.712-40.858 39.072-56.77zm-77.496 78.882h5c24.813 0 45 20.187 45 45v53h-5c-24.813 0-45-20.187-45-45zm50.744 128c3.08 31.083 15.627 59.418 34.705 82.088-21.986.763-43.003 7.042-61.449 18.184v-103.286c11.33 3.311 19.272 3.014 26.744 3.014zm-57.611 195c7.055-46.21 47.051-83 96.867-83h29.401c49.583 31.968 113.467 32.063 163.198 0h29.401c48.938 0 89.613 36.057 96.854 83z"/><path d="m297 348c6.628-4.971 7.971-14.373 3-21-4.972-6.628-14.372-7.971-21-3-13.543 10.156-32.458 10.156-46 0-6.626-4.97-16.029-3.626-21 3-4.971 6.627-3.627 16.029 3 21 24.139 18.105 57.859 18.106 82 0z"/></g></svg>