<svg id="Capa_1" enable-background="new 0 0 512 512" height="512" viewBox="0 0 512 512" width="512" xmlns="http://www.w3.org/2000/svg"><g><path d="m448.001 0h-343.5c-30.603 0-55.5 24.897-55.5 55.5 0 6.021-.014 400.821.025 402.004.54 30.14 25.21 54.496 55.475 54.496h343.5c8.284 0 15-6.716 15-15 0-31.613 0-464.452 0-482 0-8.284-6.716-15-15-15zm-343.5 30h328.5v371h-89.54c2.478-41.485 13.532-67.594 22.584-91.733.632-1.684.955-3.468.955-5.267v-40c0-8.284-6.716-15-15-15h-6.73l-74.27-148.54v-28.46c0-8.284-6.716-15-15-15s-15 6.716-15 15v28.46l-74.269 148.54h-6.73c-8.284 0-15 6.716-15 15v40c0 1.799.323 3.583.955 5.267l7.146 19.057c8.788 23.435 13.953 47.82 15.438 72.677h-64.04c-9.19 0-17.858 2.259-25.5 6.23v-351.731c.001-14.061 11.441-25.5 25.501-25.5zm151.5 331c-8.284 0-15 6.716-15 15v25h-42.398c-1.517-28.468-7.354-56.393-17.41-83.21l-6.191-16.51v-22.28h34v25c0 8.284 6.716 15 15 15h64c8.284 0 15-6.716 15-15v-25h34v22.28c-8.993 23.981-21.141 53.542-23.602 99.72h-42.398v-25c-.001-8.284-6.717-15-15.001-15zm0-223.459 55.73 111.459h-23.73c-8.284 0-15 6.716-15 15v25h-34v-25c0-8.284-6.716-15-15-15h-23.73zm177 344.459h-328.5c-14.061 0-25.5-11.439-25.5-25.5s11.439-25.5 25.5-25.5h328.5z"/><path d="m352.001 95h32c8.284 0 15-6.716 15-15s-6.716-15-15-15h-32c-8.284 0-15 6.716-15 15s6.716 15 15 15z"/><path d="m352.001 159h32c8.284 0 15-6.716 15-15s-6.716-15-15-15h-32c-8.284 0-15 6.716-15 15s6.716 15 15 15z"/></g></svg>