<svg id="Capa_1" enable-background="new 0 0 512 512" height="512" viewBox="0 0 512 512" width="512" xmlns="http://www.w3.org/2000/svg"><g><path d="m471.296 483.895c-22.457-12.502-47.196-25.267-76.535-54.637-7.785-7.791-15.109-16.087-21.908-24.778l33.239-14.773c5.417-2.407 8.908-7.779 8.908-13.707v-41h9c8.284 0 15-6.716 15-15s-6.716-15-15-15h-9v-49c0-6.187-3.798-11.738-9.563-13.98l-6.437-2.503v-23.517c0-18.399-3.463-36.266-10.063-52.868 30.246-7.769 55.397-26.591 71.544-50.812 5.464-8.197 1.672-19.413-7.737-22.55-46.469-15.493-90.603-37.275-131.176-64.742l-16.053-10.865c-13.671-9.266-29.635-14.163-46.165-14.163-45.408 0-82.35 36.941-82.35 82.35v14.515c-38.544 25.644-64 69.47-64 119.136v23.517l-6.437 2.503c-5.765 2.241-9.563 7.792-9.563 13.979v49h-9c-8.284 0-15 6.716-15 15s6.716 15 15 15h9v41c0 5.928 3.491 11.3 8.908 13.707l33.218 14.764c-22.436 28.635-50.617 52.812-82.382 70.494l-16.04 8.93c-5.97 3.323-8.939 10.261-7.222 16.875 1.716 6.613 7.685 11.23 14.518 11.23h416c6.833 0 12.802-4.617 14.519-11.23 1.717-6.615-1.253-13.552-7.223-16.875zm-211.946-453.895c10.506 0 20.65 3.111 29.342 9.002 29.952 20.272 69.545 47.655 134.066 71.954-13.012 12.561-29.769 21.417-48.459 24.657-23.331-34.185-60.533-57.401-103.299-61.833v-1.78c0-8.284-6.716-15-15-15s-15 6.716-15 15v1.786c-11.81 1.237-23.198 3.914-33.982 7.858.381-28.54 23.703-51.644 52.332-51.644zm-116.35 186c0-57.224 42.757-104.643 98-112.002v16.002c0 8.284 6.716 15 15 15s15-6.716 15-15v-16.011c35.497 4.682 65.401 25.761 82.518 54.85.166.305.337.606.524.897 9.756 16.937 14.958 36.202 14.958 56.264v11.85l-107.563-41.83c-3.496-1.359-7.377-1.359-10.873 0l-107.564 41.83zm-16 50.261 129-50.166 129 50.166v99.991l-129 57.333-129-57.333zm-25.576 215.739c25.086-18.156 47.414-40.159 65.897-64.998l82.587 36.705c3.876 1.723 8.306 1.725 12.185 0l82.589-36.707c19.265 25.92 41.643 47.503 65.854 65z"/><path d="m271 368v-96c0-8.284-6.716-15-15-15s-15 6.716-15 15v96c0 8.284 6.716 15 15 15s15-6.716 15-15z"/><path d="m184 281c-8.284 0-15 6.716-15 15v48c0 8.284 6.716 15 15 15s15-6.716 15-15v-48c0-8.284-6.716-15-15-15z"/><path d="m328 359c8.284 0 15-6.716 15-15v-48c0-8.284-6.716-15-15-15s-15 6.716-15 15v48c0 8.284 6.716 15 15 15z"/></g></svg>