<svg id="Capa_1" enable-background="new 0 0 512.001 512.001" height="512" viewBox="0 0 512.001 512.001" width="512" xmlns="http://www.w3.org/2000/svg"><g><path d="m260.499 323.325 46.24-98.1c2.694-5.717 1.517-12.509-2.944-16.984-4.461-4.477-11.25-5.676-16.975-3l-98.411 45.994-66.498-66.499c-4.543-4.543-11.473-5.689-17.237-2.849-5.763 2.84-9.077 9.034-8.243 15.404l11.991 91.502-99.696 47.139c-5.772 2.729-9.184 8.813-8.503 15.161.682 6.349 5.307 11.57 11.527 13.012l110.506 25.619 25.341 110.208c1.432 6.228 6.652 10.864 13.004 11.552.543.059 1.083.087 1.62.087 5.748 0 11.057-3.306 13.555-8.588l47.167-99.758 90.854 11.356c6.354.79 12.52-2.536 15.335-8.294 2.815-5.756 1.663-12.665-2.868-17.196zm-44.613 48.784c-6.431-.807-12.65 2.613-15.421 8.472l-33.323 70.478-17.75-77.192c-1.285-5.589-5.645-9.956-11.231-11.251l-77.625-17.996 70.59-33.376c5.889-2.784 9.308-9.051 8.461-15.51l-7.675-58.568 42.716 42.717c4.461 4.463 11.24 5.655 16.958 2.982l70.306-32.858-33.028 70.07c-2.698 5.725-1.513 12.527 2.962 17.002l42.312 42.312z"/><path d="m279.045 156.034c2.689 2.002 5.83 2.968 8.943 2.968 4.58 0 9.101-2.09 12.045-6.046l96-129c4.946-6.646 3.567-16.043-3.079-20.988-6.645-4.946-16.042-3.567-20.989 3.078l-96 129c-4.944 6.645-3.566 16.043 3.08 20.988z"/><path d="m169.292 173.417c2.153 1.077 4.442 1.587 6.696 1.587 5.502 0 10.8-3.039 13.428-8.295l64-128c3.705-7.409.701-16.42-6.708-20.124-7.409-3.706-16.42-.701-20.125 6.708l-64 128c-3.704 7.409-.701 16.42 6.709 20.124z"/><path d="m355.966 232.956c2.945 3.957 7.465 6.046 12.045 6.046 3.113 0 6.254-.966 8.943-2.968l129-96c6.646-4.945 8.024-14.343 3.079-20.988-4.947-6.646-14.343-8.025-20.989-3.078l-129 96c-6.645 4.945-8.023 14.342-3.078 20.988z"/><path d="m493.417 265.293c-3.705-7.41-12.715-10.415-20.125-6.708l-128 64c-7.41 3.704-10.413 12.715-6.708 20.124 2.628 5.257 7.925 8.295 13.428 8.295 2.254 0 4.543-.51 6.696-1.587l128-64c7.41-3.704 10.413-12.715 6.709-20.124z"/><path d="m15 63.001h18v17c0 8.284 6.716 15 15 15s15-6.716 15-15v-17h17c8.284 0 15-6.716 15-15s-6.716-15-15-15h-17v-18c0-8.284-6.716-15-15-15s-15 6.716-15 15v18h-18c-8.284 0-15 6.716-15 15s6.716 15 15 15z"/><path d="m497 449.001h-18v-17c0-8.284-6.716-15-15-15s-15 6.716-15 15v17h-17c-8.284 0-15 6.716-15 15s6.716 15 15 15h17v18c0 8.284 6.716 15 15 15s15-6.716 15-15v-18h18c8.284 0 15-6.716 15-15s-6.716-15-15-15z"/></g></svg>