<svg id="Capa_1" enable-background="new 0 0 512 512" height="512" viewBox="0 0 512 512" width="512" xmlns="http://www.w3.org/2000/svg"><g><path d="m510.998 94.679v.001z"/><path d="m392.659 310.998c51.007-.343 92.975-41.448 94.314-92.457.444-16.923-3.656-33.597-11.717-48.274 22.756-18.136 36.146-45.87 35.741-75.587-.699-51.221-42.429-92.97-93.666-93.671-29.705-.431-57.455 12.984-75.592 35.741-14.676-8.06-31.354-12.162-48.271-11.717-50.991 1.337-92.114 43.282-92.459 94.311-.236 34.71 18.451 66.13 47.465 82.915l-235.567 234.66c-7.952 7.923-12.9 19.087-12.9 31.237 0 24.176 19.668 43.844 43.843 43.844 11.743 0 23.181-4.82 31.382-13.227l20.906-21.429 9.262 9.262c16.876 16.877 44.337 16.877 61.213 0 16.915-16.915 16.92-44.295 0-61.213l-9.393-9.393 14.787-14.787 9.394 9.394c16.914 16.915 44.295 16.919 61.213 0 16.915-16.915 16.92-44.295 0-61.213l-9.394-9.394 76.505-76.506c16.713 28.922 47.944 47.665 82.934 47.504zm-63.336-77.804c-3.027-11.06-16.919-14.805-25.075-6.648l-102.848 102.848c-5.858 5.857-5.858 15.355 0 21.213l20 20c5.179 5.18 5.179 13.607 0 18.787-5.18 5.18-13.607 5.18-18.787 0l-20-20c-5.857-5.857-15.355-5.857-21.213 0l-36 36c-5.858 5.857-5.858 15.355 0 21.213l20 20c5.179 5.18 5.179 13.607 0 18.787-5.18 5.18-13.607 5.18-18.787 0l-20-20c-5.839-5.841-15.453-5.906-21.343.132l-31.51 32.298c-2.59 2.654-6.202 4.177-9.91 4.177-7.633 0-13.843-6.21-13.843-13.844 0-4.021 1.503-7.423 4.073-9.984l251.36-250.393c8.133-8.099 4.511-22.048-6.628-25.096-28.346-7.754-48.004-33.717-47.804-63.137.238-35.005 29.298-64.546 64.949-64.546 14.721 0 29.067 5.008 40.567 14.195 7.225 5.773 17.994 3.703 22.502-4.485 11.483-20.857 33.261-33.711 56.995-33.711 35.368 0 64.501 29.025 64.979 64.088 0 25.743-13.556 46.799-33.704 57.891-8.15 4.488-10.285 15.243-4.485 22.503 9.542 11.945 14.575 26.958 14.173 42.272-.909 34.64-29.856 63.011-64.527 63.244-29.378.213-55.381-19.459-63.134-47.804z"/><path d="m9.545 101.971c21.378 8.344 34.852 26.827 37.764 47.215l1.848 12.936c1.056 7.39 7.385 12.878 14.85 12.878s13.793-5.489 14.849-12.879l1.907-13.352c3.002-21.011 17.108-38.96 36.815-46.843 11.493-4.597 12.77-20.416 2.146-26.789l-10.365-6.219c-15.042-9.025-25.291-24.132-28.117-41.444l-2.431-14.892c-1.185-7.254-7.453-12.582-14.804-12.582s-13.62 5.328-14.804 12.583l-2.353 14.406c-2.867 17.56-13.317 32.785-28.671 41.773l-10.75 6.292c-10.788 6.315-9.551 22.355 2.116 26.917zm54.357-36.883c5.243 8.453 11.89 16.014 19.712 22.345-7.758 6.251-14.414 13.747-19.7 22.146-5.369-8.436-12.124-15.94-19.996-22.177 7.923-6.301 14.662-13.852 19.984-22.314z"/><path d="m504.584 411.055-10.879-6.368c-15.289-8.949-25.728-24.104-28.64-41.58l-2.263-13.573c-1.206-7.232-7.464-12.533-14.796-12.533-7.333 0-13.591 5.302-14.796 12.534l-2.343 14.057c-2.872 17.23-13.108 32.266-28.086 41.251l-10.493 6.296c-10.613 6.367-9.358 22.188 2.146 26.789 19.707 7.884 33.813 25.832 36.814 46.843l1.907 13.352c1.056 7.39 7.385 12.879 14.85 12.879s13.794-5.489 14.85-12.879l1.848-12.935c2.894-20.256 16.25-38.805 37.765-47.216 11.643-4.554 12.925-20.59 2.116-26.917zm-56.484 34.524c-5.282-8.393-11.935-15.886-19.685-22.134 7.805-6.298 14.446-13.821 19.695-22.234 5.328 8.422 12.062 15.936 19.969 22.205-7.863 6.232-14.615 13.736-19.979 22.163z"/><path d="m416.026 111c8.285 0 15-6.716 15-15s-6.715-15-15-15c-8.368 0-15.005 6.786-15.005 15 0 8.284 6.721 15 15.005 15z"/></g></svg>