<svg id="Capa_1" enable-background="new 0 0 512 512" height="512" viewBox="0 0 512 512" width="512" xmlns="http://www.w3.org/2000/svg"><g><path d="m365.161 237.977-26.034-29.754c5.789-3.709 10.632-8.764 14.089-14.724 13.053 8.725 28.638 13.501 44.358 13.501h10.426c8.284 0 15-6.716 15-15s-6.716-15-15-15h-10.426c-10.688 0-21.283-3.531-29.833-9.944l-4.727-3.545.513-1.025c8.478-16.954 25.519-27.486 44.473-27.486 8.284 0 15-6.716 15-15s-6.716-15-15-15c-26.252 0-50.207 12.608-65.007 33.562-3.696-2.99-7.893-5.382-12.447-7.024l23.392-94.31c4.697-18.909-9.595-37.228-29.118-37.228h-69.82c-16.542 0-30 13.458-30 30v27h-28.188c-20.445 0-34.929 20.081-28.461 39.486l11.845 35.536c-15.911 6.313-27.196 21.847-27.196 39.978 0 15.2 7.935 28.573 19.873 36.223l-26.034 29.754c-47.615 54.418-73.839 124.21-73.839 196.518 0 41.963 33.82 77.505 77.505 77.505h210.99c43.669 0 77.505-35.526 77.505-77.505 0-72.308-26.224-142.1-73.839-196.518zm-169.161-52.977c-7.168 0-13-5.832-13-13s5.832-13 13-13h120c7.168 0 13 5.832 13 13s-5.832 13-13 13zm128.821-155.001-24.555 99.001h-17.454l-17.162-51.487c-2.008-6.023-5.793-11.066-10.649-14.65v-32.863zm-87.633 57.001 14 42h-40.377l-14-42zm124.307 395h-210.99c-26.766 0-47.505-21.774-47.505-47.505 0-65.04 23.587-127.815 66.417-176.763l37.39-42.732h98.385l37.39 42.732c42.831 48.948 66.418 111.723 66.418 176.763 0 25.72-20.729 47.505-47.505 47.505z"/><path d="m272.625 337.205c-9.561-3.38-20.098-7.433-25.756-11.871-.372-.291-1.066-2.038-.578-4.629.233-1.24 1.307-5.382 5.299-6.584 2.977-.896 5.117-.9 5.218-.912 2.043-.073 7.71.495 11.225 3.478 6.318 5.362 15.783 4.585 21.142-1.731 5.36-6.316 4.586-15.782-1.731-21.142-5.382-4.567-11.368-7.184-16.723-8.676-1.338-6.914-7.416-12.138-14.721-12.138-7.606 0-13.875 5.667-14.852 13.005-27.191 9.749-33.404 46.768-12.793 62.934 9.049 7.097 21.819 12.148 34.272 16.551 7.434 2.627 8.19 7.957 7.517 11.966-.75 4.466-4.596 12.04-14.246 12.104-10.017.084-12.365-.304-19.677-5.086-6.934-4.537-16.229-2.593-20.764 4.342-4.535 6.933-2.591 16.229 4.342 20.764 8.071 5.279 14.441 7.865 21.447 9.059 1.248 7.023 7.371 12.361 14.754 12.361 7.975 0 14.478-6.229 14.954-14.084 14.776-5.324 26.043-18.237 28.775-34.486 3.382-20.124-7.509-38.299-27.104-45.225z"/></g></svg>