<svg id="Capa_1" enable-background="new 0 0 512 512" height="512" viewBox="0 0 512 512" width="512" xmlns="http://www.w3.org/2000/svg"><path d="m465 153h-2.021c.527-34.271-26.314-62.231-59.769-63.919-10.951-32.081-43.602-52.503-77.964-47.27-13.803-25.469-40.179-41.811-69.246-41.811s-55.443 16.342-69.246 41.811c-17.472-2.661-35.237 1.239-50.025 11.085l-19.986-24.976c-14.7-18.377-40.719-21.983-59.758-9.278-20.901 13.944-26.234 42.298-11.824 62.879l19.935 28.486c-10.256 11.442-16.328 26.501-16.075 42.993h-2.021c-16.542 0-30 13.458-30 30v34c0 16.542 13.458 30 30 30h2c0 64.333 28.319 120.709 73.227 158.831l-13.571 47.906c-8.271 29.236 13.656 58.263 44.064 58.263 20.387 0 38.502-13.7 44.053-33.312l8.494-29.987c32.418 8.198 67.464 8.599 101.468 0l8.494 29.984c5.549 19.615 23.665 33.315 44.051 33.315 30.379 0 52.343-29 44.062-58.268l-13.569-47.901c44.833-38.058 73.227-94.403 73.227-158.831h2c16.542 0 30-13.458 30-30v-34c0-16.542-13.458-30-30-30zm-383.21-111.87c4.514 0 8.716 2.016 11.528 5.532l22.354 27.937c-2.807 4.508-5.132 9.356-6.882 14.482-6.639.335-13.004 1.718-18.95 3.961l-20.102-28.725c-6.776-9.678.064-23.187 12.052-23.187zm36.101 78.387c8.413 1.468 16.359-4.381 17.455-12.851 3.348-25.859 30.07-42.254 54.85-33.147 7.907 2.906 16.672-1.274 19.382-9.265 6.833-20.168 25.923-34.254 46.422-34.254s39.589 14.086 46.423 34.254c2.71 7.994 11.477 12.171 19.382 9.265 24.77-9.103 51.5 7.275 54.85 33.147 1.096 8.47 9.042 14.318 17.455 12.851 20.989-3.663 39.485 12.755 38.876 33.483h-56.986c-8.284 0-15 6.716-15 15v23.03c0 6.937-2.701 13.459-7.606 18.364-10.572 10.571-16.394 24.626-16.394 39.576v55.03c0 9.374-7.626 17-17 17s-17-7.626-17-17c0-20.288-14.026-39.036-36.86-42.85-6.455-1.076-11.14-6.606-11.14-13.15 0-14.324-5.578-27.792-15.707-37.921l-9.373-9.372c-4.462-4.462-6.92-10.396-6.92-16.707v-16c0-8.284-6.716-15-15-15h-128.985c-.604-20.565 17.726-37.175 38.876-33.483zm-70.891 63.483h146c0 13.051 3.762 24.302 11.366 34h-157.366zm120.906 287.515c-3.513 12.416-19.874 15.675-27.781 5.219-3.013-3.984-3.961-9.025-2.603-13.826l10.573-37.324c9.118 5.592 18.701 10.494 28.674 14.642zm206.571-8.611c2.852 10.083-4.709 20.096-15.197 20.096-7.028 0-13.273-4.723-15.188-11.488l-8.862-31.287c9.974-4.148 19.557-9.049 28.674-14.642zm-118.477-36.904c-96.085 0-177-77.505-177-178h145.976c.014.332.024.665.024 1 0 20.288 14.026 39.036 36.86 42.85 6.455 1.076 11.14 6.606 11.14 13.15 0 25.916 21.084 47 47 47s47-21.084 47-47c0-59.454-.037-55.425.081-57h65.919c0 100.4-80.811 178-177 178zm209-208h-80.369c7.092-13.506 6.369-24.294 6.369-34h74z"/></svg>