<svg id="Capa_1" enable-background="new 0 0 511.995 511.995" height="512" viewBox="0 0 511.995 511.995" width="512" xmlns="http://www.w3.org/2000/svg"><path d="m443.398 394.773c-7.953-23.87-12.104-48.695-12.374-73.829 14.295-8.07 23.974-23.396 23.974-40.95 0-17.564-9.691-32.899-24-40.965v-11.035c0-57.214-31.477-109.381-81.184-136.315l8.656-31.739c3.144-11.532-7.858-21.964-19.215-18.177l-37.399 12.467-33.58-47.852c-5.972-8.512-18.595-8.498-24.557 0l-33.58 47.852-37.398-12.466c-11.343-3.777-22.364 6.627-19.215 18.177l8.656 31.739c-49.707 26.934-81.184 79.101-81.184 136.315v11.035c-14.309 8.066-24 23.401-24 40.965 0 17.553 9.679 32.88 23.974 40.95-.27 25.133-4.421 49.958-12.368 73.81-11.278 33.696 4.54 71.044 37.51 85.998-.722 5.33-1.116 10.749-1.116 16.242 0 8.284 6.716 15 15 15h272c8.284 0 15-6.716 15-15 0-5.483-.374-10.908-1.093-16.252 32.416-14.714 48.963-51.709 37.493-85.97zm-187.401 6.222c-57.897 0-105-47.103-105-105v-37c45.848-10.631 84.709-41.731 105-84.39 20.291 42.659 59.152 73.758 105 84.39v37c0 57.897-47.102 105-105 105zm-169-121c0-9.374 7.626-17 17-17h17v34h-17c-9.374 0-17-7.626-17-17zm304-17h17c9.374 0 17 7.626 17 17s-7.626 17-17 17h-17c0-7.931 0-24.942 0-34zm10-35v5h-5c-49.873 0-94.338-29.608-114.152-74h38.152c6.765 0 12.691-4.527 14.472-11.054l7.184-26.343c36.529 22.561 59.344 62.652 59.344 106.397zm-189.743-141.77c6.289 2.098 13.212-.185 17.021-5.614l27.722-39.503 27.722 39.503c3.81 5.429 10.731 7.71 17.021 5.614l21.411-7.137-13.611 49.906h-105.086l-13.611-49.906zm-100.257 141.77c0-43.745 22.815-83.835 59.344-106.396l7.184 26.343c1.78 6.526 7.707 11.054 14.472 11.054h38.152c-19.814 44.392-64.279 74-114.152 74h-5zm-13.939 176.261c8.336-25.016 12.968-50.966 13.803-77.261h13.734c6.147 26.062 19.868 49.231 38.704 67.049-22.245 13.308-39.43 33.379-49.203 57.017-16.039-9.887-22.912-29.241-17.038-46.805zm39.187 77.739c5.088-30.307 25.374-56.13 54.089-68.083 40.754 22.784 90.549 22.791 131.314.008 27.694 11.591 48.89 36.774 54.114 68.075zm261.677-30.947c-9.682-23.374-26.809-43.502-49.255-56.977 18.851-17.821 32.582-41 38.733-67.076h13.735c.834 26.295 5.467 52.247 13.808 77.279 5.783 17.285-.795 36.758-17.021 46.774z"/></svg>