<svg id="Capa_1" enable-background="new 0 0 512.004 512.004" height="512" viewBox="0 0 512.004 512.004" width="512" xmlns="http://www.w3.org/2000/svg"><g><path d="m458.092 292.905-63.804-58.003c2.896-2.735 4.714-6.6 4.714-10.898 0-8.284-6.716-15-15-15h-14.71l-44.077-88.578 49.969-27.253c10.242-5.586 10.459-20.274.347-26.143l-112-65c-7.513-4.359-17.112-1.44-20.959 6.291l-99.861 200.683h-14.71c-8.284 0-15 6.716-15 15 0 4.298 1.817 8.163 4.714 10.898l-63.804 58.003c-4.586 4.168-6.136 10.728-3.901 16.508 2.234 5.78 7.793 9.591 13.991 9.591h23.339l-14.256 135.43c-.931 8.843 6.007 16.57 14.917 16.57h29.752l12.274 31.453c3.711 9.511 15.68 12.622 23.551 6.091l33.166-27.516c17.054 19.759 41.743 30.972 67.633 30.972h3.247c25.893 0 50.58-11.216 67.633-30.972l33.166 27.516c7.863 6.524 19.833 3.436 23.551-6.091l12.274-31.453h29.752c8.93 0 15.847-7.744 14.917-16.57l-14.256-135.43h23.338c6.197 0 11.756-3.811 13.991-9.591 2.238-5.781.688-12.34-3.898-16.508zm-120.672-213.308-25.579 13.951-20.146-40.487zm-81.418-30.924 79.781 160.33h-159.562zm-98.202 190.33h196.403l54.999 50c-13.506 0-292.993 0-306.401 0zm-7.38 233.186-8.444-21.639c-2.247-5.757-7.794-9.547-13.974-9.547h-23.338l12.842-122h19.496v62.918c0 20.212 6.954 40.036 19.581 55.819 11.496 14.37 11.724 14.513 13.886 17.815zm107.206 9.814h-3.247c-22.489 0-43.413-13.05-53.305-33.245-5.325-10.877-10.385-16.408-21.065-29.758-8.388-10.484-13.007-23.653-13.007-37.079v-62.918h178v62.918c0 13.426-4.619 26.595-13.006 37.079-10.673 13.341-15.742 18.884-21.065 29.757-9.893 20.197-30.816 33.246-53.305 33.246zm149.714-41h-23.338c-6.18 0-11.727 3.79-13.974 9.547l-8.444 21.639-20.049-16.633c2.131-3.255 2.3-3.333 13.887-17.815 12.626-15.783 19.58-35.607 19.58-55.819v-62.918h19.496z"/><path d="m261.396 397.397-5.394 5.394-5.394-5.394c-5.857-5.857-15.355-5.857-21.213 0s-5.858 15.355 0 21.213l16 16c5.859 5.858 15.355 5.858 21.213 0l16-16c5.858-5.857 5.858-15.355 0-21.213-5.857-5.858-15.355-5.858-21.212 0z"/></g></svg>