<svg id="Capa_1" enable-background="new 0 0 512 512" height="512" viewBox="0 0 512 512" width="512" xmlns="http://www.w3.org/2000/svg"><g><path d="m461.88 259.17c32.79-44.29 50.12-96.91 50.12-152.17v-15c0-8.28-6.72-15-15-15-51.621 0-100.697 15.027-142.947 43.608-3.883-5.619-8.24-10.862-12.989-15.703 10.916-8.612 17.936-21.951 17.936-36.905 0-25.92-21.08-47-47-47s-47 21.08-47 47c0 .455.018.907.031 1.36-2.989-.229-5.999-.36-9.031-.36-3.031 0-6.041.125-9.031.347.013-.449.031-.897.031-1.347 0-25.92-21.08-47-47-47s-47 21.08-47 47c0 14.938 7.005 28.264 17.9 36.877-4.749 4.876-9.084 10.141-12.936 15.738-42.257-28.588-91.334-43.615-142.964-43.615-8.28 0-15 6.72-15 15v15c0 55.26 17.33 107.88 50.12 152.17 23.05 31.14 52.22 56.23 85.76 74.01-75.55 3.72-135.88 66.36-135.88 142.82 0 8.28 6.72 15 15 15h482c8.28 0 15-6.72 15-15 0-76.46-60.33-139.1-135.88-142.82 33.54-17.78 62.71-42.87 85.76-74.01zm-205.88 57.83c-35.84 0-65-29.16-65-65v-62.764c17.342-5.217 40.403-10.236 65-10.236 24.599 0 47.658 5.019 65 10.237v62.763c0 35.84-29.16 65-65 65zm39-249c0-9.37 7.63-17 17-17s17 7.63 17 17c0 8.372-6.097 15.338-14.078 16.73-5.636-3.224-11.543-5.991-17.667-8.27-1.464-2.555-2.255-5.468-2.255-8.46zm-95-17c9.37 0 17 7.63 17 17 0 2.93-.766 5.787-2.179 8.308-6.18 2.28-12.173 5.08-17.932 8.394-7.889-1.469-13.889-8.396-13.889-16.702 0-9.37 7.63-17 17-17zm-29.625 112.626c10.807-38.051 46.017-64.626 85.625-64.626 39.615 0 74.827 26.572 85.628 64.62.024.085.029.132.032.136-.026.07-.162.26-.377.37-.115.058-.174.08-.407.001h.001c-20.014-6.9-50.984-15.127-84.877-15.127-33.888 0-64.859 8.225-84.873 15.125-.233.079-.293.057-.406-.001-.224-.112-.362-.312-.377-.345 0 0 .001-.047.031-.153zm-140.375-56.146c41.246 2.665 80.241 16.34 114.104 40.004-.952 2.618-1.827 5.265-2.589 7.946-3.094 10.896.113 22.519 8.37 30.331 3.252 3.077 7.051 5.333 11.114 6.731v59.508c0 25.079 9.775 47.916 25.708 64.914-2.08 1.012-4.14 2.065-6.174 3.167-90.153-31.844-150.328-116.435-150.533-212.601zm99.38 256.34c-21.183 27.849-32.38 61.088-32.38 96.18v1h-66.01c6.767-50.791 47.41-91.026 98.39-97.18zm-2.38 96.18c0-55.384 35.888-104.861 87.964-122.33 12.429 5.977 26.348 9.33 41.036 9.33 14.687 0 28.606-3.352 41.035-9.33 52.077 17.478 87.965 66.956 87.965 122.33v1h-26v-17c0-34.738-28.262-63-63-63-14.813 0-28.876 5.163-40 14.312-11.124-9.149-25.187-14.312-40-14.312-34.738 0-63 28.262-63 63v17h-26zm202 1h-146v-17c0-18.196 14.804-33 33-33 11.081 0 21.364 5.519 27.507 14.763 2.78 4.184 7.47 6.697 12.493 6.697s9.712-2.514 12.493-6.697c6.143-9.244 16.426-14.763 27.507-14.763 18.196 0 33 14.804 33 33zm152.01 0h-66.01v-1c0-35.077-11.198-68.326-32.391-96.181 50.985 6.149 91.633 46.387 98.401 97.181zm-149.553-140.916c-2.033-1.102-4.091-2.154-6.17-3.166 15.937-16.998 25.713-39.837 25.713-64.918v-59.491c4.064-1.398 7.862-3.666 11.114-6.743 8.259-7.813 11.467-19.438 8.373-30.339-.765-2.696-1.642-5.339-2.587-7.946 33.862-23.662 72.855-37.335 114.099-40-.204 96.168-60.383 180.761-150.542 212.603z"/></g></svg>