<svg id="Capa_1" enable-background="new 0 0 511.993 511.993" height="512" viewBox="0 0 511.993 511.993" width="512" xmlns="http://www.w3.org/2000/svg"><g><path d="m351.791 326.714c14.983-20.189 23.206-44.736 23.206-70.721v-41h17c8.284 0 15-6.716 15-15s-6.716-15-15-15h-7.851l-115.565-178.163c-5.907-9.107-19.262-9.106-25.168 0l-115.566 178.163h-7.85c-8.284 0-15 6.716-15 15s6.716 15 15 15h17v41c0 25.986 8.224 50.534 23.208 70.724-60.987 31.769-103.208 95.789-103.208 170.276 0 8.284 6.716 15 15 15h368c8.284 0 15-6.716 15-15 0-73.894-41.82-138.292-103.206-170.279zm-95.794-23.721c27.019 0 49 21.981 49 49 0 14.763-6.387 33.998-16.271 49.003-10.046 15.251-21.975 23.997-32.729 23.997-24.866 0-49-44.233-49-73 0-27.019 21.981-49 49-49zm-70.338-152h140.674l22.054 34h-184.782zm70.338-108.436 50.877 78.437h-101.755zm89 172.436v41c0 21.148-7.283 41.027-20.445 56.819-13.635-23.764-39.248-39.819-68.555-39.819s-54.92 16.055-68.555 39.819c-13.161-15.792-20.445-35.67-20.445-56.819v-41zm-257.32 267c5.272-57.784 40.771-106.104 89.323-130.157 0 43.087 34.059 103.157 78.996 103.157 44.975 0 79.127-60.419 78.997-103.119 49.91 24.882 84.036 74.601 89.294 130.119z"/><path d="m274.603 362.599c5.858-5.857 5.858-15.355 0-21.213-5.052-5.052-12.811-5.746-18.606-2.086-5.798-3.66-13.555-2.966-18.607 2.086-5.857 5.858-5.857 15.356.001 21.214 10.258 10.257 26.952 10.259 37.212-.001z"/></g></svg>