<svg id="Capa_1" enable-background="new 0 0 512.038 512.038" height="512" viewBox="0 0 512.038 512.038" width="512" xmlns="http://www.w3.org/2000/svg"><g><path d="m491.154 266.213c-29.867 12.688-62.192 19.899-94.673 21.234 5.991-15.13 9.599-31.452 10.373-48.5 40.045-1.498 72.165-34.523 72.165-74.928v-52c0-8.284-6.716-15-15-15h-20c-15.448 0-30.249 4.792-42.58 13.293-17.812-63.551-76.258-110.293-145.42-110.293s-127.608 46.742-145.42 110.293c-12.331-8.501-27.131-13.293-42.58-13.293h-20c-8.284 0-15 6.716-15 15v52c0 40.405 32.12 73.43 72.165 74.928.774 17.052 4.383 33.376 10.376 48.509-32.66-1.287-64.461-8.403-94.675-21.243-11.455-4.869-23.536 5.584-20.374 17.617l57 217c1.731 6.593 7.691 11.189 14.508 11.189h368c6.816 0 12.776-4.597 14.508-11.189l57-217c3.162-12.035-8.918-22.483-20.373-17.617zm-217.851 152.713 12.463 63.093h-59.494l12.463-63.093c.562-2.843.287-5.787-.788-8.478l-12.19-30.478c19.707 4.024 40.421 4.105 60.524 0l-12.19 30.478c-1.075 2.691-1.349 5.636-.788 8.478zm103.716-186.907c0 66.72-54.28 121-121 121s-121-54.28-121-121v-80.985c39.828.311 77.98 12.691 110.425 35.865l1.856 1.326c5.216 3.726 12.223 3.725 17.438 0l1.856-1.326c32.445-23.174 70.597-35.554 110.425-35.865zm67-105h5v37c0 23.804-18.581 43.338-42 44.889 0-63.128.029-58.92-.072-62.367 8.357-12.124 22.211-19.522 37.072-19.522zm-188-97c56.393 0 103.896 38.778 117.251 91.069-41.987.977-82.258 13.581-117.251 36.685-34.994-23.106-75.262-35.708-117.251-36.685 13.355-52.291 60.858-91.069 117.251-91.069zm-193 134v-37h5c14.861 0 28.715 7.398 37.072 19.521-.103 3.522-.072-.543-.072 62.367-23.419-1.55-42-21.084-42-44.888zm-26.185 140.01c30.221 9.486 61.913 14.177 94.869 13.598 5.041 7.297 10.704 14.132 16.918 20.424-36.729 24.949-63.259 61.57-75.688 103.406zm136.152 54.045c4.89 3.231 9.976 6.188 15.239 8.844l20.218 50.549-12.751 64.552h-100.069c4.432-51.267 33.053-97.264 77.363-123.945zm143.36 123.945-12.751-64.552 20.218-50.549c5.259-2.654 10.34-5.607 15.226-8.835 42.648 25.708 72.83 70.727 77.383 123.937h-100.076zm122.777-40.63c-12.635-42.558-39.873-78.939-75.709-103.334 6.216-6.295 11.882-13.133 16.925-20.434 32.027.551 64.258-4.09 94.877-13.639z"/><path d="m214.727 266.603c-7.406-3.704-16.419-.7-20.124 6.708-3.705 7.409-.702 16.42 6.708 20.124 2.533 1.267 5.107 2.428 7.708 3.508v7.076c0 8.284 6.716 15 15 15 7.922 0 14.393-6.145 14.946-13.926 11.094 1.546 22.472 1.622 34.108 0 .553 7.781 7.024 13.926 14.946 13.926 8.284 0 15-6.716 15-15v-7.076c2.601-1.08 5.175-2.241 7.708-3.508 7.41-3.704 10.413-12.715 6.708-20.124-3.704-7.41-12.714-10.415-20.124-6.708-25.855 12.928-56.729 12.928-82.584 0z"/></g></svg>