<svg id="Capa_1" enable-background="new 0 0 512 512" height="512" viewBox="0 0 512 512" width="512" xmlns="http://www.w3.org/2000/svg"><path d="m443.577 377.011c-12.691-6.342-20.575-19.099-20.575-33.292v-22.755c14.309-8.066 24-23.401 24-40.965 0-17.674-9.81-33.094-24.268-41.119-3.031-53.342-32.475-99.727-75.429-126.256l19.249-76.987c2.79-11.157-7.553-21.241-18.673-18.062l-48.417 13.835-33.916-27.98c-5.543-4.572-13.549-4.572-19.092 0l-33.916 27.98-48.417-13.833c-11.071-3.165-21.474 6.859-18.673 18.062l19.249 76.987c-42.954 26.529-72.398 72.914-75.429 126.256-14.458 8.023-24.268 23.443-24.268 41.118 0 17.564 9.691 32.899 24 40.965v22.755c0 14.193-7.884 26.95-20.579 33.294-16.662 8.332-27.421 25.446-27.421 44.376 0 27.412 22.197 49.61 49.61 49.61h17.22c-1.86 8.452-2.831 17.15-2.831 26 0 8.284 6.716 15 15 15h272c8.284 0 15-6.716 15-15 0-8.852-.957-17.557-2.813-26h17.203c13.247 0 25.704-5.161 35.078-14.534 24.145-24.147 17.07-64.472-12.892-79.455zm-193.84 104.989 30.171-53.267c14.523-2.778 28.175-8.035 40.498-15.316 3.696 1.479 7.298 3.201 10.772 5.164l-35.919 63.419zm6.265-81c-53.486 0-97-43.514-97-97v-41h37c24.507 0 46.306-11.814 60-30.047 13.694 18.232 35.493 30.047 60 30.047h37v41c0 53.486-43.514 97-97 97zm-144-104c-9.374 0-17-7.626-17-17s7.626-17 17-17h17v34zm271-34h17c9.374 0 17 7.626 17 17s-7.626 17-17 17h-17zm-202.148-209.443 31.027 8.865c4.746 1.354 9.857.289 13.667-2.853l30.454-25.124 30.454 25.124c3.809 3.142 8.918 4.207 13.667 2.853l31.027-8.865-11.387 45.543c-29.832-11.208-51.884-10.1-71.761-10.1-19.612 0-38.401 3.578-55.761 10.101zm67.148 65.443h16c66.06 0 120.681 49.906 128.133 114-24.616 0-52.019 0-76.133 0-24.813 0-45-20.187-45-45 0-8.284-6.716-15-15-15s-15 6.716-15 15c0 24.813-20.187 45-45 45-24.172 0-51.54 0-76.133 0 7.452-64.094 62.074-114 128.133-114zm-157.39 322c-10.832 0-19.61-8.779-19.61-19.61 0-7.549 4.325-14.286 10.835-17.542 22.924-11.455 37.165-34.495 37.165-60.128v-16.72h12.093c4.661 25.377 16.892 48.136 34.256 65.848-19.75 11.294-35.846 28.031-46.508 48.152zm51.849 19.942c9.281-21.364 26.684-38.614 49.123-47.534 15.765 9.318 33.706 15.324 52.863 17.061l-29.188 51.531h-79.023c1.984-11.918 5.828-19.923 6.225-21.058zm187.275 21.058 25.039-44.21c6.27 7.16 11.3 15.153 14.976 23.722.103.26.215.514.331.766 2.636 6.306 4.547 12.915 5.683 19.722zm105.521-46.748c-3.707 3.706-8.631 5.747-13.865 5.747h-28.199c-10.839-20.494-27.234-37.042-46.559-48.132 17.374-17.715 29.613-40.481 34.276-65.868h12.093v16.72c0 25.633 14.241 48.673 37.161 60.126 12.038 6.022 14.502 21.996 5.093 31.407z"/></svg>