<svg id="Capa_1" enable-background="new 0 0 512.002 512.002" height="512" viewBox="0 0 512.002 512.002" width="512" xmlns="http://www.w3.org/2000/svg"><g><path d="m373.034 349.485c1.296-7.04 1.967-14.228 1.967-21.483v-57h41c6.067 0 11.537-3.654 13.858-9.26 2.321-5.605 1.038-12.057-3.252-16.347l-62.879-62.88c6.478-1.659 11.273-7.519 11.273-14.514 0-8.284-6.716-15-15-15h-22.481l-14.711-31.26 52.375-28.572c10.222-5.577 10.48-20.259.346-26.142l-112-65c-7.598-4.409-17.36-1.367-21.102 6.587l-67.947 144.387h-22.481c-8.284 0-15 6.716-15 15 0 6.995 4.795 12.854 11.273 14.514l-62.879 62.88c-4.29 4.29-5.573 10.741-3.252 16.347 2.322 5.605 7.792 9.26 13.858 9.26h41v57c0 7.257.671 14.446 1.967 21.486-57.822 24.406-97.967 81.194-97.967 147.514 0 8.284 6.716 15 15 15h400c8.284 0 15-6.716 15-15 .001-67.265-41.249-123.738-97.966-147.517zm-35.613-269.887-27.408 14.952-19.978-42.452zm-81.42-29.369 48.363 102.772h-96.727zm-65.787 132.773h131.574l58 58c-17.439 0-237.726 0-247.573 0zm154.787 88v57c0 17.897-5.428 35.248-15.287 49.844-15.405-24.514-42.686-40.844-73.713-40.844s-58.308 16.33-73.713 40.844c-9.859-14.596-15.287-31.946-15.287-49.844v-57zm-196.855 107.215c5.471 11.751 12.854 22.617 21.934 32.103-1.529 9.634-1.079 10.575-1.079 71.683h-97.15c5.305-46.466 35.05-85.357 76.295-103.786zm50.855 103.785v-58c0-31.43 25.57-57 57-57s57 25.57 57 57v58zm144 0c0-62.666.366-62.574-1.079-71.683 9.089-9.494 16.478-20.373 21.95-32.136 42.115 18.655 71.047 58.063 76.277 103.818h-97.148z"/><path d="m237.395 405.394c-5.858 5.857-5.859 15.355-.001 21.214 5.051 5.051 12.81 5.746 18.607 2.086 5.769 3.645 13.534 2.987 18.607-2.086 5.857-5.858 5.857-15.356-.001-21.214-10.26-10.257-26.952-10.257-37.212 0z"/></g></svg>