<svg id="Capa_1" enable-background="new 0 0 512 512" height="512" viewBox="0 0 512 512" width="512" xmlns="http://www.w3.org/2000/svg"><g><path d="m401.454 313.195c18.652-27.82 29.546-61.257 29.546-97.195 0-8.284-6.716-15-15-15h-1v-9.062c42.919-16.06 72-57.241 72-103.938 0-8.284-6.716-15-15-15h-82.323c-28.332-43.886-77.667-73-133.677-73s-105.345 29.114-133.677 73h-82.323c-8.284 0-15 6.716-15 15 0 46.697 29.081 87.878 72 103.938v9.062h-1c-8.284 0-15 6.716-15 15 0 35.939 10.896 69.38 29.55 97.202-65.378 34.646-110.55 103.574-110.55 183.798 0 8.284 6.716 15 15 15h482c8.284 0 15-6.716 15-15 0-77.733-42.817-147.966-110.546-183.805zm-289.684-82.195h288.459c-7.531 72.931-69.341 130-144.229 130s-136.699-57.069-144.23-130zm343.839-128c-4.479 23.883-19.479 44.448-40.609 56.04 0-18.807-3.279-37.73-10.192-56.04zm-399.218 0h50.801c-6.604 17.491-10.192 36.352-10.192 56.04-21.131-11.592-36.13-32.157-40.609-56.04zm70.609 56c0-71.131 57.869-129 129-129s129 57.869 129 129v42h-26v-17c0-8.284-6.716-15-15-15s-15 6.716-15 15v17h-146v-17c0-8.284-6.716-15-15-15s-15 6.716-15 15v17h-26zm-96.381 323c5.326-64.266 44.709-118.311 99.15-144.921 68.992 71.9 183.466 71.893 252.453.01 56.456 27.58 93.945 82.524 99.154 144.911z"/><path d="m192 127h32c8.284 0 15-6.716 15-15s-6.716-15-15-15h-32c-8.284 0-15 6.716-15 15s6.716 15 15 15z"/><path d="m288 127h32c8.284 0 15-6.716 15-15s-6.716-15-15-15h-32c-8.284 0-15 6.716-15 15s6.716 15 15 15z"/></g></svg>