<svg id="Capa_1" enable-background="new 0 0 512.001 512.001" height="512" viewBox="0 0 512.001 512.001" width="512" xmlns="http://www.w3.org/2000/svg"><g><path d="m506.683 300.543c-26.589-22.445-27.45-59.264-7.293-82.781 7.241-8.449 3.063-21.611-7.753-24.314-25.044-6.258-38.818-33.1-29.21-57.126l7.5-18.75c2.286-5.714.85-12.243-3.622-16.471-4.471-4.229-11.069-5.297-16.647-2.693l-83.717 39.063c-14.571-13.231-32.27-23.071-51.838-28.278 5.723-13.05 18.759-22.192 33.898-22.192 36.944 0 67-30.056 67-67v-5c0-8.284-6.716-15-15-15s-15 6.716-15 15v5c0 20.402-16.598 37-37 37-1.684 0-3.347.083-5 .206v-25.206c0-8.284-6.716-15-15-15s-15 6.716-15 15v34.896c-13.94 8.576-24.506 22.11-29.246 38.126-2.454-.034-52.848-.037-55.508 0-4.74-16.017-15.306-29.551-29.246-38.126v-34.896c0-8.284-6.716-15-15-15s-15 6.716-15 15v25.206c-1.653-.123-3.316-.206-5-.206-20.402 0-37-16.598-37-37v-5c0-8.284-6.716-15-15-15s-15 6.716-15 15v5c0 36.944 30.056 67 67 67 15.139 0 28.175 9.142 33.898 22.192-19.568 5.208-37.268 15.047-51.838 28.278l-83.718-39.063c-5.576-2.602-12.177-1.535-16.647 2.693-4.472 4.228-5.908 10.757-3.622 16.471l7.5 18.75c9.619 24.056-4.197 50.875-29.21 57.126-10.797 2.699-15.007 15.85-7.753 24.314 20.127 23.482 19.312 60.297-7.293 82.781-4.809 4.064-6.567 10.699-4.403 16.612 2.163 5.913 7.79 9.845 14.086 9.845 53.908 0 101.474 14.085 143.091 39.379 2.222 5.778 3.557 11.832 3.972 18.068l1.637 24.553h-6.334c-28.695 0-53.808 19.958-60.019 48.289-3.138 14.318-16.055 24.711-30.714 24.711h-26.633c-8.284 0-15 6.716-15 15s6.716 15 15 15h26.634c28.695 0 53.808-19.958 60.019-48.289 3.138-14.318 16.055-24.711 30.714-24.711h11.038c11.933 37.226 46.944 64 87.595 64s75.663-26.774 87.596-64h11.038c14.659 0 27.576 10.393 30.714 24.711 6.144 28.03 31.015 48.289 60.019 48.289h26.634c8.284 0 15-6.716 15-15s-6.716-15-15-15h-26.634c-14.659 0-27.576-10.393-30.714-24.711-6.144-28.03-31.015-48.289-60.019-48.289h-6.335l1.637-24.553c.416-6.236 1.75-12.289 3.972-18.067 41.611-25.291 89.176-39.38 143.091-39.38 6.296 0 11.923-3.932 14.086-9.845 2.165-5.912.406-12.547-4.403-16.612zm-178.565 49.862c-7.556 16.536-7.909 28.974-8.624 39.688-21.337-5.751-44.239-2.871-63.494 8.021-19.254-10.893-42.156-13.771-63.493-8.021l-.51-7.643c-.744-11.157-3.485-21.916-8.113-32.043-.602-1.461-1.63-3.439-38.852-77.886-25.896-51.784.31-115.087 55.968-132.982v4.46c0 8.284 6.716 15 15 15s15-6.716 15-15v-9h50v9c0 8.284 6.716 15 15 15s15-6.716 15-15v-4.46c55.547 17.86 81.908 81.107 55.968 132.983-38.124 76.251-38.243 76.413-38.85 77.883zm-281.466-135.572c25.978-15.132 39.859-44.717 35.056-74.284l44.059 20.559c-25.188 37.976-27.158 85.656-7.566 124.833l17.669 35.34c-28.68-12.291-59.105-20.048-90.265-22.966 13.742-24.774 15.203-56.463 1.047-83.482zm209.349 258.168c-30.577 0-56.414-22.482-61.171-52.146 17.371-6.757 37.199-4.083 52.171 7.146 5.334 4 12.666 4 18 0 14.972-11.23 34.803-13.901 52.172-7.146-4.758 29.662-30.596 52.146-61.172 52.146zm120.13-151.72 17.67-35.34c19.546-39.087 17.679-86.772-7.566-124.834l44.059-20.559c-4.801 29.556 9.069 59.146 35.056 74.284-14.154 27.015-12.697 58.701 1.045 83.481-31.158 2.92-61.584 10.678-90.264 22.968z"/><path d="m232.321 243.52-24-16c-6.894-4.595-16.207-2.733-20.801 4.16-4.596 6.893-2.733 16.206 4.16 20.801l24 16c6.882 4.588 16.198 2.746 20.801-4.16 4.596-6.893 2.733-16.206-4.16-20.801z"/><path d="m303.68 227.52-24 16c-6.894 4.595-8.756 13.908-4.16 20.801 4.61 6.915 13.928 8.744 20.801 4.16l24-16c6.894-4.595 8.756-13.908 4.16-20.801-4.595-6.892-13.909-8.755-20.801-4.16z"/></g></svg>