<svg id="Capa_1" enable-background="new 0 0 512.03 512.03" height="512" viewBox="0 0 512.03 512.03" width="512" xmlns="http://www.w3.org/2000/svg"><g><path d="m424.885 330.748c-2.223-15.167-1.885-24.737-1.885-40.985l54.184-24.082c10.823-4.81 17.816-15.571 17.816-27.414v-39.17c0-21.715-22.367-36.224-42.184-27.415l-29.816 13.252v-82.919c0-24.813-20.187-45-45-45h-244c-24.813 0-45 20.187-45 45v10.919l-29.815-13.252c-19.844-8.817-42.185 5.722-42.185 27.415v39.17c0 11.844 6.993 22.604 17.816 27.414l54.184 24.082v87.056c0 8.757-.637 17.416-1.884 25.926-44.872-10.024-87.116 24.303-87.116 69.77v39.5c0 8.284 6.716 15 15 15h482.03c8.284 0 15-6.716 15-15v-39.5c0-45.461-42.24-79.809-87.145-69.767zm-394.885 69.767c0-26.296 24.281-46.114 50.244-40.568-7.88 24.016-20.948 46.16-38.621 65.068h-11.623zm161 24.5v-97c0-35.841 29.159-65 65-65s65 29.159 65 65v97zm160 0v-97c0-28.255-12.404-53.664-32.046-71.08.068-1.122.046 4.53.046-56.92 0-8.284-6.716-15-15-15s-15 6.716-15 15v38.915c-61.82-22.974-128 23.017-128 89.085v97h-80.633c24.21-33.726 38.633-75.597 38.633-120.196v-96.804c0-5.928-3.491-11.3-8.908-13.707l-63.092-28.041.003-39.169 50.905 22.624c9.907 4.404 21.092-2.863 21.092-13.707v-34c0-8.271 6.729-15 15-15h35v81c0 8.284 6.716 15 15 15s15-6.716 15-15v-81h179c8.271 0 15 6.729 15 15v106c0 10.844 11.182 18.112 21.092 13.707l50.908-22.622v39.167l-63.092 28.041c-5.417 2.408-8.908 7.78-8.908 13.707v24.804c0 44.523 14.378 86.407 38.633 120.196zm131.03 0h-11.654c-17.667-18.903-30.733-41.04-38.614-65.048 26.156-5.625 50.268 14.432 50.268 40.548z"/><path d="m280.02 345.015c-8.368 0-15.005 6.786-15.005 15 0 8.284 6.721 15 15.005 15 8.285 0 15-6.716 15-15s-6.715-15-15-15z"/><path d="m304 113.015c-8.284 0-15 6.716-15 15v16c0 8.284 6.716 15 15 15s15-6.716 15-15v-16c0-8.284-6.716-15-15-15z"/></g></svg>