<svg id="Capa_1" enable-background="new 0 0 512.003 512.003" height="512" viewBox="0 0 512.003 512.003" width="512" xmlns="http://www.w3.org/2000/svg"><g><path d="m503.678 194.571-53.318-26.509 12.589-151.82c.543-6.547-3.237-12.686-9.328-15.146-6.09-2.464-13.075-.672-17.233 4.413l-90.448 110.639-14.49-7.204-37.794-83.147c-5.203-11.447-21.426-11.792-27.071-.501l-36.006 72.011c-59.347 3.768-111.393 43.621-129.671 101.783l-47.822 152.156c-6.715 21.364-18.737 40.923-34.766 56.561-11.642 11.358-18.32 27.201-18.32 43.468 0 33.485 27.242 60.728 60.728 60.728h371.272c6.192 0 11.747-3.805 13.985-9.578s.699-12.328-3.874-16.502c-46.496-42.429-77.505-99.376-88.047-161.252 11.11-1.504 21.809-5.828 30.805-12.568 7.337-5.502 16.399-7.975 25.516-6.961l51.96 5.77c6.822.77 13.289-3.213 15.7-9.642l33-88c2.7-7.2-.482-15.276-7.367-18.699zm-74.616-132.705-7.614 91.822-47.959-23.845zm-399.062 389.409c0-8.23 3.379-16.247 9.27-21.994 19.565-19.088 34.239-42.961 42.436-69.04l47.821-152.158c12.968-41.259 47.035-71 88.219-78.958l-51.506 140.471c-19.402 52.912-29.24 108.318-29.24 164.679 0 13.05-6.984 25.271-18.227 31.897-17.575 10.356-37.647 15.83-58.046 15.83-16.943 0-30.727-13.784-30.727-30.727zm424.054-171.469-40.356-4.481c-16.736-1.86-33.36 2.679-46.821 12.772-7.06 5.29-16.106 7.909-25.138 6.998-3.586-.355-12.88-1.286-21.5-2.148-16.088-1.604-29.183-13.867-31.843-29.822l-1.6-9.59c-1.363-8.173-9.101-13.687-17.264-12.328-8.172 1.363-13.69 9.093-12.328 17.264l1.6 9.589c4.884 29.285 28.922 51.795 58.452 54.739l6.213.621c8.789 58.831 34.278 113.903 73.002 158.583h-249.479c12.597-12.456 20.008-29.65 20.008-47.728 0-52.826 9.221-104.757 27.405-154.352l59.389-161.969 25.561-51.121 26.989 59.376c1.427 3.139 3.892 5.69 6.979 7.226l164.879 81.974z"/><path d="m344 207.002h-32c-8.284 0-15-6.716-15-15s6.716-15 15-15h32c8.284 0 15 6.716 15 15s-6.716 15-15 15z"/></g></svg>