<svg id="Capa_1" enable-background="new 0 0 512 512" height="512" viewBox="0 0 512 512" width="512" xmlns="http://www.w3.org/2000/svg"><g><path d="m497 481.993h-13.631l-12.927-46.054c-1.817-6.473-7.719-10.946-14.442-10.946-6.204 0-56.5 0-56.5 0l-43.5-58c-2.833-3.777-7.279-6-12-6h-31.681l28.013-40.461c2.366-3.417 3.208-7.664 2.325-11.725l-36.046-165.813h10.848c5.718 0 10.859 3.177 13.417 8.292l7.708 15.417c3.706 7.412 12.716 10.413 20.125 6.708 7.41-3.705 10.413-12.715 6.708-20.125l-7.708-15.417c-7.672-15.343-23.094-24.875-40.249-24.875h-21.36l4.603-65.021c.875-12.36-3.468-24.648-11.914-33.714-17.703-19-47.874-19.001-65.577 0-8.446 9.065-12.789 21.354-11.914 33.714l4.603 65.021h-21.36c-17.155 0-32.577 9.532-40.25 24.875l-7.708 15.417c-3.705 7.41-.701 16.42 6.708 20.125 7.411 3.705 16.419.702 20.125-6.708l7.708-15.416c2.557-5.115 7.698-8.292 13.417-8.292h10.848l-36.046 165.813c-.883 4.062-.041 8.308 2.325 11.725l28.013 40.461h-39.681c-5.015 0-9.699 2.506-12.481 6.68l-27.547 41.32h-47.972c-5.956 0-11.347 3.523-13.738 8.978l-28.064 64.022h-15.198c-8.284 0-15 6.716-15 15s6.716 15 15 15h482c8.284 0 15-6.716 15-15s-6.716-15.001-15-15.001zm-251.839-447.285c5.831-6.259 15.782-6.329 21.678 0 2.833 3.041 4.232 6.999 3.939 11.145l-4.753 67.139h-20.049l-4.753-67.139c-.294-4.145 1.105-8.104 3.938-11.145zm-45.119 274.103 36.047-165.819h39.821l36.047 165.819-36.127 52.181h-39.662zm-118.239 130.182h46.197c5.015 0 9.699-2.506 12.481-6.68l27.547-41.32h23.479l15.394 25.657-4.318 8.635c-5.024 10.048 2.387 21.711 13.405 21.711 5.502 0 10.8-3.039 13.428-8.295l8-16c2.293-4.587 2.084-10.028-.554-14.425l-10.37-17.283h110.008l25.5 34h-10c-8.284 0-15 6.716-15 15s6.716 15 15 15h92.631l7.579 27h-389.257z"/><path d="m96 342.993h16c8.284 0 15-6.716 15-15s-6.716-15-15-15h-16c-8.284 0-15 6.716-15 15s6.716 15 15 15z"/><path d="m117.394 274.599c5.857 5.858 15.355 5.859 21.213 0 5.858-5.858 5.858-15.355 0-21.213l-8-8c-5.857-5.858-15.355-5.858-21.213 0s-5.858 15.355 0 21.213z"/><path d="m385 327.993c0 8.284 6.716 15 15 15h16c8.284 0 15-6.716 15-15s-6.716-15-15-15h-16c-8.284 0-15 6.715-15 15z"/><path d="m394.606 274.599 8-8c5.858-5.858 5.858-15.355 0-21.213-5.857-5.858-15.355-5.858-21.213 0l-8 8c-5.858 5.858-5.858 15.355 0 21.213 5.857 5.858 15.356 5.859 21.213 0z"/></g></svg>