<svg id="Capa_1" enable-background="new 0 0 512 512" height="512" viewBox="0 0 512 512" width="512" xmlns="http://www.w3.org/2000/svg"><g><path d="m512 128c0-30.878-25.121-56-56-56s-56 25.122-56 56c0 15.475 6.311 29.502 16.492 39.648l-17.413 30.953c-26.959-25.28-63.234-43.004-102.997-50.083l-10.098-22.445c15.045-9.826 25.016-26.802 25.016-46.073 0-30.327-24.673-55-55-55s-55 24.673-55 55c0 19.271 9.971 36.247 25.016 46.073l-10.098 22.445c-39.763 7.08-76.038 24.803-102.997 50.084l-17.413-30.954c10.181-10.146 16.492-24.174 16.492-39.648 0-30.878-25.122-56-56-56s-56 25.122-56 56c0 26.863 19.016 49.359 44.291 54.759l11.797 194.642c-22.028 2.905-39.088 21.791-39.088 44.599v20c0 24.813 20.187 45 45 45h388c24.813 0 45-20.187 45-45v-20c0-22.808-17.06-41.694-39.088-44.599l11.797-194.642c25.276-5.399 44.291-27.896 44.291-54.759zm-56-26c14.337 0 26 11.664 26 26s-11.663 26-26 26-26-11.664-26-26 11.663-26 26-26zm-72.172 123.695c-5.475 9.525-15.561 15.305-26.428 15.305-11.964 0-22.875-7.055-27.791-17.964l-18.038-40.093c28.408 8.429 53.598 23.265 72.257 42.752zm-127.828-170.695c13.785 0 25 11.215 25 25s-11.215 25-25 25-25-11.215-25-25 11.215-25 25-25zm0 80c.366 0 .727-.021 1.092-.028l45.162 100.381c14.691 32.596 54.554 45.55 85.671 27.38 9.249-5.401 16.922-13.201 22.188-22.559l26.966-47.936-11.198 184.762h-339.762l-11.199-184.763 26.968 47.94c17.052 30.296 56.28 40.084 85.544 21.13 9.805-6.337 17.521-15.314 22.316-25.963l45.16-100.372c.365.007.726.028 1.092.028zm-55.571 47.943-18.037 40.089c-2.416 5.364-6.304 9.888-11.257 13.089-14.609 9.461-34.257 4.729-42.963-10.426 18.66-19.487 43.849-34.323 72.257-42.752zm-170.429-54.943c0-14.336 11.664-26 26-26s26 11.664 26 26-11.664 26-26 26-26-11.664-26-26zm435 294v20c0 8.271-6.729 15-15 15h-388c-8.271 0-15-6.729-15-15v-20c0-8.271 6.729-15 15-15h388c8.271 0 15 6.729 15 15z"/><path d="m152.02 305c-8.379 0-15.005 6.797-15.005 15 0 8.284 6.721 15 15.005 15s15-6.716 15-15-6.716-15-15-15z"/><path d="m360.02 335c8.285 0 15-6.716 15-15s-6.715-15-15-15c-8.368 0-15.005 6.786-15.005 15 0 8.284 6.72 15 15.005 15z"/><path d="m256 351c25.916 0 47-24.673 47-55s-21.084-55-47-55-47 24.673-47 55 21.084 55 47 55zm0-80c9.215 0 17 11.449 17 25s-7.785 25-17 25-17-11.449-17-25 7.785-25 17-25z"/></g></svg>