<svg id="Castle" xmlns="http://www.w3.org/2000/svg" viewBox="0 0 512 512"><title>Castle</title><g id="line"><path d="M430.49,318.91a3.5,3.5,0,0,0-4.43,1.29,150.85,150.85,0,0,1-37.9,40.59V338.23a3,3,0,0,0-3-3h-3V243.62h6.59a3,3,0,0,0,3-3V229.38a3,3,0,0,0-.21-1.09,3,3,0,0,0,.21-1.08V195.73a3,3,0,0,0-6,0v30.65h-1.89L359.67,96.32V90.2h2.49a3,3,0,0,0,0-6h-2.49V66.29a3,3,0,0,0-6,0V84.2h-2.48a3,3,0,0,0,0,6h2.48v6.12L332.81,208.58a3.06,3.06,0,0,0-.38,1.44c0,.14,0,.27,0,.4l-3,16h-1.89V197.9a3,3,0,1,0-6,0v42.72a3,3,0,0,0,3,3h6.59v91.61h-3a3,3,0,0,0-3,3v49.68a152.51,152.51,0,0,1-23.54,2.32v-118a2.88,2.88,0,0,0-.22-1.1l-14.88-89.9V151.15a3,3,0,0,0-6,0v30.06l-14.87,89.9a2.88,2.88,0,0,0-.22,1.1v24.25h-27.8V264.51a3,3,0,0,0-.21-1.11l-11-57.86a3,3,0,0,0-5.9,0l-11,57.87a3.07,3.07,0,0,0-.21,1.1v31.95H158.52A151.25,151.25,0,0,1,252.22,95,3.5,3.5,0,0,0,251,88.18,180.42,180.42,0,0,0,79.49,268.58c0,99.6,81,180.63,180.63,180.63A180.71,180.71,0,0,0,432.35,323.14,3.51,3.51,0,0,0,430.49,318.91ZM337.86,214.25l.22.2a9,9,0,0,0,13.6,0c1.11-1.06,1.55-1.43,2.65-1.43s1.54.37,2.65,1.43a9.17,9.17,0,0,0,6.8,3.11,3,3,0,0,0,0-6c-1.1,0-1.54-.37-2.65-1.44a9,9,0,0,0-13.6,0c-1.11,1.07-1.55,1.44-2.65,1.44s-1.54-.37-2.65-1.43a11.52,11.52,0,0,0-3.17-2.33L356.67,113l13.21,71.08a6.87,6.87,0,0,0-2.65-.51,7.22,7.22,0,0,0-5.33,2.4c-.76.73-.82.73-1.18.73s-.42,0-1.18-.73a7.24,7.24,0,0,0-5.34-2.4,3,3,0,0,0,0,6c.37,0,.43,0,1.18.73a7.13,7.13,0,0,0,10.67,0c.76-.73.82-.73,1.18-.73s.42,0,1.18.73a8.37,8.37,0,0,0,3,2l6.33,34.06H335.61Zm-10.24,18.13h58.11v5.24H327.62Zm9.59,11.24h38.93v91.61H337.21Zm-6,127.31H362a3,3,0,0,0,0-6H331.19v-23.7h51v8.08H347.24a3,3,0,0,0,0,6h34.92V365a150.36,150.36,0,0,1-51,21.72Zm-51.68-13.81a3,3,0,0,0-3,3v28.57c-1.69-.25-3.38-.51-5.05-.81V275.65h14.32a3,3,0,0,0-.08.67v30.8a3,3,0,0,0,6,0v-30.8a3.72,3.72,0,0,0-.08-.67h4v114.6q-6.64-.12-13.14-.8V360.12A3,3,0,0,0,279.51,357.12Zm-37.22,22.36q-6.56-2.62-12.8-5.84V338.31a6.4,6.4,0,0,1,12.8,0Zm-6.4-53.57a12.42,12.42,0,0,0-12.4,12.4v32.07a150.76,150.76,0,0,1-12.78-8.2V338.31a12.4,12.4,0,0,0-24.8,0V340a151.42,151.42,0,0,1-16.75-22.52h96.3v69.18a149.6,149.6,0,0,1-17.17-4.93V338.31A12.42,12.42,0,0,0,235.89,325.91Zm-31.18,31.76a153.4,153.4,0,0,1-12.8-11.36v-8a6.4,6.4,0,0,1,12.8,0Zm78.84-157.84L295,269.21h-23Zm-68.27,65.25h0l8.19-43,8.19,43h0v31.38H215.28Zm-3,37.38h53.18v9H165.69q-2.41-4.43-4.55-9Zm47.84,139.75c-95.74,0-173.63-77.89-173.63-173.63A173.45,173.45,0,0,1,226,98.29a158.41,158.41,0,0,0-85.83,140.76c0,87.25,71,158.23,158.23,158.23a158.21,158.21,0,0,0,117.84-52.59A172.91,172.91,0,0,1,260.12,442.21Z"/><path d="M128.84,358.43a3,3,0,1,0-4.94,3.39,166.75,166.75,0,0,0,14.31,18,3,3,0,1,0,4.43-4A162.4,162.4,0,0,1,128.84,358.43Z"/><path d="M356.67,262.66a12.44,12.44,0,0,0-12.43,12.43v24.37a3,3,0,0,0,3,3h18.87a3,3,0,0,0,3-3V275.09A12.44,12.44,0,0,0,356.67,262.66Zm6.44,33.8H350.24V275.09a6.44,6.44,0,0,1,12.87,0Z"/><path d="M283.55,137a3,3,0,0,0,3-3v-7.33a3,3,0,0,0-6,0V134A3,3,0,0,0,283.55,137Z"/><path d="M260.12,427.71a157.52,157.52,0,0,1-96.67-32.81c-3.43-2.63-6.79-5.43-10-8.34a3,3,0,0,0-4,4.45c3.33,3,6.82,5.92,10.38,8.65a163.46,163.46,0,0,0,100.32,34,3,3,0,0,0,0-6Z"/><path d="M178.77,258.36a3,3,0,0,0,3-3v-8.73h2.57a3,3,0,1,0,0-6h-2.57v-9.26a3,3,0,0,0-6,0v9.26H173.2a3,3,0,0,0,0,6h2.57v8.73A3,3,0,0,0,178.77,258.36Z"/><path d="M401.34,145.6h2.57v8.73a3,3,0,0,0,6,0V145.6h2.57a3,3,0,0,0,0-6h-2.57v-9.26a3,3,0,1,0-6,0v9.26h-2.57a3,3,0,0,0,0,6Z"/></g></svg>