<svg xmlns="http://www.w3.org/2000/svg" viewBox="0 0 512 512"><title>Compass</title><g id="Compass"><g id="line-13" data-name="line"><path d="M454.64,253.05l-10.84-2a187.25,187.25,0,0,0-52.92-125.66l14-14a3,3,0,1,0-4.24-4.24l-14,14A187.25,187.25,0,0,0,261,68.2l-2-10.84v0c0-.07,0-.13-.05-.2s-.07-.23-.11-.34a1.86,1.86,0,0,0-.1-.2,2.69,2.69,0,0,0-.16-.29c0-.07-.08-.12-.12-.18l-.21-.26-.16-.15a2.52,2.52,0,0,0-.25-.21l-.19-.13a1.91,1.91,0,0,0-.28-.15l-.21-.1-.34-.11-.19-.05a3.27,3.27,0,0,0-1.14,0l-.19.05-.34.11a1.24,1.24,0,0,0-.2.1,1.59,1.59,0,0,0-.29.15l-.19.13a2.52,2.52,0,0,0-.25.21l-.16.15-.21.26-.12.18a2.75,2.75,0,0,0-.17.29l-.09.2a2,2,0,0,0-.11.35,1.33,1.33,0,0,0-.05.19v0L251,68.2a187.25,187.25,0,0,0-125.66,52.92l-14-14a3,3,0,0,0-4.24,4.24l14,14A187.25,187.25,0,0,0,68.2,251l-10.84,2a3,3,0,0,0,0,5.9l10.84,2a187.25,187.25,0,0,0,52.92,125.66l-14,14a3,3,0,0,0,0,4.24,3,3,0,0,0,4.24,0l14-14A187.25,187.25,0,0,0,251,443.8l2,10.84s0,0,0,0a1.33,1.33,0,0,0,.05.19,2,2,0,0,0,.11.35l.09.2a2.75,2.75,0,0,0,.17.29l.12.18.21.26.16.15a2.52,2.52,0,0,0,.25.21l.19.13a1.59,1.59,0,0,0,.29.15l.2.1.34.11.19,0a3.27,3.27,0,0,0,1.14,0l.19,0,.34-.11.21-.1a1.91,1.91,0,0,0,.28-.15l.19-.13a2.52,2.52,0,0,0,.25-.21l.16-.15.21-.26c0-.06.08-.11.12-.18a2.69,2.69,0,0,0,.16-.29,1.86,1.86,0,0,0,.1-.2c0-.11.07-.22.11-.34s0-.13.05-.2v0l2-10.84a187.25,187.25,0,0,0,125.66-52.92l14,14a3,3,0,0,0,4.24,0,3,3,0,0,0,0-4.24l-14-14A187.25,187.25,0,0,0,443.8,261l10.84-2a3,3,0,0,0,0-5.9Zm-189,165.76L285.88,311.2l66.89,45.74a3,3,0,0,0,4.17-4.17L311.2,285.88l107.61-20.2C414,347.92,347.92,414,265.67,418.81ZM93.19,265.68l107.62,20.2-45.75,66.89a3,3,0,0,0,4.17,4.17l66.89-45.75,20.2,107.62C164.08,414,98,347.92,93.19,265.68ZM246.32,93.19l-20.2,107.62-66.89-45.75a3,3,0,0,0-4.17,4.17l45.75,66.89L93.19,246.32C98,164.08,164.08,98,246.32,93.19ZM418.81,246.32,311.2,226.12l45.74-66.89a3,3,0,0,0-4.17-4.17L285.88,200.8,265.67,93.19C347.92,98,414,164.08,418.81,246.32Zm.26,6.68H263.24l25.07-25.07,130.75,24.55C419.06,252.65,419.06,252.83,419.07,253ZM289.88,222.12l-2.79-14.87L343,169l-38.21,55.87Zm-5.81,1.57L259,248.76V92.93h.52ZM253,92.93V248.76l-25.07-25.07L252.48,92.94Zm-45.75,132L169,169l55.87,38.21-2.79,14.87Zm16.44,3L248.76,253H92.93c0-.17,0-.35,0-.52ZM92.93,259H248.76l-25.07,25.07L92.94,259.52C92.94,259.35,92.94,259.17,92.93,259Zm129.19,30.88,2.79,14.87L169,343l38.21-55.87Zm5.81-1.57L253,263.24V419.07h-.52ZM259,419.07V263.24l25.05,25.05,0,0L259.52,419.06Zm45.75-132L343,343l-55.87-38.21,2.79-14.87Zm-16.44-3,0,0L263.24,259H419.07c0,.17,0,.35,0,.52Zm149.45-34.19-12.87-2.41a168.59,168.59,0,0,0-47.27-108.84l9-9A181.3,181.3,0,0,1,437.76,249.88ZM382.4,125.36l-9,9A168.59,168.59,0,0,0,264.53,87.11l-2.41-12.87A181.3,181.3,0,0,1,382.4,125.36ZM249.88,74.24l-2.41,12.87a168.59,168.59,0,0,0-108.84,47.27l-9-9A181.3,181.3,0,0,1,249.88,74.24ZM125.36,129.6l9,9A168.59,168.59,0,0,0,87.11,247.47l-12.87,2.41A181.3,181.3,0,0,1,125.36,129.6ZM74.24,262.12l12.87,2.41a168.59,168.59,0,0,0,47.27,108.84l-9,9A181.3,181.3,0,0,1,74.24,262.12ZM129.6,386.64l9-9a168.59,168.59,0,0,0,108.84,47.27l2.41,12.87A181.3,181.3,0,0,1,129.6,386.64Zm132.52,51.12,2.41-12.87a168.59,168.59,0,0,0,108.84-47.27l9,9A181.3,181.3,0,0,1,262.12,437.76ZM386.64,382.4l-9-9a168.55,168.55,0,0,0,47.28-108.84l12.87-2.41A181.3,181.3,0,0,1,386.64,382.4Z"/></g></g></svg>