<svg xmlns="http://www.w3.org/2000/svg" viewBox="0 0 512 512"><title>Dragon</title><g id="Dragon"><g id="line-4" data-name="line"><path d="M73,338.94a3,3,0,0,0-5.67,2,179.67,179.67,0,0,0,10.36,23.93A3,3,0,1,0,83,362.07,174,174,0,0,1,73,338.94Z"/><path d="M176.54,188.34a3,3,0,0,0-5.45-1L160.37,204l-7.46,11.82a3,3,0,0,0,.93,4.13,3,3,0,0,0,1.6.47A3,3,0,0,0,158,219l2.66-4.22a2.32,2.32,0,0,0,.38-.06l7.92-1.73.17-.05a13.33,13.33,0,0,0,9.4-15.71Z"/><path d="M444,276a3,3,0,0,0-3.85-.43c-.15.1-6.29,4.22-16.75,11.43l14.09-39.18a3,3,0,0,0-5.12-2.94c-4.82,5.77-9.85,11.88-15,18.16l-.82,1a178.34,178.34,0,0,0-11.12-47,180.19,180.19,0,0,0-127.62-110.9,13,13,0,0,1,1.35-5.31L302,54.7a3,3,0,0,0-4.93-3.32L254.87,98.83c.67-2.43,1.32-4.86,1.92-7.3l1.06-4.23a4.66,4.66,0,0,0-7.27-4.9L178.08,135a121.07,121.07,0,0,0-36.22,42.11L96.8,263.66l-16.32,32a3,3,0,0,0,.77,3.67l20.09,16.58a25.6,25.6,0,0,0,33.6-.7l106.59-93.93a5,5,0,0,0,1.6-3.75h0c.23-.07,23.48-6.92,41.83,4.93,11.9,7.68,19.24,21.57,21.82,41.28,4.26,32.56-18.92,58.2-45.75,87.88-25,27.62-53.23,58.89-60.11,100.54a179,179,0,0,1-49.22-18.29,164.4,164.4,0,0,1-28.88-20.56c-9.68-8.59-17.42-18-24.36-26.93l-.23-.3c-1.86-2.39-3.62-4.65-5.16-7.09a3,3,0,1,0-5.07,3.2c1.69,2.69,3.63,5.17,5.5,7.58l.23.3c7.11,9.13,15.07,18.82,25.11,27.72a170.22,170.22,0,0,0,29.93,21.32,188.47,188.47,0,0,0,77.63,22.71c3.61.24,7.25.37,10.91.37A177,177,0,0,0,295.79,452a184.91,184.91,0,0,0,57.55-32.85,176.12,176.12,0,0,0,42.17-51.38c0-.08.06-.16.1-.24l24.17-34.06a3,3,0,0,0-2.7-4.72c-1.12.09-3.07.1-3.59-.89-1.28-2.42,1.46-10.15,7.41-17.38l.08-.09,23.21-30.49A3,3,0,0,0,444,276ZM422,266.87c1.33-1.63,2.66-3.26,4-4.86l-11.13,30.91C406.18,299,395.57,306.43,383.6,315c10.58-13.4,21.34-27,32.15-40.35a3,3,0,0,0,1.24-1.53C418.67,271,420.35,268.94,422,266.87ZM251.6,111.54,286.73,72,273.8,98.19a19.28,19.28,0,0,0-2,9.39c0,.1-.07.2-.09.3a3,3,0,0,0,.37,2.17,19.6,19.6,0,0,0,1.63,5A19.13,19.13,0,0,0,287,125.55l3.92.84-39.43,22a123.32,123.32,0,0,0-2.85-27.72,3.06,3.06,0,0,0-.44-1q1.35-3.73,2.59-7.52A2.89,2.89,0,0,0,251.6,111.54Zm10.23,60.12a21.41,21.41,0,0,0,12.09,14.12l5.45,2.42-42.19,2.48c-.12-.37-.23-.74-.35-1.12s-.27-.84-.4-1.27c3.41-2.81,12.5-12.15,14.64-32.75l22.16-12.38-8,10.22A21.44,21.44,0,0,0,261.83,171.66ZM244.24,130.1C249,162,239.16,176.8,234.36,182c-2.83-8.48-5.44-15.67-6.15-17.6l7-14.13C238.48,143.65,241.48,136.92,244.24,130.1ZM131,310.69a19.66,19.66,0,0,1-25.79.55l-18.24-15L96,278.34a2.87,2.87,0,0,0,1.06.14,12,12,0,0,1,12.73,11.31,3,3,0,0,0,3,2.83H113a3,3,0,0,0,2.82-3.17A18,18,0,0,0,99,272.51l3.12-6.1,45.05-86.54a115.13,115.13,0,0,1,34.43-40L251.14,89.4l-.17.68a284.6,284.6,0,0,1-21.13,57.49l-7.26,14.64a4.7,4.7,0,0,0-.21,3.65c4.73,12.77,9.42,27,12.22,37.31a3.1,3.1,0,0,0-1.09.69l-10,10h-.18l-9.66-9.67V192.36a3,3,0,0,0-6,0v13.07a3,3,0,0,0,.88,2.12l11.8,11.8v10.43L211.13,239l-9.76-9.76V217.4a3,3,0,1,0-6,0v13.07a3,3,0,0,0,.88,2.12l10.93,10.93Zm106.21-93.6-10.82,9.54v-7.12l9.87-9.88C237,213.22,237.38,215.86,237.16,217.09Zm75.6,45.82c-2.82-21.54-11.07-36.86-24.51-45.54-18.35-11.85-40.19-7.35-45.6-6A135.55,135.55,0,0,0,239,196.58l53.11-3.12a3,3,0,0,0,1-5.74l-16.79-7.42A15.54,15.54,0,0,1,270,157l16-20.5a2.91,2.91,0,0,0,.4-.73l14.36-8a3,3,0,0,0-.83-5.55l-11.7-2.51a13.18,13.18,0,0,1-9.07-7A174.31,174.31,0,0,1,399.85,219.22q1.92,4.93,3.5,10l-6.58,6.28-9.81-9.8V213.85a3,3,0,1,0-6-.12v12.94l-9.21,9.21L362,226.11V214.29a3,3,0,0,0-.08-.67v-.24a3,3,0,0,0-6,0v12.93l-9.21,9.21-9.76-9.76V213.93a3,3,0,0,0-6,0V227a3,3,0,0,0,.88,2.12l12.76,12.76a3,3,0,0,0,2.12.88,3,3,0,0,0,2.12-.88L359,231.66l10.58,10.58a3,3,0,0,0,4.24,0l10.59-10.59L394.6,241.8a3,3,0,0,0,2.12.88,3,3,0,0,0,2.07-.83l6.47-6.18a172.78,172.78,0,0,1,5.82,35.19c-14.4,17.8-28.69,35.94-42.56,53.56L366,327.65l-1.25.91v-2a3,3,0,1,0-6,0v6.33l-5.94,4.33a103.82,103.82,0,0,0-8.21,6.7,21.77,21.77,0,0,1-4.83-9.84v-6.85a3,3,0,0,0-.05-.74,3,3,0,0,0-5.94.46,22.49,22.49,0,0,0,0,7.59V340l-9.21,9.2-9.76-9.76V327.59a2.86,2.86,0,0,0-.08-.67v-.25a3,3,0,0,0-6,0v12.94l-9.2,9.2-9.76-9.76V327.47C305.25,307.49,315.9,286.92,312.76,262.91Zm-10.28,91.4,9.35-9.36,9.51,9.52a34.65,34.65,0,0,0,.1,9.9v1.74l-9.2,9.21-9.76-9.76Zm25,9.41h0v-9l10.18-10.17a29.81,29.81,0,0,0,2.61,3.51A108.36,108.36,0,0,0,327.45,363.72ZM293.8,446.35a169,169,0,0,1-67,9.43,181.29,181.29,0,0,1-20-2.49c6.51-40,33-69.33,58.67-97.7,6.28-6.94,12.47-13.8,18.22-20.69v5.4a3,3,0,0,0,.88,2.12l11.79,11.79v11.55l-9.21,9.2-9.76-9.76V353.38a3,3,0,0,0-6,0v13.06a3,3,0,0,0,.88,2.12l12.76,12.77a3,3,0,0,0,4.24,0l10.23-10.23,10.58,10.58a3,3,0,0,0,4.24,0l6.05-6.05a134.13,134.13,0,0,0-10.61,28.22,142.93,142.93,0,0,0-4.58,38Q299.6,444.31,293.8,446.35ZM416.24,306.72c-4.7,5.71-11.64,17.13-8.07,23.94a7.24,7.24,0,0,0,3.83,3.42l-21.5,30.29a2.86,2.86,0,0,0-.36.72,170.17,170.17,0,0,1-40.65,49.47,179.51,179.51,0,0,1-38.3,24.61c.06-12.79,2.92-66.15,45.14-97.07q6.33-4.65,12.39-9a3,3,0,0,0,1.38-1l.07-.09c24.4-17.66,45-32,58-41Z"/></g></g></svg>