<svg xmlns="http://www.w3.org/2000/svg" viewBox="0 0 512 512"><title>Elf</title><g id="Elf"><g id="line-10" data-name="line"><path d="M255.52,241.56a13,13,0,0,0,13-13V199.13a3,3,0,0,0-6,0v29.45a7,7,0,1,1-14,0,3,3,0,0,0-6,0A13,13,0,0,0,255.52,241.56Z"/><path d="M226.85,154.05c-.48.48-.95,1-1.41,1.45a3,3,0,0,0,0,4.1c.45.47.9.94,1.37,1.39s1.22,1.18,1.86,1.74c.85.75,1.74,1.48,2.65,2.16A44.75,44.75,0,0,0,258.49,174a45.34,45.34,0,0,0,33.05-14.38,3,3,0,0,0,0-4.09,45.15,45.15,0,0,0-63.77-2.33Zm31.64-6.93a38.75,38.75,0,0,1,26.62,10.43,39.19,39.19,0,0,1-50.19,2.55c-.78-.59-1.56-1.22-2.3-1.88-.25-.22-.5-.44-.74-.67A39.07,39.07,0,0,1,258.49,147.12Z"/><circle cx="258.49" cy="157.54" r="9.67" transform="translate(-35.69 228.92) rotate(-45)"/><path d="M155.56,213.87v78.56l0,0a78.1,78.1,0,0,0-12.43,9.26,3,3,0,0,0,2,5.22,3.05,3.05,0,0,0,2-.79,71.54,71.54,0,0,1,8.4-6.6v10.85a3,3,0,0,0,6,0V154.6a85.36,85.36,0,0,1,4.89-28.53,36.08,36.08,0,0,1,11.26-7.24A199.78,199.78,0,0,1,239,105.16l-12.33,13.3a161.48,161.48,0,0,0-38.43,71.13V150.15a3,3,0,0,0-6,0v75.19a73.29,73.29,0,0,0,1.27,13.5v90.29a3,3,0,0,0,6,0V287.85q5.94-.35,12.2-.62c0,.11.07.21.11.31l51.34,104a3,3,0,0,0,2.66,1.67h0a3,3,0,0,0,2.66-1.62l53.33-103.37c3.55.26,7.08.54,10.57.83v39.1a3,3,0,0,0,6,0V233.08a73.31,73.31,0,0,0,.41-7.74V150.15a3,3,0,0,0-6,0v36.12a161.41,161.41,0,0,0-37.58-67.81l-12-12.89c25.11,2.28,49.59,8.91,71.07,19.78a85.66,85.66,0,0,1,5.13,29.25V309.76a3,3,0,0,0,6,0v-8.68c2,1.52,3.95,3.13,5.8,4.84.61.57,1.22,1.15,1.82,1.74a3,3,0,1,0,4.22-4.26c-.65-.64-1.31-1.27-2-1.89a83.61,83.61,0,0,0-9.58-7.62,2.69,2.69,0,0,0-.29-.16V214.49c12.57-13.67,33.41-44.69,32.31-99.18a3,3,0,0,0-5.56-1.52l-26.75,43.37V154.6A91.27,91.27,0,0,0,350,123.43a3,3,0,0,0-.47-1.72l-.42-.64a92,92,0,0,0-85.49-58.31H247.39a92,92,0,0,0-85.55,58.45c-.49,1.12-.83,1.93-1,2.26a3,3,0,0,0-.21,1,91.34,91.34,0,0,0-5.1,30.17v1.66l-26.19-42.47a3,3,0,0,0-5.56,1.52c-1.09,53.93,19.39,84.87,31.7,98.52A.1.1,0,0,0,155.56,213.87Zm33.94,43.27A73.52,73.52,0,0,0,207.91,281c-6.43.22-12.52.5-18.41.85Zm66.4,126.41L208.23,287l6.72-.21a2.52,2.52,0,0,0,.56-.07,73,73,0,0,0,79.64.24,3.13,3.13,0,0,0,1.19.32c3,.15,6,.33,9,.52ZM322.4,283c-6.56-.55-13.24-1-20-1.43a73.77,73.77,0,0,0,20-26.34ZM280.83,122.54a155.36,155.36,0,0,1,38.74,76.33c-.09,5.19-5.9,9.39-13,9.39s-13-4.27-13-9.51a3,3,0,0,0-6,0c0,8.55,8.54,15.51,19,15.51a21,21,0,0,0,14.6-5.57,155.62,155.62,0,0,1,1.27,19.83v4.19a67.28,67.28,0,0,1-132.9,5.6v-9.79a157.48,157.48,0,0,1,1.12-18.73,21,21,0,0,0,14.26,5.26c10.5,0,19.05-7,19.05-15.51a3,3,0,0,0-6,0c0,5.25-5.85,9.51-13.05,9.51-6.59,0-12-3.58-12.91-8.22a155.38,155.38,0,0,1,39.09-78.29l16.49-17.78q8.49-.24,17,.2ZM253.45,98.69c-26.92,0-53.83,4.82-78,14.58-1.34.54-2.65,1.16-3.93,1.83,2.19-4,4.54-7.54,6.38-8.86a48.09,48.09,0,0,1,9.31-4.58c44.58-16.64,98.7-15,145,4.3L338.73,116C312.71,104.52,283.08,98.69,253.45,98.69ZM356.83,166.4l24.86-40.3c-.84,22.05-6,53.92-26.21,79.18V167.57A3,3,0,0,0,356.83,166.4ZM247.39,68.76h16.26A85.62,85.62,0,0,1,328,97.83C281.8,80.43,229,79.66,185.15,96l-.66.24A85.64,85.64,0,0,1,247.39,68.76ZM155.15,167a2.69,2.69,0,0,0,.41.52v37c-19.72-25.18-24.82-56.66-25.65-78.46Z"/><path d="M274,251.83a3,3,0,0,0-4.14.93,16.39,16.39,0,0,1-14,7.58h0a16.34,16.34,0,0,1-13.93-7.58,3,3,0,0,0-5.08,3.2,22.33,22.33,0,0,0,19,10.38h0a22.38,22.38,0,0,0,19-10.37A3,3,0,0,0,274,251.83Z"/><path d="M375.81,346.9c-9.78,9.78-21.93,20.48-34.74,31.09l8.26-37.72a3,3,0,1,0-5.86-1.28L334,382.44a3,3,0,0,0,0,1.36c-33.77,27.4-69.84,52.9-78,58.62-8.17-5.72-44.28-31.23-77.94-58.68a3,3,0,0,0,0-1.3L168.53,339a3,3,0,1,0-5.86,1.28l8.23,37.6c-12.1-10.09-23.59-20.26-33-29.66a3,3,0,0,0-4.24,4.25c17.59,17.59,42.4,37.85,64.95,55.22l-27.25-.63h-.07a3,3,0,0,0-.07,6l33.27.78h.07a3,3,0,0,0,1.52-.42c26.26,20,47.76,34.86,48.17,35.14l.27.16.09.06a3.19,3.19,0,0,0,.59.21l.12,0a2.72,2.72,0,0,0,.63.08h0a2.72,2.72,0,0,0,.63-.08l.12,0a2.63,2.63,0,0,0,.59-.22l.09-.05.27-.16c.42-.29,21.9-15.2,48.21-35.15a3,3,0,0,0,1.53.43h.07l33.27-.78a3,3,0,1,0-.14-6l-27.26.63c23.2-17.82,48.84-38.68,66.69-56.54a3,3,0,0,0-4.24-4.24Z"/></g></g></svg>