<svg id="Capa_1" viewBox="0 0 512 512" xmlns="http://www.w3.org/2000/svg"><path d="m464 429.229v-141.229c0-8.284-6.716-15-15-15h-16.338l12.842-122h3.496c8.284 0 15-6.716 15-15v-61c0-41.355-33.645-75-75-75h-314c-41.355 0-75 33.645-75 75v61c0 8.284 6.716 15 15 15h3.496l12.842 122h-16.338c-8.284 0-15 6.716-15 15v179c0 24.813 20.187 45 45 45h452c8.284 0 15-6.716 15-15 0-30.291-20.165-57.617-48-67.771zm-30-34.26c-10.243-6.567-22.325-10.149-35-9.947v-82.022h35zm-159.419 87.031h-179.581v-67h251.34c-1.966 3.194-3.649 6.556-5.018 10.051-33.088 1.253-60.143 25.762-66.741 56.949zm-210.567-209c3.122-10.59 13.183-18.428 24.97-17.981 14.388.556 27.774-6.071 35.837-17.736 8.817-12.792 25.288-17.627 39.491-11.91 15.412 6.213 32.84 2.777 44.396-8.747 12.881-12.836 33.692-12.847 46.579-.004 11.561 11.529 28.989 14.964 44.394 8.754 14.127-5.686 30.629-.96 39.509 11.924 8.052 11.649 21.441 18.273 35.827 17.72 11.736-.446 21.829 7.344 24.967 17.981h-335.97zm150.986 30h34v9c0 9.374-7.626 17-17 17s-17-7.626-17-17zm-30 0v9c0 25.916 21.084 47 47 47s47-21.084 47-47v-9h90v82h-274v-82zm249-228v46h-35v-89.866c20.014 4.561 35 22.491 35 43.866zm-155 46v-41c0-8.284-6.716-15-15-15h-64c-8.284 0-15 6.716-15 15v41h-90v-91h274v91zm-64 0v-26h34v26zm-185-46c0-21.375 14.986-39.305 35-43.866v89.866h-35zm385.338 76-8.766 83.275c-9.823-6.593-21.257-9.677-32.709-9.233-4.063.158-7.808-1.638-9.983-4.784-16.828-24.415-48.247-33.644-75.408-22.71-4.251 1.712-8.961.862-12.004-2.173-24.597-24.513-64.328-24.525-88.94.004-3.039 3.031-7.75 3.882-12.007 2.166-27.233-10.962-58.624-1.629-75.39 22.696-2.187 3.163-5.93 4.956-9.994 4.801-11.452-.443-22.886 2.64-32.71 9.233l-8.765-83.275zm-385.338 316v-164h35v179h-20c-8.271 0-15-6.729-15-15zm275.81 15c6.765-17.498 24.686-29.571 44.466-26.525 8.18 1.262 15.85-4.352 17.11-12.545 2.448-15.923 16.469-27.93 32.614-27.93 16.354 0 30.065 11.701 32.602 27.822 1.033 6.564 6.262 11.667 12.849 12.539 15.309 2.026 28.14 12.745 33.653 26.64h-173.294z"/></svg>