<svg xmlns="http://www.w3.org/2000/svg" viewBox="0 0 512 512"><title>King</title><g id="King"><g id="line-8" data-name="line"><path d="M253.37,170.63a15.58,15.58,0,1,0-15.57-15.58A15.6,15.6,0,0,0,253.37,170.63Zm0-25.16a9.58,9.58,0,1,1-9.57,9.58A9.59,9.59,0,0,1,253.37,145.47Z"/><path d="M201.36,312.07h0a3,3,0,0,0-3,3l-1,123.43a3,3,0,0,0,3,3h0a3,3,0,0,0,3-3l1-123.43A3,3,0,0,0,201.36,312.07Z"/><path d="M309.92,312.34a3,3,0,0,0-3,3v124a3,3,0,0,0,6,0v-124A3,3,0,0,0,309.92,312.34Z"/><path d="M428.35,299.39a3,3,0,0,0-3.61,2.22,172.9,172.9,0,0,1-18.8,46.8,108.43,108.43,0,0,0-52-55.32v-81a12.23,12.23,0,0,0-1.28-18.21,3,3,0,0,0,.1-.74V178.3a2.84,2.84,0,0,0-.08-.66h.08V116.56a174.41,174.41,0,0,1,66.43,84.74,167.92,167.92,0,0,1,8.12,31.53,3,3,0,0,0,3,2.54,2.38,2.38,0,0,0,.46,0,3,3,0,0,0,2.51-3.42,173.22,173.22,0,0,0-8.42-32.66,180.15,180.15,0,0,0-72.06-89.85V70.23L314.54,90.78a179.56,179.56,0,0,0-43.67-9.25L256.41,34.4h0l-2.82-9.21L235.64,82a178.86,178.86,0,0,0-41.2,9.53L156.26,71v39.68A180.19,180.19,0,0,0,77.49,234,3,3,0,0,0,80,237.38a2.28,2.28,0,0,0,.45,0,3,3,0,0,0,3-2.56,174.16,174.16,0,0,1,72.83-116.94v59.72h.37a3.51,3.51,0,0,0-.07.66v14.81a3,3,0,0,0,.49,1.64,12.19,12.19,0,0,0-2.66,13.74v83.7a2.94,2.94,0,0,0,.66,1.85A110.15,110.15,0,0,0,105,348.11a172.19,172.19,0,0,1-19.22-48.75,3,3,0,0,0-5.85,1.32A181,181,0,0,0,181.06,424.85a2.86,2.86,0,0,0,1.24.27,3,3,0,0,0,1.24-5.73,175.08,175.08,0,0,1-75.22-65.73,2.94,2.94,0,0,0,1.47-1.57,103.82,103.82,0,0,1,64.58-59.6,3,3,0,0,0-1.79-5.73,106.73,106.73,0,0,0-12.19,4.67V214.62a12.18,12.18,0,0,0,5.22,1.18h5.11v22c-.71,28,20.84,55.07,49.49,62.72v70.58c0,6.44,5.83,11.69,13,11.69s13-5.25,13-11.69V302.73l4,.11c4.18.13,8.46.26,12.74.26l1.68,0V370.9c0,6.44,5.83,11.69,13,11.69s13-5.25,13-11.69V300.33C319,294.08,340,267.06,339.79,237V215.8h5.38a11.79,11.79,0,0,0,2.8-.34v74.88q-4.28-1.8-8.73-3.25a3,3,0,1,0-1.85,5.71,103.88,103.88,0,0,1,63.81,59.84,3.06,3.06,0,0,0,1.27,1.47c-1.24,1.95-2.51,3.88-3.83,5.79a174.77,174.77,0,0,1-75.4,61.35,3,3,0,0,0,1.17,5.76,3.06,3.06,0,0,0,1.17-.24A180.28,180.28,0,0,0,430.57,303,3,3,0,0,0,428.35,299.39ZM230.63,117.73,253.5,45.37,293.36,175.3H212.44l18.19-57.57ZM346.79,181.3v8.81H162.56V181.3Zm0-71.2a2.93,2.93,0,0,0,0,1.71V175.3H299.62l0-.16-18.31-59.69,65.51-35.19ZM307.24,94.69,279.48,109.6l-6.71-21.87A173.71,173.71,0,0,1,307.24,94.69Zm-73.58-6.45L227.09,109,201.66,95.37A172.79,172.79,0,0,1,233.66,88.24Zm-8.41,26.61-19.1,60.45H162.26V81Zm-48.53,123v-22h20.09a17.59,17.59,0,0,0-3.35,10.33,3,3,0,0,0,3,3h8.6a6.13,6.13,0,0,0-.26,1.78,6.4,6.4,0,0,0,12.8,0,6.13,6.13,0,0,0-.26-1.78h8.6a3,3,0,0,0,3-3,17.59,17.59,0,0,0-3.35-10.33h15.76v45c-12,3.75-20.95,17.25-21.15,33.38v.1C195.3,286.77,176.1,262.29,176.72,237.85Zm38.88-22.59a3.13,3.13,0,0,0,.93.42,11.82,11.82,0,0,1,6,7.45h-22.7a11.78,11.78,0,0,1,6.14-7.51,2.73,2.73,0,0,0,.6-.28,11.61,11.61,0,0,1,9-.08Zm34.77,81.59-4.15-.12v-.31a9.21,9.21,0,0,1,9.13-9.19,9.2,9.2,0,0,1,9.26,9.19v.66C259.85,297.12,255,297,250.37,296.85Zm34.25,74c0,3.08-3.21,5.69-7,5.69s-7-2.61-7-5.69v-70a2.78,2.78,0,0,0,0-1.81v-2.71a15.2,15.2,0,0,0-30.39,0v74.65c0,3.08-3.21,5.69-7,5.69s-7-2.61-7-5.69V298.66a3.14,3.14,0,0,0,0-1.06v-3.42a.25.25,0,0,0,0-.08c.24-15.7,10-28.38,21.89-28.38H262.7c11.84,0,21.51,12.5,21.88,28a2.91,2.91,0,0,0,0,1.52ZM333.79,237c.2,26.38-18.59,51-43.17,57.15V294a4,4,0,0,0,0-.49c-.42-15.86-9.3-29.07-21.16-32.77V249.43a3,3,0,0,0-6,0v10.32l-.72,0H248.09c-.25,0-.49,0-.74,0V215.8H285.7a17.63,17.63,0,0,0-2.9,9.7,3,3,0,0,0,3,3h8.59a6.54,6.54,0,0,0-.25,1.78,6.4,6.4,0,1,0,12.8,0,6.55,6.55,0,0,0-.26-1.78h8.59a3,3,0,0,0,3-3,17.63,17.63,0,0,0-2.9-9.7h18.42ZM311.88,222.5H289.19a11.73,11.73,0,0,1,22.69,0Zm-2.27-12.7a3,3,0,0,0-.68.08,17.64,17.64,0,0,0-16.62-.08H218.13a17.74,17.74,0,0,0-13.86,0H165.61a6.28,6.28,0,1,1,0-12.55H345.17a6.28,6.28,0,0,1,0,12.55Z"/><path d="M94.66,270.5a3,3,0,0,0,0-4.24l-14-14a3,3,0,0,0-4.25,0l-14,14a3,3,0,0,0,0,4.24l14,14a3,3,0,0,0,2.12.88,3,3,0,0,0,2.12-.88Zm-25.81-2.12,9.72-9.72,9.72,9.72-9.72,9.72Z"/><path d="M448.56,265.94l-14-14a3.08,3.08,0,0,0-4.24,0l-14,14a3,3,0,0,0,0,4.24l14,14a3,3,0,0,0,4.24,0l14-14a3,3,0,0,0,0-4.24Zm-16.09,11.84-9.72-9.72,9.72-9.72,9.72,9.72Z"/><path d="M255.22,378.17a3,3,0,0,0-3,3v95a3,3,0,0,0,6,0v-95A3,3,0,0,0,255.22,378.17Z"/></g></g></svg>