<svg id="Capa_1" viewBox="0 0 512 512" xmlns="http://www.w3.org/2000/svg"><path d="m450.418 125.326c26.68-7.96 46.74-33.4 45.53-63.91-1.31-33.16-28.32-60.12-61.48-61.37-32.13-1.19-58.02 20.91-64.7 48.95h-227.54c-6.68-28.04-32.57-50.14-64.7-48.95-33.16 1.25-60.17 28.21-61.48 61.37-1.21 30.51 18.85 55.95 45.53 63.91l-33.17 145.97c-18.06 79.49 36.75 155.92 115.56 166.48-14.26 15.64-22.97 36.43-22.97 59.22 0 8.28 6.72 15 15 15h240c8.28 0 15-6.72 15-15 0-22.79-8.71-43.58-22.97-59.22 78.81-10.56 133.62-86.99 115.56-166.48zm-107.42-46.33h26.64l22.96 198.39c3.75 32.27-18.61 61.15-49.6 66.66zm-72 0h42v266h-42zm-72 0h42v266h-42zm-79.6 198.39 22.96-198.39h26.64v265.05c-30.99-5.51-53.35-34.39-49.6-66.66zm33.57 204.61c6.62-24.74 29.23-43 56.03-43h94c26.8 0 49.41 18.26 56.03 43zm196.75-73h-187.44c-68.56 0-119.88-63.86-104.61-131.05l36.73-161.63c2.12-9.33-4.95-18.27-14.56-18.32-19.18-.09-34.58-16.02-33.81-35.39.71-17.94 15.62-32.61 33.97-32.61 18.74 0 34 15.15 34 34 0 5.19-25 212.96-25 220.36 0 49.98 40.66 90.64 90.64 90.64h152.72c49.98 0 90.64-40.66 90.64-90.64 0-7.4-25-215.17-25-220.36 0-18.85 15.26-34 34-34 18.35 0 33.26 14.67 33.97 32.61.77 19.37-14.63 35.3-33.81 35.39-9.61.05-16.68 8.99-14.56 18.32l36.73 161.63c15.27 67.19-36.05 131.05-104.61 131.05z"/></svg>