<svg id="Capa_1" enable-background="new 0 0 512 512" height="512" viewBox="0 0 512 512" width="512" xmlns="http://www.w3.org/2000/svg"><g><path d="m497 65h-18v-25c0-8.284-6.716-15-15-15s-15 6.716-15 15v25h-17c-8.284 0-15 6.716-15 15v9h-322v-9c0-8.284-6.716-15-15-15h-17v-25c0-8.284-6.716-15-15-15s-15 6.716-15 15v25h-18c-8.284 0-15 6.716-15 15v352c0 8.284 6.716 15 15 15h18v25c0 8.284 6.716 15 15 15s15-6.716 15-15v-25h17c8.284 0 15-6.716 15-15v-9h322v9c0 8.284 6.716 15 15 15h17v25c0 8.284 6.716 15 15 15s15-6.716 15-15v-25h18c8.284 0 15-6.716 15-15v-352c0-8.284-6.716-15-15-15zm-213.16 54-15.031 50.104c-2.971 9.901-2.812 20.318.456 30.124 3.755 11.261-3.112 23.444-14.982 25.818l-25.645 5.129c-14.156 2.832-26.383 11.644-33.544 24.178l-14.066 24.616c-3.537 6.187-10.16 10.031-17.287 10.031h-14.827c-11.906 0-23.441 4.267-32.48 12.016l-21.434 18.371v-200.387zm-218.84 298h-35v-322h35zm30-58.101 40.957-35.106c3.606-3.091 8.208-4.793 12.957-4.793h14.827c17.866 0 34.471-9.636 43.333-25.147l14.066-24.616c2.857-5 7.734-8.515 13.381-9.645l25.645-5.129c29.381-5.876 47.06-36.22 37.56-64.722-1.304-3.912-1.367-8.068-.183-12.018l17.617-58.723h35.628l-9.06 36.241c-3.438 13.749-3.197 28.219.696 41.848l5.979 20.927c2.614 9.148 2.614 18.819 0 27.968l-2.22 7.769c-4.226 14.788-14.756 26.744-28.893 32.802-21.222 9.095-37.58 26.874-44.881 48.777l-19.221 57.668h-158.188zm189.812 34.101 16.06-48.181c4.593-13.781 14.886-24.967 28.238-30.689 22.468-9.629 39.205-28.632 45.92-52.135l2.22-7.769c4.154-14.54 4.154-29.911 0-44.451l-5.979-20.927c-2.449-8.575-2.602-17.679-.438-26.329l10.878-43.519h35.289v274zm197.188 24h-35v-322h35z"/><path d="m133.394 210.606c5.857 5.858 15.355 5.859 21.213 0l5.394-5.394 5.394 5.394c5.857 5.858 15.355 5.859 21.213 0 5.858-5.858 5.858-15.355 0-21.213l-5.395-5.393 5.394-5.394c5.858-5.858 5.858-15.355 0-21.213-5.857-5.858-15.355-5.858-21.213 0l-5.394 5.394-5.394-5.394c-5.857-5.858-15.355-5.858-21.213 0s-5.858 15.355 0 21.213l5.394 5.394-5.394 5.394c-5.858 5.857-5.858 15.355.001 21.212z"/></g></svg>