<svg xmlns="http://www.w3.org/2000/svg" viewBox="0 0 512 512"><title>Shield_Pikes</title><g id="Shield_Pikes"><g id="line-7" data-name="line"><path d="M436,276.93a3,3,0,0,0-5.46-1.72l-16.14,23.07-14.56-20.87a3,3,0,0,0-5.46,1.71,137,137,0,0,1-25.87,80.36l-19.16-22.83a150.37,150.37,0,0,0,14.64-65L364,179a3,3,0,0,0-3.68-2.92,103.69,103.69,0,0,1-32.64,1l27.92-33.27c.15-.18.28-.36.41-.54l18.53.71h.12a3,3,0,0,0,2.71-1.71l39.21-82.95a3,3,0,0,0-4.44-3.73l-74.88,53a3,3,0,0,0-1.19,3.12l4.11,17.87a9.09,9.09,0,0,0-.66.72l-34.53,41.14c-20.09-7.75-35.72-22.29-46.58-43.41a3,3,0,0,0-1.42-1.35,3.7,3.7,0,0,0-.33-.21,3,3,0,0,0-4,1.3c-10.28,20-24.73,34.08-43.11,42.09l-26.85-32c-.59-.71-1.21-1.53-1.86-2.39a32.91,32.91,0,0,0-5.2-5.86,3.38,3.38,0,0,0,.11-.34l4.05-17.57a3,3,0,0,0-1.19-3.12l-74.88-53a3,3,0,0,0-4.45,3.73l39.21,83a3,3,0,0,0,2.72,1.71h.11l18.32-.71a43,43,0,0,0,6.86,8.34c1.08,1.09,2.1,2.13,2.84,3l18.16,21.64a102.19,102.19,0,0,1-35.69-.48,3.2,3.2,0,0,0-.71-.1h0a3,3,0,0,0-2,.81,1.89,1.89,0,0,0-.2.2,3,3,0,0,0-.76,2h0v94a150.39,150.39,0,0,0,15.7,67.11L146,360.9a137,137,0,0,1-27-81.78,3,3,0,0,0-4.48-2.61l-.52.3a3.09,3.09,0,0,0-1,.89L98.48,298.57,82.34,275.5a3,3,0,0,0-2-1.24A3,3,0,0,0,76,276.93a179.22,179.22,0,0,0,42.81,116.39L101.35,414.1a10.49,10.49,0,0,0,8,17.24c.31,0,.62,0,.94,0a10.42,10.42,0,0,0,7.13-3.7l15.93-19a179.79,179.79,0,0,0,247.41-1.9c1.85,2.21,3.59,4.31,5.29,6.36,3.28,3.95,6.37,7.68,10,11.95,3.48,4.08,7,6.21,10.47,6.36h.36a9.34,9.34,0,0,0,6.61-2.92c4.47-4.42,4-10.59-1.18-16.93-5.85-7.1-10.95-13.29-17.09-20.53A179.24,179.24,0,0,0,436,276.93Zm-71.2,87.46c-.6.75-1.19,1.5-1.79,2.24q-2,2.44-4.14,4.79-8.61-10.34-17.25-20.66c1.69-2.71,3.27-5.48,4.78-8.3ZM338.21,356q8.3,9.88,16.55,19.81a137.11,137.11,0,0,1-78,39.53L274,417.75l39.66-34.25A143,143,0,0,0,338.21,356ZM396.57,73.93l-32.34,38.55a3,3,0,1,0,4.6,3.85l32.34-38.54-28.43,60.13L358,137.35a11.82,11.82,0,0,0,0-1.19,10.47,10.47,0,0,0-12.33-9.41l-3.31-14.4Zm-52.51,60.25a4.5,4.5,0,0,1,7.74,4.22,3.05,3.05,0,0,0-.52,1.09,5,5,0,0,1-.33.47l-30.22,36a98.59,98.59,0,0,1-9.72-2.42ZM143,137.92,114.56,77.79l32.34,38.54a3,3,0,0,0,4.6-3.85L119.15,73.94l54.26,38.41L170,127.1a11.53,11.53,0,0,0-6.14.66,9.74,9.74,0,0,0-5.92,6.72,10.45,10.45,0,0,0-.26,2.87Zm27.71,9.49c-3.47-3.53-7.78-7.92-6.91-11.51a3.76,3.76,0,0,1,2.34-2.58,5.45,5.45,0,0,1,4.81.37c1.79,1.12,3.44,3.31,5,5.43.67.88,1.36,1.8,2.06,2.63l25.54,30.45a94.32,94.32,0,0,1-9.43,2.75l-20.28-24.17C173,149.71,171.85,148.59,170.69,147.41ZM154,182.33a110,110,0,0,0,36.88-.56c19.63-3.68,46.33-14.8,64.53-46.6,18.22,32,45.28,43.2,65.18,46.9a112.62,112.62,0,0,0,37.39.58l.06,89c0,41.7-17.6,80.82-48.28,107.3l-55,47.49L201,378.93a137.73,137.73,0,0,1-31-39.84,2.94,2.94,0,0,0-.27-.53A144.27,144.27,0,0,1,154,272.71Zm43.07,201.1,36.75,32.51-1.44-1.27A137.54,137.54,0,0,1,159.92,377l15.17-18.07A142.7,142.7,0,0,0,197.05,383.43Zm-30.34-37.88q2.31,4.17,4.88,8.17l-15.87,18.91q-3.09-3.35-6-6.88Zm-53.87,78.19A4.5,4.5,0,0,1,106,418l16.83-20.07q3,3.36,6.26,6.54Zm296.48.46a3.18,3.18,0,0,1-2.5,1.17c-1.66-.07-3.91-1.62-6.17-4.26-3.62-4.24-6.7-7.95-10-11.88-1.81-2.18-3.66-4.41-5.65-6.78,2.16-2.22,4.25-4.49,6.3-6.82,5.83,6.89,10.76,12.88,16.39,19.72C412.46,421.09,410.1,423.43,409.32,424.2Zm-18.95-36.68A173.72,173.72,0,0,1,256,451c-93,0-169.19-73.31-173.8-165.18L96,305.53a3,3,0,0,0,2.46,1.28h0a3,3,0,0,0,2.45-1.28l12.34-17.69c4.19,69.81,58.45,126.33,127.26,134.07l12.18,10.77a3,3,0,0,0,2,.75,3,3,0,0,0,2-.72l12.05-10.41a143.57,143.57,0,0,0,131.41-134l11.83,17a3,3,0,0,0,2.46,1.29h0a3,3,0,0,0,2.46-1.28l12.87-18.4a173.32,173.32,0,0,1-39.38,100.68Z"/><path d="M207,372.19l45.85,40.57a3,3,0,0,0,4,0l47.07-40.63c28.7-24.78,45.16-61.4,45.16-100.49L349,195.81a3,3,0,0,0-.92-2.16,3,3,0,0,0-2.19-.83,121.77,121.77,0,0,1-26.93-1.9c-17.23-3.21-41.84-12.11-61.21-36.28a3,3,0,0,0-2.34-1.13h0a3,3,0,0,0-2.34,1.13,100.34,100.34,0,0,1-60.51,36,118.52,118.52,0,0,1-26.42,1.88,2.94,2.94,0,0,0-2.2.84,3,3,0,0,0-.92,2.16v77.21C163,311.18,179,347.45,207,372.19ZM169,198.58a124,124,0,0,0,24.65-2.06,106.4,106.4,0,0,0,61.74-35.31c20.13,23.49,44.91,32.34,62.45,35.61A127.37,127.37,0,0,0,343,198.9l0,72.76c0,37.34-15.7,72.31-43.08,95.95l-45.09,38.92L211,367.7c-26.69-23.61-42-58.23-42-95Z"/><path d="M256,296.14a35.7,35.7,0,1,0-35.7-35.7A35.73,35.73,0,0,0,256,296.14Zm0-65.4a29.7,29.7,0,1,1-29.7,29.7A29.73,29.73,0,0,1,256,230.74Z"/><path d="M256.23,282a21.38,21.38,0,1,0-21.38-21.37A21.4,21.4,0,0,0,256.23,282Zm0-36.75a15.38,15.38,0,1,1-15.38,15.38A15.4,15.4,0,0,1,256.23,245.24Z"/><path d="M97.9,213.43h4.58v14.43a3,3,0,0,0,6,0V213.43h4.59a3,3,0,0,0,0-6h-4.59V193a3,3,0,0,0-6,0v14.43H97.9a3,3,0,0,0,0,6Z"/><path d="M405.32,230.86a3,3,0,0,0,3-3V213.43h4.59a3,3,0,0,0,0-6h-4.59V193a3,3,0,1,0-6,0v14.43h-4.59a3,3,0,0,0,0,6h4.59v14.43A3,3,0,0,0,405.32,230.86Z"/></g></g></svg>