<svg xmlns="http://www.w3.org/2000/svg" viewBox="0 0 512 512"><title>Shooting_Star</title><g id="Shooting_Star"><g id="line-11" data-name="line"><path d="M140,153.05a3,3,0,1,0,4.19-4.29L120.5,125.67a3,3,0,0,0-4.19,4.3Z"/><path d="M173.44,185.69a3,3,0,1,0,4.19-4.3l-12.17-11.87a3,3,0,0,0-4.19,4.3Z"/><path d="M267.83,276.54a3,3,0,0,0,2.1-5.14l-69.45-67.72a3,3,0,0,0-4.19,4.29l69.45,67.72A3,3,0,0,0,267.83,276.54Z"/><path d="M143.75,213.28c-5.49-4.25-11.47-8.73-18.83-14.08a3,3,0,1,0-3.53,4.85c7.31,5.32,13.24,9.76,18.69,14a3,3,0,0,0,1.83.63,3,3,0,0,0,1.84-5.37Z"/><path d="M169.52,232.19a3,3,0,0,0-3.51,4.87c13.72,9.86,27.94,20.17,43.48,31.52a3,3,0,0,0,3.54-4.84C197.47,252.38,183.24,242.06,169.52,232.19Z"/><path d="M204.88,150.34a3,3,0,0,0,2.44,1.25,3,3,0,0,0,1.75-.57,3,3,0,0,0,.68-4.18c-3.62-5-7.4-10.18-11.23-15.29a3,3,0,1,0-4.8,3.59C197.52,140.23,201.28,145.34,204.88,150.34Z"/><path d="M253,212a3,3,0,0,0,4.73-3.69c-9.64-12.36-19.2-24.55-28.4-36.23a3,3,0,1,0-4.71,3.71C233.77,187.49,243.32,199.67,253,212Z"/><path d="M280.29,184.09a3,3,0,0,0,5.21-3c-8.62-15.07-16.49-28.69-24-41.64a3,3,0,0,0-5.19,3C263.82,155.43,271.68,169,280.29,184.09Z"/><path d="M337.7,234a3,3,0,0,0,2.79,1.9,3.12,3.12,0,0,0,1.11-.21,3,3,0,0,0,1.68-3.9c-2.85-7.18-5.5-13.78-8.11-20.17a3,3,0,0,0-5.55,2.27C332.21,220.26,334.86,226.84,337.7,234Z"/><path d="M230.59,343.82c-9.12-3.37-17.43-6.41-25.42-9.3a3,3,0,1,0-2,5.64c8,2.89,16.28,5.92,25.39,9.29a3.12,3.12,0,0,0,1,.18,3,3,0,0,0,1-5.81Z"/><path d="M178.18,286.86l-33.45-18.17-7.54-4.11a3,3,0,0,0-2.87,5.27l7.55,4.11,33.45,18.17a3,3,0,1,0,2.86-5.27Z"/><path d="M103.81,116.59a3,3,0,0,0,2.09-5.15l-10-9.72a3,3,0,1,0-4.19,4.3l10,9.71A3,3,0,0,0,103.81,116.59Z"/><path d="M407,361.94,393.73,360l-1.35-3.64c-12.22-33-23.76-64.09-37.42-94.7a3,3,0,0,0-5.48,2.45c12.53,28.07,23.3,56.69,34.46,86.76L379.58,342a3,3,0,0,0-2.69-1.68,2.92,2.92,0,0,0-1.1.22c-11.82-20.1-23.22-40.77-34.26-60.82-7.21-13.11-14.68-26.66-22.18-39.9-6.28-11.09-12-20.87-17.41-29.9a3,3,0,1,0-5.14,3.09c5.4,9,11.07,18.73,17.33,29.77,7.49,13.21,14.94,26.74,22.15,39.83,11.53,21,23.45,42.57,35.86,63.54l-3.15,6.4c-8.33-10.91-16.7-22-24.81-32.75-21.51-28.52-43.75-58-66.47-85.77a3,3,0,1,0-4.64,3.8c22.65,27.67,44.85,57.11,66.32,85.58C348.1,335,357.09,346.92,366,358.6l-.29.59-5,.72-2.48-2.47c-21.89-21.81-44.52-44.37-68-66.16a3,3,0,1,0-4.08,4.4c23.12,21.48,45.48,43.75,67.12,65.3l-6.54,1-.23.05c-33.65-25.5-69-51.55-107.92-79.47a3,3,0,0,0-3.5,4.87c41.52,29.81,79,57.5,114.72,84.64a3.17,3.17,0,0,0,.81.43l8.15,7.94-.54,3.12c-14.28-7.85-28.9-16.07-43.07-24l-.11-.06c-34.18-17.29-69.32-35.79-107.41-56.56a3,3,0,0,0-2.88,5.27c38.13,20.79,73.3,39.31,107.52,56.62,14.76,8.3,30,16.87,44.88,25l-.15.87c-14.63-5.86-29.66-11.11-44.27-16.21-17.15-6-34.89-12.17-51.75-19.28a3,3,0,1,0-2.33,5.53c17,7.19,34.86,13.41,52.1,19.42,14.95,5.21,30.34,10.58,45.21,16.58l-.44,2.56a3,3,0,0,0,4.36,3.16l16.93-8.9,16.92,8.9a2.91,2.91,0,0,0,1.4.35,3,3,0,0,0,3-3.51l-3.24-18.85,13.7-13.35a3,3,0,0,0-1.66-5.11Zm-17.35,15.27a3,3,0,0,0-.87,2.65l2.48,14.41-13-6.8a3,3,0,0,0-1.39-.34,3,3,0,0,0-1.4.34l-11.46,6-1.26-.52L365,379.86a3,3,0,0,0-.86-2.65L353.68,367l14.48-2.1a3,3,0,0,0,2.25-1.65l6.41-13h.12l6.42,13a3,3,0,0,0,2.26,1.65l14.47,2.1Z"/><path d="M132.59,349.74l-10.26-1.49-4.59-9.3a3,3,0,0,0-5.38,0l-4.59,9.3L97.5,349.74a3,3,0,0,0-1.66,5.12l7.43,7.24-1.76,10.22a3,3,0,0,0,4.36,3.16l9.18-4.83,9.18,4.83a3,3,0,0,0,1.39.34,3,3,0,0,0,3-3.5l-1.75-10.22,7.42-7.24a3,3,0,0,0-1.66-5.12Zm-11.08,9.16a3,3,0,0,0-.86,2.66l1,5.78-5.2-2.73a3,3,0,0,0-2.79,0l-5.19,2.73,1-5.78a3,3,0,0,0-.86-2.66l-4.21-4.1,5.81-.84a3,3,0,0,0,2.26-1.64l2.6-5.26,2.59,5.26A3,3,0,0,0,119.9,354l5.81.84Z"/><path d="M333.57,139.58l13.58-.17L355,150.5a3,3,0,0,0,2.45,1.27,2.56,2.56,0,0,0,.47,0,3,3,0,0,0,2.39-2.07l4-13,13-4a3,3,0,0,0,.84-5.31l-11.09-7.85.17-13.59a3,3,0,0,0-4.79-2.44l-10.89,8.13-12.87-4.37a3,3,0,0,0-3.8,3.81l4.36,12.87-8.13,10.89a3,3,0,0,0-.27,3.15A3,3,0,0,0,333.57,139.58Zm11.87-16.12-2.92-8.6,8.61,2.92a3,3,0,0,0,2.75-.44l7.29-5.43-.12,9.08a3,3,0,0,0,1.27,2.49l7.42,5.25-8.68,2.69a3,3,0,0,0-2,2l-2.69,8.67-5.25-7.41a3,3,0,0,0-2.45-1.27h0l-9.08.11,5.43-7.28A3,3,0,0,0,345.44,123.46Z"/><path d="M425.91,240.18l-6.21-8.31L423,222a3,3,0,0,0-3.81-3.8l-9.82,3.33-8.31-6.2a3,3,0,0,0-4.8,2.44l.14,10.37-8.47,6a3,3,0,0,0,.84,5.31l9.9,3.08,3.08,9.9a3,3,0,0,0,2.4,2.08,3.59,3.59,0,0,0,.47,0,3,3,0,0,0,2.45-1.26l6-8.47,10.37.13h0a3,3,0,0,0,2.41-4.79Zm-14.32-1.36a2.87,2.87,0,0,0-2.48,1.27l-3.39,4.79L404,239.27a3,3,0,0,0-2-2l-5.6-1.74,4.79-3.39a3,3,0,0,0,1.27-2.49l-.08-5.87,4.71,3.51a3,3,0,0,0,2.75.44l5.56-1.89-1.88,5.56a3,3,0,0,0,.43,2.76l3.51,4.7Z"/></g></g></svg>