<svg xmlns="http://www.w3.org/2000/svg" viewBox="0 0 512 512"><title>Spellbook</title><g id="Spellbook"><g id="line-9" data-name="line"><path d="M200,376.3h81.49a3,3,0,0,0,0-6H200a3,3,0,1,0,0,6Z"/><path d="M79.25,233.6a2.83,2.83,0,0,0,.41,0,3,3,0,0,0,3-2.6c4.69-34.89,22.1-69.9,47.75-96.07a3,3,0,1,0-4.28-4.2c-26.54,27.07-44.55,63.32-49.42,99.47A3,3,0,0,0,79.25,233.6Z"/><path d="M162.9,108.86a3,3,0,0,0,1.75-.56c17.44-12.51,40.1-20.51,71.32-25.19a3,3,0,1,0-.89-5.93c-32.19,4.82-55.69,13.16-73.93,26.24a3,3,0,0,0,1.75,5.44Z"/><path d="M271.68,82.75a154.88,154.88,0,0,1,35.08,6.51,168.43,168.43,0,0,1,55.11,29.16,180.66,180.66,0,0,1,41.84,46.92,3,3,0,1,0,5.1-3.16,186.67,186.67,0,0,0-43.22-48.47,174.56,174.56,0,0,0-57.07-30.19,161,161,0,0,0-36.43-6.75,3,3,0,1,0-.41,6Z"/><path d="M431.71,274a3,3,0,0,0-3.31,2.65,170.5,170.5,0,0,1-39.81,91.65V156.4a3,3,0,0,0-3-3H372.66v-10a3,3,0,0,0-3-3H320.4a2.93,2.93,0,0,0-1.46.4v-6.21c0-.56,0-1.12,0-1.66a3.29,3.29,0,0,0,0-.45h0c0-14.39-13.09-26.1-29.16-26.1a3,3,0,0,0-3,3v19.15H220.92l4.78-4.78a3,3,0,0,0,0-4.25l-19.16-19.16a3,3,0,0,0-4.25,0l-19.16,19.16a3,3,0,0,0,0,4.25l4.79,4.78H161.08c-21.23,0-38.51,15.42-38.51,34.37V368.28A159.9,159.9,0,0,1,104,340.86a3,3,0,0,0-5.27,2.85A162.48,162.48,0,0,0,122,376.76a2.94,2.94,0,0,0,1.18.78c3,14.25,15.79,25.45,31.9,27.69a3.1,3.1,0,0,0,.71.69A173.13,173.13,0,0,0,235,434.83l.3,0a3,3,0,0,0,.3-6,166.56,166.56,0,0,1-69.05-23.22H344.31c-3.65,2.21-7.35,4.37-11.1,6.33-17.77,9.29-39.16,15.26-61.85,17.28a3,3,0,0,0,.26,6h.27c23.47-2.09,45.63-8.29,64.1-17.94,6.1-3.19,12-6.83,17.71-10.36l1.21-.75a2.73,2.73,0,0,0,.63-.54h30a3,3,0,0,0,3-3v-25.3l0,0a177.39,177.39,0,0,0,41.26-75.71,175.4,175.4,0,0,0,4.48-24.3A3,3,0,0,0,431.71,274ZM319,321.73h0V312H350.9a3,3,0,0,0,0-6H319v-7.41H350.9a3,3,0,0,0,0-6H319v-7.25H350.9a3,3,0,0,0,0-6H319v-7.42H350.9a3,3,0,0,0,0-6H319V226a29.93,29.93,0,0,0,0-59.69V146.06a3,3,0,0,0,1.46.39h46.26V341.87h-58.3A25.09,25.09,0,0,0,319,321.73Zm0-149.37A23.94,23.94,0,0,1,319,220Zm-6-39.83h0c0,1.85,0,128.14,0,173.34a30.06,30.06,0,0,0-20.16-10.12l0-183.17C304.14,113.87,312.94,122.33,312.94,132.53ZM204.42,106.74l14.92,14.93-14.92,14.92-14.93-14.92Zm-35.67,75.42V134.57h25.17l8.37,8.38a3,3,0,0,0,4.25,0l8.38-8.38h71.86l0,164.05a3,3,0,0,0,3,3c12.77,0,23.16,9,23.16,20.11h0c0,11.09-10.39,20.11-23.16,20.11a2.3,2.3,0,0,0-.26,0H168.41ZM366.66,347.87v7.53H231.42a3,3,0,1,0,0,6H366.66v25.12H166.15a19.33,19.33,0,0,1,0-38.65Zm15.93,51.77H161.08c-17.93,0-32.51-12.72-32.51-28.36V162.94c0-15.64,14.58-28.37,32.51-28.37h1.67v47.58l-.34,160a25.32,25.32,0,0,0,3.74,50.37H369.66a3,3,0,0,0,3-3V159.4h9.93Z"/><path d="M108.37,284.18,89.21,265A3,3,0,0,0,85,265L65.8,284.18a3,3,0,0,0,0,4.24L85,307.59a3,3,0,0,0,4.24,0l19.16-19.17A3,3,0,0,0,108.37,284.18Zm-21.28,17L72.17,286.3l14.92-14.92L102,286.3Z"/><path d="M446.2,220,427,200.85a3.08,3.08,0,0,0-4.24,0L403.63,220a3,3,0,0,0,0,4.24l19.16,19.17a3,3,0,0,0,4.24,0l19.17-19.17a3,3,0,0,0,0-4.24Zm-21.29,17L410,222.13l14.92-14.92,14.92,14.92Z"/></g></g></svg>