<svg id="Capa_1" viewBox="0 0 512 512" xmlns="http://www.w3.org/2000/svg"><path d="m511.529 493.262-25-97c-1.361-5.28-5.435-9.284-10.495-10.697l-4.504-130.56h8.473c8.284 0 15-6.716 15-15 0-7.525-5.547-13.737-12.771-14.816l-43.229-108.072v-21.112c0-8.284-6.716-15-15-15s-15 6.716-15 15v21.112l-43.229 108.072c-7.224 1.079-12.771 7.292-12.771 14.816 0 8.284 6.716 15 15 15h8.473l-3.776 109.512-45.216-70.369-7.369-103.143h7.89c8.284 0 15-6.716 15-15 0-7.758-5.891-14.14-13.443-14.919l-58.558-124.433v-21.648c0-8.284-6.716-15-15-15s-15 6.716-15 15v21.647l-58.557 124.434c-7.552.779-13.443 7.161-13.443 14.919 0 8.284 6.716 15 15 15h7.891l-8.853 123.955-34.399 48.36c-9.335-13.322-8.648-12.459-9.848-13.706l-3.264-94.609h8.473c8.284 0 15-6.716 15-15 0-7.525-5.547-13.737-12.771-14.816l-43.229-108.072v-21.112c0-8.284-6.716-15-15-15s-15 6.716-15 15v21.112l-43.229 108.072c-7.224 1.079-12.771 7.292-12.771 14.816 0 8.284 6.716 15 15 15h8.473l-5.665 164.205-20.498 17.344c-2.646 2.24-4.436 5.327-5.063 8.737l-9 48.93c-1.692 9.206 5.379 17.71 14.748 17.714l482.005.07c9.793 0 16.971-9.252 14.525-18.743zm-87.525-332.868 25.845 64.611h-51.689zm17.509 94.611 4.484 130h-43.986l4.484-130zm-199.454 28.744 32.606-16.304c11.303 17.591 14.872 23.145 41.641 64.804l-16.447 28.777-34.253-28.544c-5.477-4.562-13.406-4.644-18.973-.189l-24.819 19.854-10.924-24.579zm13.945-208.516 40.363 85.772h-80.727zm-34.033 115.772h68.066l3.607 50.48-1.021-1.588c-4.141-6.445-12.474-8.735-19.327-5.308l-48 24c-4.054 2.027-5.436 4.609-8.821 9.368zm-31.285 164.968 11.611 26.125c3.99 8.976 15.404 11.758 23.077 5.621l30.437-24.349 38.591 32.159c7.163 5.968 17.998 4.019 22.626-4.081l17.567-30.738 15.683 24.407c-6.576.759-11.974 5.78-13.073 12.448l-13.925 84.419-10.507-.002-27.688-49.319c-2.655-4.729-7.656-7.657-13.08-7.657h-80.136l-24.954-35.612zm41.096 125.994-18.893-26.961h50.333l15.141 26.97zm-143.778-321.573 25.845 64.611h-51.69zm-17.509 94.611h35.018l3.499 101.42-43.279 36.621zm-37.481 226.936 4.772-25.948 87.363-73.923 70.021 99.926zm320.667.064 11.052-67h95.647l17.268 67z"/></svg>