<svg xmlns="http://www.w3.org/2000/svg" viewBox="0 0 512 512"><title>Swords</title><g id="Swords"><g id="line-5" data-name="line"><path d="M224.37,292.05a3,3,0,0,0,2.13-.88L244,273.67a3,3,0,0,0-4.24-4.24l-17.5,17.5a3,3,0,0,0,2.12,5.12Z"/><path d="M248.41,107.2H253v14.43a3,3,0,0,0,6,0V107.2h4.59a3,3,0,0,0,0-6H259V86.77a3,3,0,1,0-6,0V101.2h-4.59a3,3,0,0,0,0,6Z"/><path d="M404.37,204.42H409v14.43a3,3,0,0,0,6,0V204.42h4.59a3,3,0,0,0,0-6H415V184a3,3,0,0,0-6,0v14.43h-4.59a3,3,0,0,0,0,6Z"/><path d="M91.4,203.75H96v14.43a3,3,0,0,0,6,0V203.75h4.59a3,3,0,0,0,0-6H102V183.32a3,3,0,0,0-6,0v14.43H91.4a3,3,0,1,0,0,6Z"/><path d="M436,248.2a3,3,0,0,0-5.46-1.72l-16.14,23.07-14.56-20.87a3,3,0,0,0-5.46,1.72,136.9,136.9,0,0,1-29.73,85.44l-25.93-25.93,22-22a10.2,10.2,0,0,0-14.42-14.42l-14.7,14.7-32-32,63.74-63.74a3,3,0,0,0,.62-.89l31.61-70.21A3,3,0,0,0,395,118a3,3,0,0,0-3.37-.6l-69.76,32.07a2.88,2.88,0,0,0-.87.6l-63.74,63.74-64.53-64.52a2.84,2.84,0,0,0-.86-.6l-69.77-32.07a3,3,0,0,0-4,4l31.61,70.21a3,3,0,0,0,.62.89l64.52,64.52-34.44,34.44-14.7-14.7a10.19,10.19,0,0,0-17.4,7.21,10.09,10.09,0,0,0,3,7.21l22,22-24,24a137,137,0,0,1-30.22-86,3,3,0,0,0-4.48-2.61l-.52.3a3,3,0,0,0-1,.89L98.48,269.85,82.34,246.78a3,3,0,0,0-2-1.24A2.91,2.91,0,0,0,79,245.2a3,3,0,0,0-3,3,179.06,179.06,0,0,0,35.78,107.59,9.86,9.86,0,0,0-13,.75l-.53.54a9.83,9.83,0,0,0,0,13.89l43.87,43.88a9.84,9.84,0,0,0,13.89,0l.54-.54a9.83,9.83,0,0,0,0-13.89l-7.69-7.69a179.89,179.89,0,0,0,196.19,12q5.1-2.89,10-6.11a9.83,9.83,0,0,0,.57,13.25l.54.54a9.86,9.86,0,0,0,13.89,0l43.87-43.88a9.83,9.83,0,0,0,0-13.89l-.53-.53a9.76,9.76,0,0,0-7-2.87,9.87,9.87,0,0,0-3.07.49A179,179,0,0,0,436,248.2ZM341.46,358.94l-6.63-6.63,18.92-18.92,7.1,7.1A138,138,0,0,1,341.46,358.94Zm-25.17-25.17,18.92-18.92,4.62,4.62-18.92,18.92Zm27.79-10,5.43,5.43-18.92,18.92-5.43-5.43Zm6.47-46a4.2,4.2,0,0,1,5.94,5.94l-71.79,71.8a4.2,4.2,0,0,1-5.94-5.94Zm-23.19,14.71-33.9,33.9-32-32,33.9-33.9ZM253,218.06l-14.83,14.83L133.94,128.69l54.89,25.22Zm-98-30.24-24.3-53.95L233.9,237.13,219.07,252Zm65.51,71.25a3,3,0,0,0,1.49-1.49L324.83,154.69l54.88-25.22L255.56,253.62a3,3,0,0,0,2.12,5.12,3,3,0,0,0,2.12-.88L383,134.65l-24.3,53.95L218.54,328.79l-33.9-33.91Zm-66.16,24.08a4.19,4.19,0,0,1,7.16-3L233.24,352a4.2,4.2,0,1,1-5.94,5.93l-71.79-71.79h0A4.16,4.16,0,0,1,154.29,283.15Zm68.77,79a10.2,10.2,0,1,0,14.43-14.43L222.78,333l34.44-34.44,32,32-14.71,14.7a10.2,10.2,0,0,0,14.43,14.43l22.41-22.41,25.25,25.25a137.56,137.56,0,0,1-159.14.38l23.19-23.19Zm-55.14-36,18.92,18.92-5.43,5.44-18.92-18.92Zm23.17,14.68-18.92-18.92,4.62-4.62,18.92,18.92Zm-32.84-5,18.92,18.92-4.58,4.58A138.8,138.8,0,0,1,153.09,341Zm-6,74.23-.54.54a3.82,3.82,0,0,1-5.4,0l-43.88-43.87a3.82,3.82,0,0,1,0-5.4l.54-.54a3.92,3.92,0,0,1,5.4,0l43.88,43.87A3.84,3.84,0,0,1,152.24,410.06Zm254.1-52.82a3.75,3.75,0,0,1,2.7,1.11l.54.54a3.82,3.82,0,0,1,0,5.4L365.7,408.16a3.91,3.91,0,0,1-5.4,0l-.54-.53a3.84,3.84,0,0,1,0-5.4l43.88-43.88A3.79,3.79,0,0,1,406.34,357.24Zm-16,1.55c-.41.5-.83,1-1.25,1.49h0c-1.29,1.53-2.6,3.05-3.93,4.53a174.26,174.26,0,0,1-19.42,18.44c-1.56,1.27-3.14,2.52-4.75,3.73a173.86,173.86,0,0,1-208.58,1h0q-2.43-1.82-4.8-3.69h0A175.29,175.29,0,0,1,128.05,366q-2-2.2-4-4.49A173.28,173.28,0,0,1,82.2,257L96,276.81a3,3,0,0,0,2.46,1.28h0a3,3,0,0,0,2.46-1.29l12.34-17.68a143,143,0,0,0,35.55,86.11h0a144,144,0,0,0,19.47,18.37h0q2.38,1.88,4.85,3.63h0a143.52,143.52,0,0,0,191.94-22.5h0c.87-1,1.73-2,2.57-3a143.25,143.25,0,0,0,32.46-82.18l11.83,17a3,3,0,0,0,2.46,1.28h0a3,3,0,0,0,2.46-1.28l12.87-18.4a171.94,171.94,0,0,1-15.21,62A174.12,174.12,0,0,1,390.37,358.79Z"/></g></g></svg>