<svg id="Capa_1" viewBox="0 0 512 512" xmlns="http://www.w3.org/2000/svg"><g><path d="m497 273c-6.79 0-50.506 0-57.55 0v-39.198l34.241-2.854c5.217-.435 9.83-3.558 12.171-8.24 12.119-24.237 12.119-53.179 0-77.416-2.341-4.683-6.954-7.806-12.171-8.24l-34.241-2.854v-30.198c0-8.284-6.716-15-15-15s-15 6.716-15 15v27.698l-31.759-2.646c-11.075-.933-19.316 10.161-15.173 20.519l5.37 13.427c5.418 13.544 5.418 28.462 0 42.007l-5.37 13.426c-3.945 9.863 3.347 20.57 13.925 20.57.895 0 33.006-2.698 33.006-2.698v36.697h-49.449c-5.172 0-9.979 2.664-12.72 7.05l-7.906 12.65c-17.338 27.739-47.217 44.3-79.928 44.3h-36.446v-75.472l82.196-6.576c5.434-.435 10.204-3.783 12.459-8.745 27.214-59.87 27.214-128.544 0-188.414-2.255-4.962-7.025-8.311-12.459-8.745l-82.196-6.576v-27.472c0-8.284-6.716-15-15-15s-15 6.716-15 15v25.072l-87.804-7.024c-10.968-.893-19.162 10.027-15.196 20.337l10.638 27.659c17.598 45.757 17.598 96.155 0 141.912l-10.638 27.659c-3.771 9.803 3.467 20.385 13.998 20.385.933 0-4.896.44 89.002-7.072v73.072h-19.745c-25.119 0-48.806-9.764-66.648-27.606-2.825-2.825-6.643-4.394-10.607-4.394-13.199 0-60.613 0-81 0-8.284 0-15 6.716-15 15s6.716 15 15 15h3.897l18.718 138.047c3.011 22.207 22.181 38.953 44.592 38.953h272.729c52.927 0 99.068-33.132 117.075-81.786 2.326-5.96 5.319-17.456 6.446-25.343l14.552-101.871h3.991c8.284 0 15-6.716 15-15s-6.716-15-15-15zm-98.194-112.085 63.309 5.276c3.806 11.531 3.806 24.086 0 35.617l-63.309 5.276c4.208-15.136 4.208-31.032 0-46.169zm-270.168-90.641-2.085-5.422 167.227 13.378c19.046 47.335 19.046 100.204 0 147.539l-167.228 13.378 2.085-5.422c20.271-52.701 20.271-110.749.001-163.451zm226.298 411.726h-272.729c-7.47 0-13.86-5.582-14.864-12.984l-4.07-30.016h370.951c-17.839 27.3-47.676 43-79.288 43zm92.226-73h-387.957l-10.034-74h40.841c22.869 20.683 52.186 32 83.243 32h86.191c42.282 0 82.379-21.619 105.368-58.399l3.5-5.601h94.391c-15.066 105.461-14.115 100.001-15.543 106z"/><path d="m400.02 345c-8.379 0-15.005 6.797-15.005 15 0 8.284 6.721 15 15.005 15s15-6.716 15-15-6.716-15-15-15z"/></g></svg>